<svg xmlns="http://www.w3.org/2000/svg" width="133.61" height="133.609" viewBox="0 0 133.61 133.609">
  <g id="Group_6627" data-name="Group 6627" transform="translate(3113.514 -17094)">
    <g id="Group_6626" data-name="Group 6626">
      <rect id="Rectangle_3312" data-name="Rectangle 3312" width="113.077" height="67.191" rx="1" transform="translate(-3104.478 17105)" fill="current"/>
      <path id="Path_22607" data-name="Path 22607" d="M124.587,2H13.023A11.034,11.034,0,0,0,2,13.023V80.051A11.034,11.034,0,0,0,13.023,91.073H45.468l-16.59,41.486a2.274,2.274,0,0,0,.223,2.071,2.227,2.227,0,0,0,1.848.98h8.907a2.227,2.227,0,0,0,2.071-1.4L48.5,117.8H89.114l6.569,16.412a2.227,2.227,0,0,0,2.071,1.4h8.907a2.227,2.227,0,0,0,1.848-.98,2.274,2.274,0,0,0,.223-2.071L92.142,91.073h32.445A11.034,11.034,0,0,0,135.61,80.051V13.023A11.034,11.034,0,0,0,124.587,2ZM38.342,131.156h-4.1L50.278,91.073h4.1ZM59.185,91.073h19.24l5.344,13.361H53.841Zm-8.907,22.268,1.781-4.454H85.551l1.781,4.454Zm53.088,17.815h-4.1L83.235,91.073h4.1Zm27.791-51.106a6.567,6.567,0,0,1-6.569,6.569H13.023a6.567,6.567,0,0,1-6.569-6.569V13.023a6.567,6.567,0,0,1,6.569-6.569H124.587a6.567,6.567,0,0,1,6.569,6.569Z" transform="translate(-3115.514 17092)" fill="current"/>
      <path id="Path_22608" data-name="Path 22608" d="M117.342,6H10.454A4.467,4.467,0,0,0,6,10.454V72.805a4.467,4.467,0,0,0,4.454,4.454H117.342a4.467,4.467,0,0,0,4.454-4.454V10.454A4.467,4.467,0,0,0,117.342,6Zm0,66.805H10.454V10.454H117.342Z" transform="translate(-3110.606 17096.908)" fill="current"/>
      <path id="Path_22650" data-name="Path 22650" d="M55.812,18.1,52.48,10.947a1.671,1.671,0,0,0-2.965,0L46.183,18.1a1.9,1.9,0,0,0-.183.805V47.539a5.01,5.01,0,1,0,10,0V18.909a1.9,1.9,0,0,0-.183-.805ZM51,15.76l1.466,3.149H49.532Zm1.666,31.778a1.67,1.67,0,1,1-3.332,0V22.488h3.332Z" transform="translate(-3059.204 17105.633)" fill="#fff"/>
    </g>
  </g>
</svg>
