<svg id="book-of-black-cover-closed" xmlns="http://www.w3.org/2000/svg"   height="158.802" viewBox="0 0 133.607 158.802">
  <path id="Path_22718" data-name="Path 22718" d="M56.657,126.771H164.828a4.129,4.129,0,0,0,.96-.121c.025,0,.045,0,.069,0a4.187,4.187,0,0,0,4.185-4.185V4.185A4.187,4.187,0,0,0,165.858,0H56.663a20.223,20.223,0,0,0-20.2,20.2,4.263,4.263,0,0,0,.044.435c-.015,10.287-.142,104.815-.015,117.241-.008.243-.038.48-.038.726a20.213,20.213,0,0,0,18.931,20.137,4.15,4.15,0,0,0,.639.063H165.857a4.187,4.187,0,0,0,4.185-4.185V138.864a4.185,4.185,0,1,0-8.37,0v11.569H56.657A11.835,11.835,0,0,1,44.85,139.086c.006-.112.027-.219.025-.333,0-.184-.01-.47-.015-.85A11.838,11.838,0,0,1,56.657,126.771ZM59.511,20.2a4.185,4.185,0,1,1,8.37,0V105.21a4.185,4.185,0,1,1-8.37,0Z" transform="translate(-36.436)" fill="current"/>
</svg>
