<svg xmlns="http://www.w3.org/2000/svg" width="36.694" height="36.695" viewBox="0 0 36.694 36.695">
  <defs>
    <style>
      .cls-1 {
        fill: #537980;
      }

      .cls-2 {
        fill: #385b60;
      }

      .cls-3 {
        fill: #eaeaf0;
      }

      .cls-4 {
        fill: #9adb07;
      }

      .cls-5 {
        fill: #d8d8d8;
      }

      .cls-6 {
        fill: #94c600;
      }

      .cls-7 {
        fill: #051720;
      }
    </style>
  </defs>
  <g id="chemistry" transform="translate(0 0)">
    <g id="Group_4668" data-name="Group 4668" transform="translate(0.546 0.547)">
      <path id="Path_20300" data-name="Path 20300" class="cls-1" d="M0,0H1.873V31.676H0Z" transform="translate(32.07 34.391) rotate(180)"/>
      <path id="Path_20301" data-name="Path 20301" class="cls-2" d="M0,0H3.747V2.536H0Z" transform="translate(33.007 34.391) rotate(180)"/>
      <path id="Path_20302" data-name="Path 20302" class="cls-3" d="M20.594,27.919V13.276H13.1V27.919A8.868,8.868,0,0,0,8.078,37.9a9,9,0,0,0,17.539,0,8.868,8.868,0,0,0-5.023-9.979Z" transform="translate(-7.442 -11.16)"/>
      <path id="Path_20303" data-name="Path 20303" class="cls-4" d="M28.076,82.912a7.1,7.1,0,0,1-14.206,0,7.029,7.029,0,0,1,.219-1.742H27.858A7.029,7.029,0,0,1,28.076,82.912Z" transform="translate(-11.569 -58.161)"/>
      <rect id="Rectangle_2042" data-name="Rectangle 2042" class="cls-5" width="10.303" height="1.873" rx="0.937" transform="translate(4.253 2.116)"/>
      <path id="Path_20304" data-name="Path 20304" class="cls-1" d="M6.5,115.5H42.1v1.873H6.5Z" transform="translate(-6.5 -81.772)"/>
      <path id="Path_20305" data-name="Path 20305" class="cls-3" d="M75.126,6.5V28.548a2.81,2.81,0,1,0,5.62,0V6.5Z" transform="translate(-53.915 -6.5)"/>
      <rect id="Rectangle_2043" data-name="Rectangle 2043" class="cls-5" width="1.873" height="8.43" rx="0.937" transform="translate(28.23) rotate(90)"/>
      <path id="Path_20306" data-name="Path 20306" class="cls-2" d="M0,0H1.873V15.143H0Z" transform="translate(34.86 7.027) rotate(90)"/>
      <g id="Group_4667" data-name="Group 4667" transform="translate(6.993 17.859)">
        <circle id="Ellipse_94" data-name="Ellipse 94" class="cls-6" cx="0.937" cy="0.937" r="0.937" transform="translate(0 8.478)"/>
        <circle id="Ellipse_95" data-name="Ellipse 95" class="cls-6" cx="0.937" cy="0.937" r="0.937" transform="translate(5.148 6.644)"/>
        <circle id="Ellipse_96" data-name="Ellipse 96" class="cls-6" cx="0.937" cy="0.937" r="0.937" transform="translate(0.937)"/>
      </g>
    </g>
    <g id="Group_4669" data-name="Group 4669" transform="translate(0 0)">
      <path id="Path_20307" data-name="Path 20307" class="cls-7" d="M108.986,62.254a.547.547,0,0,0-.546.545V64.2a.546.546,0,1,0,1.093,0V62.8A.547.547,0,0,0,108.986,62.254Z" transform="translate(-76.37 -44.458)"/>
      <path id="Path_20308" data-name="Path 20308" class="cls-7" d="M29.42,27.75a.546.546,0,0,0-.546.546v2.055a.546.546,0,1,0,1.093,0V28.3a.547.547,0,0,0-.546-.546Z" transform="translate(-21.406 -20.633)"/>
      <path id="Path_20309" data-name="Path 20309" class="cls-7" d="M12.356,79.831a7.65,7.65,0,1,0,14.828,0,.546.546,0,0,0-.531-.411H12.885a.546.546,0,0,0-.529.411Zm.968.682H26.216a6.557,6.557,0,1,1-12.892,0Z" transform="translate(-9.819 -56.41)"/>
      <path id="Path_20310" data-name="Path 20310" class="cls-7" d="M40.9,38.5H38.87V37.185a.542.542,0,0,0-.542-.542h-.386V26.605a.542.542,0,0,0-1.084,0V36.643h-.774V13.169h.774v7.819a.542.542,0,1,0,1.084,0V13.169h2.225a.542.542,0,0,0,.542-.542V10.769a.542.542,0,0,0-.542-.542H37.942V7.982A.542.542,0,0,0,37.4,7.44H35.542A.542.542,0,0,0,35,7.982v2.246H32.659V7.683a1.468,1.468,0,0,0-.079-2.934h-6.5A1.468,1.468,0,1,0,26,7.683v2.544h-.853a.542.542,0,0,0-.542.542v1.858a.542.542,0,0,0,.542.542H26v13.99a3.329,3.329,0,0,0,6.658,0V13.169H35V36.643h-.388a.542.542,0,0,0-.542.542V38.5H29.548a.542.542,0,1,0,0,1.084H40.36v.774H5.834v-.774h20.71a.542.542,0,1,0,0-1.084H19a9.442,9.442,0,0,0,3.55-13.483.542.542,0,1,0-.909.588,8.361,8.361,0,1,1-10.516-3.062.542.542,0,0,0,.316-.492V9.789h6.348v1.231H16.478a.542.542,0,1,0,0,1.084h1.315V13.11H16.478a.542.542,0,0,0,0,1.084h1.315V15.2H16.478a.542.542,0,0,0,0,1.084h1.315V17.29H16.478a.542.542,0,1,0,0,1.084h1.315V19.38H16.478a.542.542,0,1,0,0,1.084h1.315v1.589a.542.542,0,0,0,.316.492,8.31,8.31,0,0,1,2.041,1.329.542.542,0,1,0,.718-.812,9.38,9.38,0,0,0-1.991-1.35V9.781A1.468,1.468,0,1,0,18.8,6.846H10.44a1.468,1.468,0,0,0-.079,2.934V21.712A9.44,9.44,0,0,0,10.233,38.5H5.292a.542.542,0,0,0-.542.542V40.9a.542.542,0,0,0,.542.542H40.9a.542.542,0,0,0,.542-.542V39.043A.542.542,0,0,0,40.9,38.5ZM36.084,8.524h.774v1.7h-.774ZM25.691,6.22a.388.388,0,0,1,.387-.387h6.5a.387.387,0,0,1,0,.774h-6.5A.388.388,0,0,1,25.691,6.22Zm1.393,1.471h4.49v2.537H27.086Zm-1.393,3.621H39.625v.774H25.691Zm5.883,2.864H30.258a.542.542,0,0,0,0,1.084h1.317v1.006H30.258a.542.542,0,0,0,0,1.084h1.317v1.006H30.258a.542.542,0,0,0,0,1.084h1.317v1.006H30.258a.542.542,0,0,0,0,1.084h1.317v1.006H30.258a.542.542,0,0,0,0,1.084h1.317v3.539a2.245,2.245,0,0,1-4.49,0V13.169h4.49ZM35.153,38.5v-.774h2.632V38.5ZM10.053,8.318a.387.387,0,0,1,.387-.387H18.8a.387.387,0,1,1,0,.774H10.44A.387.387,0,0,1,10.053,8.318Z" transform="translate(-4.75 -4.748)"/>
      <path id="Path_20311" data-name="Path 20311" class="cls-7" d="M28.87,92.758a1.483,1.483,0,1,0-1.483-1.483,1.483,1.483,0,0,0,1.483,1.483Zm0-1.873a.39.39,0,1,1-.39.39A.39.39,0,0,1,28.87,90.885Z" transform="translate(-20.382 -63.477)"/>
      <path id="Path_20312" data-name="Path 20312" class="cls-7" d="M45.357,86.883A1.483,1.483,0,1,0,43.874,85.4,1.483,1.483,0,0,0,45.357,86.883Zm0-1.873a.39.39,0,1,1-.39.39.39.39,0,0,1,.39-.39Z" transform="translate(-31.768 -59.42)"/>
      <path id="Path_20313" data-name="Path 20313" class="cls-7" d="M30.387,64.121a1.483,1.483,0,1,0,1.483-1.483A1.483,1.483,0,0,0,30.387,64.121Zm1.483-.39a.39.39,0,1,1-.39.39A.39.39,0,0,1,31.87,63.731Z" transform="translate(-22.454 -44.725)"/>
    </g>
  </g>
</svg>
