<svg id="Layer_1" data-name="Layer 1" xmlns="http://www.w3.org/2000/svg" viewBox="0 0 100 100"><path d="M70.56,84.19H51.75V71.28A40.65,40.65,0,0,0,73.59,2.49L72,.9,65.28,7.61a30.1,30.1,0,0,0-42.5,42.5l-8.27,8.27L16.11,60A40.46,40.46,0,0,0,44.84,71.86c.8,0,1.59,0,2.39-.08V84.19H28.41V95.48H20.13V100H80.35V95.48H70.56ZM27.16,12a25.59,25.59,0,1,1,0,36.19A25.51,25.51,0,0,1,27.16,12ZM21,58.32,26,53.25a30.11,30.11,0,0,0,42.4-42.4l3.52-3.52a36.13,36.13,0,0,1-51,51Zm12,37.16V88.71H66.05v6.77Z" fill="current"/></svg>