<svg id="geometry" xmlns="http://www.w3.org/2000/svg" width="100%" height="100%" viewBox="0 0 23.999 24">
  <g id="Group_4591" data-name="Group 4591" transform="translate(0.039 0.039)">
    <g id="Group_4590" data-name="Group 4590">
      <path id="Path_20223" data-name="Path 20223" d="M23.971,23.961V0L.011,23.961ZM22.407,22.4H21.5V20.851H19.93V22.4h-.787V21.321H17.579V22.4h-.787V21.321H15.227V22.4h-.787V20.851H12.876V22.4h-.787V21.321H10.524V22.4H9.737V21.321H8.172V22.4H7.386V20.851H5.821V22.4H3.789L22.407,3.778Z" transform="translate(-0.011)" fill="current"/>
    </g>
  </g>
  <g id="Group_4593" data-name="Group 4593" transform="translate(10.796 10.797)">
    <g id="Group_4592" data-name="Group 4592">
      <path id="Path_20224" data-name="Path 20224" d="M103.815,103.805V95.058l-8.747,8.747Zm-1.565-1.565h-3.4l3.4-3.4Z" transform="translate(-95.068 -95.058)" fill="currentf"/>
    </g>
  </g>
  <g id="Group_4595" data-name="Group 4595">
    <g id="Group_4594" data-name="Group 4594">
      <path id="Path_20225" data-name="Path 20225" d="M143.162,155.033a1.945,1.945,0,0,0,0,2.751h0l1.586,1.586a1.947,1.947,0,0,0,2.751,0l.249-.249.307.307,2.66-2.66-.307-.307,7.9-7.9,1.6-5.936-5.936,1.6-7.9,7.9-.307-.307-2.66,2.661.307.307Zm6.139.321-.508-.508,7.2-7.2.508.508Zm8.388-10.511-.485,1.8-1.316-1.316Zm-3.312,1.188.508.508-7.2,7.2-.272-.272-.236-.236Zm-8.614,8,2.738,2.738-.447.447-2.738-2.738Zm-1.5,2.11.249-.249,2.123,2.123-.249.249a.38.38,0,0,1-.537,0l-1.586-1.586h0a.38.38,0,0,1,0-.537Z" transform="translate(-142.592 -142.624)" fill="current"/>
    </g>
  </g>
</svg>
