<svg xmlns="http://www.w3.org/2000/svg" width="35.024" height="39.35" viewBox="0 0 35.024 39.35">
    <g id="greek" opacity="0.09" transform="translate(5 3)">
        <g id="Group_4596" data-name="Group 4596" transform="translate(-5 -3)">
            <path id="Path_20226" fill="#fff" d="M57.206 13.945l2.312-4 3.649-6.32-1-.577a22.685 22.685 0 0 0-33.252 25.51l.3 1.113 9.278-2.486 1.84-.493v9.144h1.153a6.017 6.017 0 0 0 3.657-1.226 6.128 6.128 0 0 0 1.64-1.883 10.86 10.86 0 0 0 2.98.73 7 7 0 0 0 6.906 5.892h4.985V22.686a10.816 10.816 0 0 0-4.448-8.741zM51.982 2.339A20.347 20.347 0 0 1 60 4.491l-2.5 4.332-.212-.1-.142-.066q-.2-.092-.409-.177l-.023-.01q-.217-.09-.436-.172l-.145-.053-.3-.107-.172-.057-.278-.09-.179-.054q-.14-.042-.281-.08l-.175-.048c-.1-.027-.2-.052-.305-.077l-.149-.032q-.22-.051-.442-.1h-.017c-.153-.031-.307-.058-.461-.084l-.152-.024c-.1-.017-.209-.033-.314-.047l-.179-.023q-.146-.018-.293-.034l-.185-.018-.268-.022V2.339zm-2.306 0v5a15.271 15.271 0 0 0-5.52 1.48l-2.5-4.332a20.234 20.234 0 0 1 8.02-2.148zM39.66 5.647l2.5 4.332a15.513 15.513 0 0 0-4.039 4.039l-4.332-2.5a20.543 20.543 0 0 1 5.871-5.871zm-8.785 21.192a20.38 20.38 0 0 1-.393-3h5q.012.164.028.328c0 .034.007.067.011.1q.018.178.041.356l.016.125c.02.148.041.3.066.443v.015q.028.169.06.337zm4.61-5.306h-5a20.233 20.233 0 0 1 2.152-8.021l4.332 2.5a15.271 15.271 0 0 0-1.484 5.521zM40 22.686a10.883 10.883 0 0 0 .129 1.672l-2.188.586c0-.028-.01-.055-.015-.083l-.015-.093c-.019-.118-.037-.236-.053-.355v-.023c-.016-.125-.03-.25-.043-.375 0-.032-.006-.063-.009-.095-.012-.122-.022-.244-.03-.367v-.013c-.008-.126-.014-.253-.019-.379v-.094c0-.127-.006-.254-.006-.382a13.1 13.1 0 0 1 13.078-13.08c.133 0 .265 0 .4.007l.127.005c.091 0 .182.008.272.013l.146.01.256.021.146.014c.09.009.181.02.271.031l.125.015c.131.018.261.037.391.058h.021q.184.031.367.067l.128.027.261.056.144.034.247.062.142.038c.088.024.175.049.262.075l.119.035q.188.058.375.121l.034.012q.17.058.338.121l.122.047c.083.032.166.065.249.1l.135.056.237.1.131.059.069.033-1.132 1.961A10.822 10.822 0 0 0 40 22.686zm19.343 2.066v12.292h-2.675a4.692 4.692 0 0 1-4.687-4.687V31.2h-1.152a8.525 8.525 0 0 1-4.079-1.039l-1.25-.678-.408 1.363a3.791 3.791 0 0 1-2.454 2.5v-8.308l-.039-.146a8.519 8.519 0 1 1 16.745-2.446H54.66v2.306z" data-name="Path 20226" transform="translate(-28.143)"/>
        </g>
    </g>
</svg>
