<svg xmlns="http://www.w3.org/2000/svg" id="greek" width="21.361" height="24" viewBox="0 0 21.361 24">
    <g id="Group_4596" data-name="Group 4596">
        <path id="Path_20226" fill="#fff" d="M45.869 8.506l1.41-2.442L49.5 2.209l-.6-.352a13.836 13.836 0 0 0-20.286 15.561l.182.679 5.659-1.516 1.122-.3v5.577h.7a3.67 3.67 0 0 0 2.231-.747 3.737 3.737 0 0 0 1-1.148 6.624 6.624 0 0 0 1.818.445A4.271 4.271 0 0 0 45.541 24h3.04V13.836a6.6 6.6 0 0 0-2.712-5.33zm-3.186-7.08a12.41 12.41 0 0 1 4.892 1.313l-1.526 2.642-.129-.06-.087-.04q-.124-.056-.249-.108l-.014-.006q-.132-.055-.266-.105l-.088-.032-.182-.065-.1-.035-.17-.055-.109-.033-.171-.049-.107-.029-.186-.047-.093-.023q-.134-.031-.27-.058h-.01c-.093-.019-.187-.036-.281-.051l-.093-.014-.192-.029-.109-.014-.184-.028-.113-.011-.163-.014V1.426zm-1.406 0v3.052a9.314 9.314 0 0 0-3.367.9l-1.526-2.639a12.341 12.341 0 0 1 4.892-1.312zm-6.109 2.018l1.526 2.642A9.462 9.462 0 0 0 34.23 8.55l-2.643-1.525a12.53 12.53 0 0 1 3.581-3.581zM29.81 16.369a12.43 12.43 0 0 1-.24-1.83h3.052l.017.2c0 .021 0 .041.007.062q.011.109.025.217c0 .025.006.051.01.076.012.09.025.18.04.27v.009l.036.206zm2.812-3.236H29.57a12.34 12.34 0 0 1 1.312-4.892l2.642 1.525a9.314 9.314 0 0 0-.903 3.367zm2.756.7a6.638 6.638 0 0 0 .079 1.02l-1.335.358c0-.017-.006-.034-.009-.051l-.009-.057c-.012-.072-.022-.144-.032-.216v-.014c-.01-.076-.019-.152-.026-.229l-.006-.058c-.007-.074-.013-.149-.018-.224v-.008c-.005-.077-.009-.154-.011-.231v-.057-.233a7.987 7.987 0 0 1 7.978-7.978h.321l.166.008.089.006.156.013.079.018.165.019.076.009c.08.011.159.022.238.035h.013q.112.019.224.041l.078.016.159.034.088.021.151.038.087.023.16.046.073.021q.115.035.229.074l.021.007.206.074.074.029.152.06.083.034.144.063.08.036.042.02-.69 1.2a6.6 6.6 0 0 0-9.275 6.036zm11.8 1.26v7.5h-1.637a2.862 2.862 0 0 1-2.858-2.858v-.7h-.7a5.2 5.2 0 0 1-2.488-.633l-.762-.416-.249.832a2.312 2.312 0 0 1-1.5 1.524v-5.071l-.024-.089a5.2 5.2 0 1 1 10.213-1.492h-2.857v1.41z" data-name="Path 20226" transform="translate(-28.143)"/>
    </g>
</svg>
