<svg id="Layer_1" data-name="Layer 1" xmlns="http://www.w3.org/2000/svg" viewBox="0 0 100 100"><path d="M70,.13V2A10,10,0,0,1,69.8.18v0Z"/><path d="M70,14.94V34.78h0l-.13-20Z"/><path d="M70,83.29v.19h0A1.21,1.21,0,0,0,70,83.29Z"/><path d="M63.8,0V.19L64,37.33V.13H69.8V0Z"/><path d="M98.93,36.54c-3.31-11.37-13-16.66-14-17.19C73.55,13,70.73,5.47,70,2A10,10,0,0,1,69.8.18v0H64V71.57A23.43,23.43,0,0,0,49.3,66.62c-11.43,0-20.72,7.47-20.72,16.67S37.87,100,49.3,100,69.9,92.58,70,83.48a1.21,1.21,0,0,0,0-.19V40.86c9.21,1.5,10.14,9.26,10.22,10.21l0,.19c0,.07,1,7.58,1.55,13.74l0,.29.09.29c1,3.39,2.89,4.36,4.31,4.58a5.6,5.6,0,0,0,.69,0c3.08,0,5.42-3.13,6.09-4.15l.08-.12C99.53,55.24,101.48,45.33,98.93,36.54ZM49.3,94c-8.12,0-14.73-4.79-14.73-10.68S41.18,72.61,49.3,72.61,64,77.4,64,83.29,57.43,94,49.3,94ZM88,62.78c-.1.14-.21.29-.33.43-.56-6-1.44-12.54-1.45-12.74A17.81,17.81,0,0,0,70,34.78h0l-.13-20,.14.17a41.32,41.32,0,0,0,12,9.68l.11.06c.08,0,8.41,4.37,11.06,13.6C95.22,45.38,93.48,53.63,88,62.78Z"/><rect x="0.45" y="23.36" width="54.48" height="6"/><rect x="0.45" y="3.09" width="54.48" height="6"/><rect x="0.45" y="43.61" width="30.11" height="6"/></svg>