<svg xmlns="http://www.w3.org/2000/svg" width="18.767" height="23.717" viewBox="0 0 18.767 23.717">
    <path id="notification" fill="#29396d" d="M71.813 18.874a3.685 3.685 0 0 1-1.12-1.525 17.644 17.644 0 0 1-1.167-6.972v-.027a6.729 6.729 0 0 0-3.961-6.1V2.642A2.643 2.643 0 0 0 62.927 0h-.219a2.643 2.643 0 0 0-2.638 2.642v1.605a6.729 6.729 0 0 0-3.962 6.13 17.644 17.644 0 0 1-1.167 6.972 3.685 3.685 0 0 1-1.12 1.525.675.675 0 0 0-.371.768.707.707 0 0 0 .7.543h5.09a3.577 3.577 0 0 0 7.154 0h5.093a.707.707 0 0 0 .7-.543.676.676 0 0 0-.374-.768zM61.46 2.642a1.25 1.25 0 0 1 1.248-1.25h.219a1.25 1.25 0 0 1 1.248 1.25V3.8a6.73 6.73 0 0 0-2.715 0V2.642zm1.357 19.683a2.193 2.193 0 0 1-2.187-2.14H65a2.193 2.193 0 0 1-2.183 2.14zm2.8-3.532h-9.886a7.283 7.283 0 0 0 .364-.639 17.592 17.592 0 0 0 1.4-7.777 5.319 5.319 0 1 1 10.638 0v.026a17.556 17.556 0 0 0 1.4 7.749 7.288 7.288 0 0 0 .364.639z" transform="translate(-53.434)"/>
</svg>
