<svg id="Layer_1" data-name="Layer 1" xmlns="http://www.w3.org/2000/svg" viewBox="0 0 100 100"><path d="M100,12.73V7.28H69.1v5.45h3.63V59.92c0,1-.24,7.13,3.5,11.17a11.16,11.16,0,0,0,8.56,3.45,11.45,11.45,0,0,0,8.62-3.42C97.33,67,97.29,60.73,97.27,60V12.73ZM89.46,67.36a6.16,6.16,0,0,1-4.67,1.73,5.87,5.87,0,0,1-4.54-1.69c-2-2.1-2.17-5.91-2.07-7.19V33.09a12.5,12.5,0,0,0,3,.36,12,12,0,0,0,6.73-2.08,5.14,5.14,0,0,1,3.95-1.09V60.1S92,64.79,89.46,67.36Zm2.36-42.57a10.76,10.76,0,0,0-7,2,7.11,7.11,0,0,1-6.68.59V12.73H91.82Z"/><path d="M74.89,75.61l-.07-.28-24.36-46V12.73h4.09V7.28H20.92v5.45H25V29.32L.79,75.09l-.14.24-.07.28c-.08.29-2,7.1,1.56,12.16,2.07,3,5.42,4.62,10,4.94H63.38c4.53-.32,7.88-2,9.95-4.94C76.87,82.71,75,75.9,74.89,75.61ZM30.46,30.68V12.73H45v18l8.75,16.53c-6,4.56-14.11,2.73-19.32-1.16a13.41,13.41,0,0,0-10.51-3Zm38.41,54c-1.07,1.53-3,2.41-5.78,2.63H12.38c-2.75-.21-4.69-1.09-5.76-2.61C5,82.38,5.41,78.82,5.76,77.35L20.47,49.56c2.19-1,6.88-2.41,10.49.69l.14.11a23.94,23.94,0,0,0,14.29,5,19.28,19.28,0,0,0,10.94-3.29L69.71,77.34C69.93,78.31,70.63,82.11,68.87,84.64Z"/><circle cx="18.19" cy="78.18" r="5.45"/><path d="M53.64,69.09A6.36,6.36,0,1,0,60,75.45,6.36,6.36,0,0,0,53.64,69.09Zm0,7.27a.91.91,0,1,1,.91-.91A.91.91,0,0,1,53.64,76.36Z"/><path d="M32.74,56.36a8.18,8.18,0,1,0,8.18,8.18A8.19,8.19,0,0,0,32.74,56.36Zm0,10.91a2.73,2.73,0,1,1,2.72-2.73A2.74,2.74,0,0,1,32.74,67.27Z"/></svg>