<svg xmlns="http://www.w3.org/2000/svg" width="52" height="62" viewBox="0 0 52 62">
    <defs>
        <style>
            .cls-1{fill:#a8b7d4}.cls-3{fill:#8394b2}.cls-6{fill:#4c76bd}.cls-7{fill:#ff505b}.cls-8{fill:#6c7b94}
        </style>
    </defs>
    <g id="_19-Note" data-name="19-Note" transform="translate(-6 -1)">
        <path id="Path_21510" d="M58 7v56H13v-4h41l4-54z" class="cls-1" data-name="Path 21510"/>
        <path id="Path_21511" fill="#c1cfe8" d="M51 59H10v-4h40l8-50-4 54h-3" data-name="Path 21511"/>
        <path id="Path_21512" d="M52 61h3l3-56-4 54H13v2h39z" class="cls-3" data-name="Path 21512"/>
        <path id="Path_21513" fill="#fbfbfb" d="M14 5L6 55h44l8-50z" data-name="Path 21513"/>
        <path id="Path_21514" d="M51 57l7-52-8 50H10v2h41z" class="cls-1" data-name="Path 21514"/>
        <path id="Path_21515" fill="#edf4fa" d="M19.682 24.858L22.841 5H14L6 55h44l1.12-7H39.433a20 20 0 0 1-19.751-23.142z" data-name="Path 21515"/>
        <path id="Path_21516" d="M34.984 30.82a1 1 0 0 0-1.164-.8l-.849.154L32 20.9a1 1 0 0 0-1.933-.242L26.1 31.421l-3.274.6A1 1 0 0 0 23 34a.914.914 0 0 0 .18-.017l2.114-.384-2.231 6.055a1 1 0 1 0 1.876.692l2.639-7.162 3.631-.66.8 7.58A1 1 0 1 0 34 39.9l-.814-7.731 1-.182a1 1 0 0 0 .8-1.163zm-6.6.186l2.075-5.632L31 30.53z" class="cls-6" data-name="Path 21516"/>
        <path id="Path_21517" d="M43.951 27.325a1 1 0 0 0-1.126-.856l-2.97.4-.4-2.969a1 1 0 0 0-1.982.27l.4 2.969-2.969.405a1 1 0 0 0 .134 1.991 1.047 1.047 0 0 0 .136-.009l2.97-.4.4 2.969a1 1 0 0 0 .99.865 1.047 1.047 0 0 0 .136-.009 1 1 0 0 0 .856-1.126l-.405-2.969 2.969-.405a1 1 0 0 0 .861-1.126z" class="cls-6" data-name="Path 21517"/>
        <path id="Path_21518" d="M48.771 35.024a1 1 0 0 0-1.2.755C45.944 42.975 39.951 48 33 48c-8.271 0-15-7.178-15-16s6.729-16 15-16a14.876 14.876 0 0 1 13.227 8.448 1 1 0 1 0 1.787-.9A16.863 16.863 0 0 0 33 14c-9.374 0-17 8.075-17 18s7.626 18 17 18c7.892 0 14.687-5.666 16.525-13.779a1 1 0 0 0-.754-1.197z" class="cls-7" data-name="Path 21518"/>
        <path id="Path_21519" d="M49 31a1 1 0 0 0-1 1c0 .319-.009.632-.027.944A1 1 0 0 0 48.916 34h.057a1 1 0 0 0 1-.944Q50 32.534 50 32a1 1 0 0 0-1-1z" class="cls-7" data-name="Path 21519"/>
        <path id="Path_21520" d="M53 7a.978.978 0 0 1-.306.713A.965.965 0 0 1 52 8a1 1 0 0 1-1-1V4a.978.978 0 0 1 .306-.713A.965.965 0 0 1 52 3a1 1 0 0 1 1 1v1h2V4a3 3 0 0 0-3-3 2.922 2.922 0 0 0-2.108.874A2.944 2.944 0 0 0 49 4v3a3 3 0 1 0 6 0 1 1 0 1 0-2 0z" class="cls-3" data-name="Path 21520"/>
        <path id="Path_21521" d="M45 7a.978.978 0 0 1-.306.713A.965.965 0 0 1 44 8a1 1 0 0 1-1-1V4a.978.978 0 0 1 .306-.713A.965.965 0 0 1 44 3a1 1 0 0 1 1 1v1h2V4a3 3 0 0 0-3-3 2.922 2.922 0 0 0-2.108.874A2.944 2.944 0 0 0 41 4v3a3 3 0 1 0 6 0 1 1 0 1 0-2 0z" class="cls-3" data-name="Path 21521"/>
        <path id="Path_21522" d="M37 7a.978.978 0 0 1-.306.713A.965.965 0 0 1 36 8a1 1 0 0 1-1-1V4a.978.978 0 0 1 .306-.713A.965.965 0 0 1 36 3a1 1 0 0 1 1 1v1h2V4a3 3 0 0 0-3-3 2.922 2.922 0 0 0-2.108.874A2.944 2.944 0 0 0 33 4v3a3 3 0 1 0 6 0 1 1 0 1 0-2 0z" class="cls-3" data-name="Path 21522"/>
        <path id="Path_21523" d="M29 7a.978.978 0 0 1-.306.713A.965.965 0 0 1 28 8a1 1 0 0 1-1-1V4a.978.978 0 0 1 .306-.713A.965.965 0 0 1 28 3a1 1 0 0 1 1 1v1h2V4a3 3 0 0 0-3-3 2.922 2.922 0 0 0-2.108.874A2.944 2.944 0 0 0 25 4v3a3 3 0 1 0 6 0 1 1 0 1 0-2 0z" class="cls-3" data-name="Path 21523"/>
        <path id="Path_21524" d="M21 7a.978.978 0 0 1-.306.713A.965.965 0 0 1 20 8a1 1 0 0 1-1-1V4a.978.978 0 0 1 .306-.713A.965.965 0 0 1 20 3a1 1 0 0 1 1 1v1h2V4a3 3 0 0 0-3-3 2.922 2.922 0 0 0-2.108.874A2.944 2.944 0 0 0 17 4v3a3 3 0 1 0 6 0 1 1 0 0 0-2 0z" class="cls-3" data-name="Path 21524"/>
        <path id="Path_21525" d="M54 6a1 1 0 0 0-1 1 .978.978 0 0 1-.306.713A.965.965 0 0 1 52 8a1 1 0 0 1-1-1V4a.978.978 0 0 1 .306-.713A.965.965 0 0 1 52 3a1 1 0 0 1 1 1v1h2V4h-1a2 2 0 0 0-4 0v3a2 2 0 0 0 4 0h1a1 1 0 0 0-1-1z" class="cls-8" data-name="Path 21525"/>
        <path id="Path_21526" d="M46 6a1 1 0 0 0-1 1 .978.978 0 0 1-.306.713A.965.965 0 0 1 44 8a1 1 0 0 1-1-1V4a.978.978 0 0 1 .306-.713A.965.965 0 0 1 44 3a1 1 0 0 1 1 1v1h2V4h-1a2 2 0 0 0-4 0v3a2 2 0 0 0 4 0h1a1 1 0 0 0-1-1z" class="cls-8" data-name="Path 21526"/>
        <path id="Path_21527" d="M38 6a1 1 0 0 0-1 1 .978.978 0 0 1-.306.713A.965.965 0 0 1 36 8a1 1 0 0 1-1-1V4a.978.978 0 0 1 .306-.713A.965.965 0 0 1 36 3a1 1 0 0 1 1 1v1h2V4h-1a2 2 0 0 0-4 0v3a2 2 0 0 0 4 0h1a1 1 0 0 0-1-1z" class="cls-8" data-name="Path 21527"/>
        <path id="Path_21528" d="M30 6a1 1 0 0 0-1 1 .978.978 0 0 1-.306.713A.965.965 0 0 1 28 8a1 1 0 0 1-1-1V4a.978.978 0 0 1 .306-.713A.965.965 0 0 1 28 3a1 1 0 0 1 1 1v1h2V4h-1a2 2 0 0 0-4 0v3a2 2 0 0 0 4 0h1a1 1 0 0 0-1-1z" class="cls-8" data-name="Path 21528"/>
        <path id="Path_21529" d="M22 6a1 1 0 0 0-1 1 .978.978 0 0 1-.306.713A.965.965 0 0 1 20 8a1 1 0 0 1-1-1V4a.978.978 0 0 1 .306-.713A.965.965 0 0 1 20 3a1 1 0 0 1 1 1v1h2V4h-1a2 2 0 0 0-4 0v3a2 2 0 0 0 4 0h1a1 1 0 0 0-1-1z" class="cls-8" data-name="Path 21529"/>
    </g>
</svg>
