<svg xmlns="http://www.w3.org/2000/svg" id="user-account-box" width="23.388" height="23.388" viewBox="0 0 23.388 23.388">
    <g id="account-box">
        <path id="Path_672" fill="current" d="M0 2.6v18.19a2.606 2.606 0 0 0 2.6 2.6h18.19a2.606 2.606 0 0 0 2.6-2.6V2.6a2.606 2.606 0 0 0-2.6-2.6H2.6A2.606 2.606 0 0 0 0 2.6zm15.592 5.2a3.828 3.828 0 0 1-3.9 3.9A3.828 3.828 0 0 1 7.8 7.8a3.828 3.828 0 0 1 3.9-3.9 3.828 3.828 0 0 1 3.892 3.9zM3.9 18.19c0-2.6 5.2-4.028 7.8-4.028s7.8 1.429 7.8 4.028v1.3H3.9z" data-name="Path 672"/>
    </g>
</svg>
