<svg xmlns="http://www.w3.org/2000/svg" id="round-account-button-with-user-inside" width="22.054" height="22.054" viewBox="0 0 22.054 22.054">
    <g id="account-circle">
        <path id="Path_561" fill="#ffbb4c" d="M11.027 0a11.027 11.027 0 1 0 11.027 11.027A11.059 11.059 0 0 0 11.027 0zm0 3.308a3.249 3.249 0 0 1 3.308 3.308 3.249 3.249 0 0 1-3.308 3.308 3.249 3.249 0 0 1-3.308-3.308 3.249 3.249 0 0 1 3.308-3.308zm0 15.658a8.045 8.045 0 0 1-6.616-3.529c0-2.205 4.411-3.418 6.616-3.418s6.616 1.213 6.616 3.418a8.045 8.045 0 0 1-6.616 3.529z" data-name="Path 561"/>
    </g>
</svg>
