<svg id="Layer_1" data-name="Layer 1" xmlns="http://www.w3.org/2000/svg" viewBox="0 0 100 100"><path d="M89.66,60a2.42,2.42,0,0,0-2.48-2c-1.13,0-5.67.18-9.68.52L65.05,30.92v-18a6.83,6.83,0,0,0,5.18-4.38,6.24,6.24,0,0,0-1.3-6.23A6.58,6.58,0,0,0,64.08.55h-5L54.6.52h-1c-2,0-6.68,0-14.37,0H39a8.84,8.84,0,0,0-3.84.89,6.64,6.64,0,0,0-3.39,5.2,6.09,6.09,0,0,0,1.68,4.81A6,6,0,0,0,37.05,13v17.9L24.21,58.43c-2.33-.18-5.2-.35-8.27-.44h-.16a2.41,2.41,0,0,0-2.38,2,35.38,35.38,0,0,0-.47,6.74,38.52,38.52,0,0,0,1.49,9.38C15.64,80.2,18.86,91,28.83,95.43a21.91,21.91,0,0,0,8.94,1.83,27,27,0,0,0,6.11-.72l-1.1-4.7a19.05,19.05,0,0,1-12-.82c-7.94-3.52-10.6-12.45-11.74-16.28a34.11,34.11,0,0,1-1.3-8.11,31.1,31.1,0,0,1,.14-3.74c5.29.22,9.58.65,10.87.84,4.08.6,9.38,3.5,14.92,8.16l3.11-3.69a60.58,60.58,0,0,0-5.89-4.41A22.33,22.33,0,0,1,43.6,52.9a32.28,32.28,0,0,1,7.93-8.75,30.48,30.48,0,0,1,5,5.17,20.86,20.86,0,0,1,4.19,7.81A18.15,18.15,0,0,1,61.19,64l.13,0a45.82,45.82,0,0,0-7.17,6l3.45,3.39c5.37-5.48,11-8.72,16.74-9.64,2.89-.47,7.93-.72,10.83-.84a31.1,31.1,0,0,1,.14,3.74A33.94,33.94,0,0,1,84,74.74C82.88,78.56,80.21,87.5,72.27,91a19.05,19.05,0,0,1-12,.82l-1.09,4.7a26.79,26.79,0,0,0,6.1.72,21.88,21.88,0,0,0,8.94-1.83C84.2,91,87.43,80.2,88.64,76.12a37.57,37.57,0,0,0,1.49-9.38A35.33,35.33,0,0,0,89.66,60ZM65.44,55.92a25.56,25.56,0,0,0-5-9.53,35.27,35.27,0,0,0-7.52-7.26,2.42,2.42,0,0,0-2.91.08h0l-.12.09C47.67,41,42.51,45,39.4,50.53a26.27,26.27,0,0,0-3.21,10.6A23.9,23.9,0,0,0,29.45,59l-.15,0L41.65,32.46a2.38,2.38,0,0,0,.23-1V13.22c.72,0,1.44-.06,2.16-.13l-.47-4.8a27.7,27.7,0,0,1-5.31,0c-1.12-.12-1.39-.23-1.45-.29a1.45,1.45,0,0,1-.25-1,1.75,1.75,0,0,1,.87-1.32A4.14,4.14,0,0,1,39,5.38h.21c7.7,0,12.41,0,14.38,0h1l4.51,0h5a2.13,2.13,0,0,1,1.39.31A1.51,1.51,0,0,1,65.65,7a2.36,2.36,0,0,1-2.42,1.25H50.57V13.1h9.65V31.44a2.46,2.46,0,0,0,.21,1L72.5,59.16a29.21,29.21,0,0,0-6.34,2.08A22.72,22.72,0,0,0,65.44,55.92Z"/><path d="M65.4,83.62c5-3.17,8.43-8.1,10.47-11,.24-.34.43-.63.56-.83l1.33-2-4-2.67-1.34,2-.5.74c-2,2.82-4.89,7.06-9.08,9.71a20.22,20.22,0,0,1-9.36,3V59.92H48.63V82.45a30.53,30.53,0,0,1-10.06-3c-6.14-3.08-11-11-11-11.11L26.3,66.25l-4.14,2.48L23.4,70.8c.22.38,5.6,9.24,13,12.94A35.25,35.25,0,0,0,48.63,87.3V99.5h4.83V87.35A25.41,25.41,0,0,0,65.4,83.62Z"/></svg>