<svg id="Layer_1" data-name="Layer 1" xmlns="http://www.w3.org/2000/svg" viewBox="0 0 100 100"><path d="M31.09,22.22l34.32-2a2.36,2.36,0,0,0,2.21-2.35V5.45H91.23V.75H8.77v4.7H62.92v10.2l-32.4,1.9a2.45,2.45,0,0,0-.54.1c-2,.59-5.49,2.12-7.16,5.68-2,4.34.1,8.68,1.66,11.85a27.32,27.32,0,0,0,7.37,9.19,27.3,27.3,0,0,0-5.42,8.41c-4.07,10.1-.37,19.44,1,23C33.78,91.68,49.65,98,54.36,99.5L55.82,95c-4.22-1.39-18.43-7-24-21-1.32-3.33-4.41-11.12-1-19.48A21.91,21.91,0,0,1,40.89,43.37c.1,0,10.08-5,19.18,0a18.77,18.77,0,0,1,5.43,4.53.1.1,0,0,0,0,0,14.28,14.28,0,0,1,2.62,4.36c2,5.35,0,10.47-.93,12.42l4.23,2c1.2-2.49,3.72-9.05,1.1-16.09a18.84,18.84,0,0,0-3.46-5.79,23.48,23.48,0,0,0-6.77-5.63c-11.26-6.18-23.08-.29-23.58,0a25.4,25.4,0,0,0-3.31,2,23.09,23.09,0,0,1-6.75-8.1c-1.32-2.71-2.69-5.5-1.61-7.8A6.63,6.63,0,0,1,31.09,22.22Z"/></svg>