<svg id="Layer_1" data-name="Layer 1" xmlns="http://www.w3.org/2000/svg" viewBox="0 0 100 100"><path d="M10.57,71.66a7.89,7.89,0,0,0,4,1.29h.12A8.47,8.47,0,0,0,20,70.37a17.91,17.91,0,0,0,1.64-1.61,2.51,2.51,0,0,0,.55.07,2.29,2.29,0,0,0,1.62-.67l7-7a2.27,2.27,0,0,0,.62-2.11l33.94-32a2.78,2.78,0,0,0,.5-.68L76.66,3.79A2.3,2.3,0,0,0,73.74.66L49.15,10.5a2.39,2.39,0,0,0-.72.46l-33.3,31.4a2.3,2.3,0,0,0-2.88.3l-6.95,7a2.27,2.27,0,0,0-.51,2.48C4.18,52.71,3.58,53.34,3,54,1.61,55.65.84,56.73.56,58c-.79,3.66,2.13,6.68,5.51,10.17A18.15,18.15,0,0,0,10.57,71.66ZM60.41,25.43l-32,30.16-3.27-3.28,32-29.9Zm2.64-3.82-8.82-8.19L70,7.11ZM50,15.78l3.76,3.49L21.9,49.06l-3.49-3.49ZM13.87,47.53l12.05,12-3.7,3.71-12-12ZM5.05,59a10.18,10.18,0,0,1,1.46-2c.45-.51.91-1,1.39-1.51L18.19,65.76A13.67,13.67,0,0,1,17,66.89c-1,.9-1.74,1.45-2.48,1.47a4.39,4.39,0,0,1-1.82-.74A13.4,13.4,0,0,1,9.37,65C7.11,62.68,4.78,60.27,5.05,59Z"/><path d="M99.1,8.55A2.29,2.29,0,0,0,96.61,9L5.16,95.54a2.27,2.27,0,0,0-.56,2.51A2.3,2.3,0,0,0,6.74,99.5H98.19a2.3,2.3,0,0,0,2.3-2.3V10.66A2.32,2.32,0,0,0,99.1,8.55ZM95.9,94.91H90.65v-7H86.06v7H80.82V89.83H76.23v5.08H70V89.34H65.41v5.57H60.17v-7H55.58v7H50.33V89.34H45.74v5.57H40.5V89.34H35.91v5.57H30.67V88.84h-4.6v6.07H12.5L95.9,16Z"/><path d="M51.36,79.28H82A2.3,2.3,0,0,0,84.26,77V47.6a2.29,2.29,0,0,0-3.88-1.66L49.77,75.33a2.29,2.29,0,0,0,1.59,4ZM79.67,53v21.7H57.07Z"/></svg>