<svg id="Layer_1" data-name="Layer 1" xmlns="http://www.w3.org/2000/svg" viewBox="0 0 100 100"><path d="M70.24,65.47c12.68-10,15.22-24.15,15.7-28.25C88.3,17,75.07,3.23,72.39.67A2.44,2.44,0,0,0,70.61,0,2.5,2.5,0,0,0,68.88.8L61.76,8.71a28.54,28.54,0,0,0-39,41.18l-8,8a2.46,2.46,0,0,0,0,3.42c3.66,3.84,13.86,12.82,29.45,13.06h.63l.79,0v8.44H29.31a2.45,2.45,0,0,0-2.45,2.45v9.38H20.44V99.5H78.59V94.61H69.2V85.23a2.45,2.45,0,0,0-2.44-2.45H50.48V74A42,42,0,0,0,70.24,65.47ZM64.31,94.61H31.75V87.67H64.31ZM44.58,7.84A23.68,23.68,0,1,1,20.91,31.51,23.7,23.7,0,0,1,44.58,7.84Zm-.33,61.62C32.36,69.28,23.87,63.11,20,59.58l6.23-6.23A28.54,28.54,0,0,0,65.4,12l5.36-6c4,4.49,12.08,15.56,10.33,30.63-.43,3.63-2.68,16.18-13.87,25A36.47,36.47,0,0,1,44.25,69.46Z"/></svg>