<svg id="Layer_1" data-name="Layer 1" xmlns="http://www.w3.org/2000/svg" viewBox="0 0 100 100"><path d="M98.05,6A7.88,7.88,0,0,0,92,3.5H7C4,3.5-.5,5.74-.5,11.91v0L.51,68c0,3.38,2,8.41,7.49,8.41H38.42L31.68,92.7H19.13v4.8H78.85V92.7H65.39L59.66,76.45H93a2.49,2.49,0,0,0,.47,0c2.42-.48,7-3.27,7-10.37V15C100.61,14,100.88,9.14,98.05,6ZM7,8.3H92a3,3,0,0,1,2.43.9c1.33,1.46,1.34,4.51,1.24,5.45a2.44,2.44,0,0,0,0,.27V48.6H5L4.34,11.89C4.35,8.85,6,8.33,7,8.3ZM60.26,92.7H36.92l6.74-16.25H54.52Zm32.43-21H8c-2.47,0-2.64-3-2.64-3.66L5.09,53.4H95.67V66C95.67,70.28,93.41,71.41,92.69,71.66Z"/><path d="M49,55.88a6.65,6.65,0,1,0,6.72,6.65A6.69,6.69,0,0,0,49,55.88Zm0,8.5a1.86,1.86,0,1,1,1.88-1.85A1.86,1.86,0,0,1,49,64.38Z"/></svg>