<svg id="Layer_1" data-name="Layer 1" xmlns="http://www.w3.org/2000/svg" viewBox="0 0 97.42 99.43"><path d="M96.16,38.13A24.84,24.84,0,0,0,94,31.34c-3-5.78-7.68-8.54-11.48-10.76-1-.59-2-1.14-2.82-1.72C74.2,15.19,70,9,67.18.38l-2.3.75H62.46V70.64a22,22,0,0,0-15.4-5.94c-11.16,0-20.24,7.56-20.24,16.86S35.9,98.43,47.06,98.43,67.3,90.86,67.3,81.56c0-.16,0-.32,0-.48h0V39.91c4.43,1.2,7.84,3.23,10.15,6.07,3.94,4.83,4,10.87,4.13,15.28.06,3.54.12,6.6,3,7.25a3.19,3.19,0,0,0,.75.08A4.86,4.86,0,0,0,88.61,67C92.47,63.34,98.3,50.54,96.16,38.13ZM47.06,93.59c-8.49,0-15.4-5.39-15.4-12s6.91-12,15.4-12,15.4,5.4,15.4,12S55.55,93.59,47.06,93.59ZM86.43,62.12c0-.32,0-.65,0-.95-.08-4.83-.22-12.12-5.21-18.24-3.19-3.92-7.87-6.61-13.9-8V12.41A32.58,32.58,0,0,0,77,22.89c1,.65,2,1.24,3.07,1.87,3.59,2.09,7.31,4.26,9.61,8.77A19.42,19.42,0,0,1,91.39,39C93.06,48.58,89.05,58.24,86.43,62.12Z"/><rect x="0.82" y="4.97" width="51.54" height="4.84"/><rect x="0.82" y="24.24" width="51.54" height="4.84"/><rect x="0.82" y="44.47" width="28.9" height="4.84"/></svg>