<svg id="Layer_1" data-name="Layer 1" xmlns="http://www.w3.org/2000/svg" viewBox="0 0 100 100"><path d="M98.39,71.07c-.32-.18-.82-.11-1.52.22s-1.51.74-2.46,1.19a14.75,14.75,0,0,1-3,1.09,6,6,0,0,1-3.24,0,4.64,4.64,0,0,1-3-2.18,14.91,14.91,0,0,1-1.65-4.21,36.08,36.08,0,0,1-.82-5.37c-.15-2-.3-3.89-.46-5.8a53.26,53.26,0,0,0-.68-5.48,15.13,15.13,0,0,0-1.36-4.33A10.9,10.9,0,0,0,77,42.34a7.07,7.07,0,0,0-3.7-1.42,8.39,8.39,0,0,0-3.78.59,11.36,11.36,0,0,0-3.43,2.11,22.78,22.78,0,0,0-3.18,3.5q-1.56,2.06-2.74,4c-.91,1.52-1.77,3.08-2.56,4.66.07-3.11,0-5.88-.09-8.31,0-1-.12-2-.19-3.06a20,20,0,0,0-.76-4.6c-.16-.48-.36-.73-.59-.73a6.88,6.88,0,0,0-1.87.32,12.93,12.93,0,0,0-2.3.91,17.26,17.26,0,0,0-2.18,1.37A6,6,0,0,0,48,43.34a10.49,10.49,0,0,0-.63,3c-.18,1.58-.33,3.46-.42,5.62s-.14,4.44-.17,6.83,0,4.67,0,6.76.17,3.89.31,5.38a5.94,5.94,0,0,0,.6,2.6,5.18,5.18,0,0,0,2.24.91,14.28,14.28,0,0,0,3.28.37,12.66,12.66,0,0,0,3.15-.37,2.64,2.64,0,0,0,1.92-1.37,9.38,9.38,0,0,0,.45-2.82c.06-1.27.19-2.74.41-4.38a31.36,31.36,0,0,1,1.23-5.29,22.24,22.24,0,0,1,2.84-5.66,21.56,21.56,0,0,1,3-3.78,3.58,3.58,0,0,1,2.5-1.24c.73.07,1.32.67,1.78,1.83A17.91,17.91,0,0,1,71.47,57q.47,10,3.47,16.12a12.14,12.14,0,0,0,9.85,7.06,11,11,0,0,0,6.15-.78,15.94,15.94,0,0,0,4.48-3A12,12,0,0,0,98,73.07C98.49,72,98.62,71.31,98.39,71.07Z"/><polygon points="41.09 20.91 41.1 16.07 1 15.91 1 75.52 41.09 75.52 41.09 70.68 5.84 70.68 5.84 49.15 38.37 49.15 38.37 44.31 5.84 44.31 5.84 20.77 41.09 20.91"/></svg>