<svg id="Layer_1" data-name="Layer 1" xmlns="http://www.w3.org/2000/svg" viewBox="0 0 100 100"><path d="M.18,38.67V68a2.37,2.37,0,0,0,2.37,2.37H17.22V65.65H4.92V55.72h6.92V51H4.92V41.05h12.3V36.3H2.55A2.37,2.37,0,0,0,.18,38.67Z"/><rect x="18.69" y="46.57" width="13.7" height="4.74"/><rect x="19.18" y="56.36" width="13.7" height="4.74"/><path d="M59.43,37.85a2.38,2.38,0,0,0-2.67,1.09L49,52.09,41.28,38.94a2.37,2.37,0,0,0-4.42,1.2V70.47h4.75V48.85L47,58A2.38,2.38,0,0,0,49,59.14a2.35,2.35,0,0,0,2-1.17l5.37-9.12V70.47h4.75V40.14A2.38,2.38,0,0,0,59.43,37.85Z"/><path d="M84.59,50.48a10.67,10.67,0,0,0-3.9-11.32,9.56,9.56,0,0,0-9.36-.79C64.62,41.69,65.62,52.48,66.22,59c.32,3.38,1,6.86,3.7,9.35A8.9,8.9,0,0,0,76,70.9l.58,0a8.46,8.46,0,0,0,5.48-2.72c2.45-2.68,2.54-6.43,2.58-8.24v-.16l-4.74-.11v.17c0,1.41-.09,3.77-1.33,5.13a3.86,3.86,0,0,1-2.35,1.2,4.34,4.34,0,0,1-3.1-1.34c-1-1-1.82-2.4-2.18-6.33-.43-4.54-1.3-14,2.48-15.86a4.82,4.82,0,0,1,4.57.45,5.92,5.92,0,0,1,2,6.3Z"/><path d="M96,41.43c3.2-4.94,4-7.43,3.2-9.86a7.05,7.05,0,0,0-4.46-4.45,7.37,7.37,0,0,0-5.52.6c-4.59,2.18-5.36,8-5.39,8.21l4.71.6c.13-1,.87-3.65,2.76-4.55a2.85,2.85,0,0,1,2-.34,2.33,2.33,0,0,1,1.4,1.42c.3.91-1.28,3.65-2.67,5.79a69.19,69.19,0,0,1-5.68,7.57,2.38,2.38,0,0,0,1.8,3.92H97V45.59H93.11Q94.64,43.55,96,41.43Z"/></svg>