<svg id="Layer_1" data-name="Layer 1" xmlns="http://www.w3.org/2000/svg" viewBox="0 0 100 100"><path d="M80.77,27.5a13.48,13.48,0,0,0,12.17-7,13.21,13.21,0,0,0,0-12.5A14.82,14.82,0,0,0,80.63.63c-15.4-.1-28.48-.06-39,0-5.49,0-10.24,0-14.11,0h-.05C24.55.62,17.7.6,12.6,5.37,9.19,8.55,7.48,12.5,7.77,16.48c.32,4.29,3.23,9.66,8.87,11.31a12.28,12.28,0,0,0,3.38.45,12.87,12.87,0,0,0,3.06-.36,16.51,16.51,0,0,0,1.16,8,5.67,5.67,0,0,0,4,3.6V95.57h-15v4.8H90.82v-4.8h-16V39.63h.24a2.39,2.39,0,0,0,.94-.19c3.77-1.57,4.81-7.91,4.32-11.71a2,2,0,0,0,0-.24h.47ZM18,23.19a8,8,0,0,1-5.43-7.07c-.24-3.2,1.67-5.71,3.33-7.26,3.7-3.45,9-3.44,11.57-3.43h.06l14.14,0c10.5,0,23.57-.07,38.94,0a10.05,10.05,0,0,1,8.12,4.89,8.45,8.45,0,0,1,0,7.91,8.71,8.71,0,0,1-7.81,4.47h-.11A6.13,6.13,0,0,1,77,21.58c-2.27-1.83-3.08-6.31-3.19-8.42V13l-3.07.29L69,13.41a22.61,22.61,0,0,0,1.8,7.64H31a12.64,12.64,0,0,0-.22-9.8l-4.39,1.94a7.47,7.47,0,0,1-1.49,8.5C22.06,24.31,18.15,23.23,18,23.19ZM70,95.57H33v-56c11.61-.13,28.67,0,37.06,0Zm4.34-60.75c-4.77,0-31.33-.23-45.15,0,0,0-.28-.13-.61-.88a11.82,11.82,0,0,1-.77-5.61,5.39,5.39,0,0,1,.81-2.49h46a4.88,4.88,0,0,1,.9,2.5A10.45,10.45,0,0,1,74.38,34.82Z"/><rect x="42.48" y="44.89" width="4.8" height="44.92"/><rect x="57.79" y="44.89" width="4.8" height="44.92"/></svg>