<svg id="Layer_1" data-name="Layer 1" xmlns="http://www.w3.org/2000/svg" viewBox="0 0 100 100"><path d="M88.08,71.85a.85.85,0,0,0,0-.17L80.6,49.85a23,23,0,0,0,5.9-6.48,15.71,15.71,0,0,0,1.61-8C87.6,29,82,23.16,74.06,20.61l-.23-.82C76.3,14.37,75.86,11,75.06,9s-2.61-3.12-6.27-5.67C66.9,2,64.92.8,62.92-.32a1.47,1.47,0,0,0-2,.56l-2.87,5c-3.23,5.62-3.65,6.42-3.79,7.77a7.29,7.29,0,0,0,.56,3.45,44.11,44.11,0,0,0-30.25,8.84C20.07,28.83,9.44,38.71,8.25,54.78c-1.43,19.47,12.16,32,14.9,34.31a40.94,40.94,0,0,0,24.23,9.69c.6,0,1.41.06,2.42.06a35.3,35.3,0,0,0,14.63-3.07,47.5,47.5,0,0,0,14.31-9.86c.3.79.59,1.47.85,2,1,2.08,1.85,3.89,2.5,5.34,1.81,4,2.81,6.26,5.28,6.26,4.34,0,4.34-4.55,4.34-6.5C91.71,89.3,88.23,72.56,88.08,71.85Zm-15-6.11a37.45,37.45,0,0,1-5.57-3.81c-1.89-1.56-2.49-2.26-2.66-3.1a3.76,3.76,0,0,1,.16-1.94c.72-2.3,3.32-3.7,5-4.39C70.91,56.38,72,61.05,73.12,65.74Zm-6-24.51L66.05,37l10.43-2.7,1.1,4.25Zm4.1-19.76,2.89,10.39-7.3,1.89L64,23.54ZM85.19,35.6A12.74,12.74,0,0,1,83.93,42a18.88,18.88,0,0,1-4.33,4.93l-1.84-5.38,2-.51a1.45,1.45,0,0,0,1-1.78L79,32.13a1.45,1.45,0,0,0-1.78-1.05l-.19.05-2-7C80.83,26.5,84.81,30.91,85.19,35.6Zm-28-22.27c.07-.71.48-1.51,3.41-6.6C61.44,5.25,62.18,4,62.75,3Q65,4.28,67.12,5.76c3.09,2.16,4.8,3.34,5.24,4.4s.93,3.65-1.13,8.27l-8.74,2.5C57.42,17.14,57.09,14.37,57.19,13.33Zm6,79.78a33.54,33.54,0,0,1-15.71,2.74,38,38,0,0,1-22.47-9C22.49,84.7,9.85,73.05,11.17,55c1.1-14.9,11-24.09,15.21-27.35a41.23,41.23,0,0,1,29.54-8.11l.88.11a23.82,23.82,0,0,0,4.13,3.77L64,34.48l-.1,0a1.46,1.46,0,0,0-1,1.78l1.83,7.09a1.48,1.48,0,0,0,1.42,1.1,1.49,1.49,0,0,0,.36,0L68.18,44c.24,1.13.66,3.1,1.22,5.6-2.24.84-6,2.75-7.15,6.42A6.7,6.7,0,0,0,62,59.43c.37,1.78,1.48,3,3.67,4.76A36.65,36.65,0,0,0,74,69.47c1.24,5,2.51,9.7,3.64,13.29A44.28,44.28,0,0,1,63.22,93.11Zm24.15,3.46c-.58,0-1.56-2.2-2.61-4.53-.66-1.47-1.48-3.31-2.55-5.45C79,80.26,72.24,48.94,71,43.25l3.9-1L85.24,72.54c1,4.83,3.54,17.65,3.54,20.46C88.78,96.57,88.1,96.57,87.37,96.57Z"/><path d="M33.44,47.73a7.22,7.22,0,1,0-7.22-7.22A7.23,7.23,0,0,0,33.44,47.73Zm0-11.51a4.29,4.29,0,1,1-4.29,4.29A4.3,4.3,0,0,1,33.44,36.22Z"/><path d="M34.91,59.93a8.66,8.66,0,1,0-8.66,8.65A8.67,8.67,0,0,0,34.91,59.93Zm-8.66,5.72A5.73,5.73,0,1,1,32,59.93,5.73,5.73,0,0,1,26.25,65.65Z"/><path d="M36.32,70.68a7.22,7.22,0,1,0,7.22,7.22A7.23,7.23,0,0,0,36.32,70.68Zm0,11.51a4.29,4.29,0,1,1,4.29-4.29A4.29,4.29,0,0,1,36.32,82.19Z"/><path d="M54.29,76.44a7.22,7.22,0,1,0,7.22,7.21A7.21,7.21,0,0,0,54.29,76.44Zm0,11.5a4.29,4.29,0,1,1,4.29-4.29A4.29,4.29,0,0,1,54.29,87.94Z"/><path d="M57.92,32.6a7.22,7.22,0,1,0-7.22,7.22A7.23,7.23,0,0,0,57.92,32.6Zm-11.51,0a4.29,4.29,0,1,1,4.29,4.29A4.3,4.3,0,0,1,46.41,32.6Z"/></svg>