<svg id="Layer_1" data-name="Layer 1" xmlns="http://www.w3.org/2000/svg" viewBox="0 0 100 100"><path d="M42.27,26.75a6.31,6.31,0,0,0,1.66.22c4.33,0,8.69-4.37,10.4-10.77h0C56.26,9,54,2.31,49.15,1c-2.51-.68-5.28.24-7.6,2.51a17.7,17.7,0,0,0-4.45,8C35.17,18.76,37.44,25.44,42.27,26.75ZM42,12.87A12.71,12.71,0,0,1,45.1,7.18a3.79,3.79,0,0,1,2.38-1.27,1.34,1.34,0,0,1,.35,0c1.51.41,2.87,4.09,1.58,8.92h0c-1.29,4.84-4.31,7.34-5.82,6.93S40.72,17.71,42,12.87Z"/><path d="M47.38,31.92l1,12.84,5.08-.39-.88-11.44a74.69,74.69,0,0,1,26.33-12.3l5,3.34,2.83-4.26-5.9-4a2.5,2.5,0,0,0-2-.36A79.3,79.3,0,0,0,48.38,29.68,2.55,2.55,0,0,0,47.38,31.92Z"/><path d="M39.66,37.8l2.83-4.26A79.47,79.47,0,0,1,26.31,19.18a78.55,78.55,0,0,1-7.24-9.93V.1H14V10a2.59,2.59,0,0,0,.37,1.33,84.58,84.58,0,0,0,8.11,11.21A84.43,84.43,0,0,0,39.66,37.8Z"/><path d="M75.35,39.4C77.54,37,79.8,33.67,78.12,31c-1.38-2.19-4.07-2.08-6-1.81A59.18,59.18,0,0,0,59.77,32.3l1.89,4.76a54.4,54.4,0,0,1,11.21-2.81h.07a13.75,13.75,0,0,1-1.24,1.58A101.27,101.27,0,0,1,54.55,48.27a81.79,81.79,0,0,1-28,8.51l.34-.32,16.6-11.78L40.59,40.5,23.89,52.35l-.19.15c-1.84,1.59-4.71,4.66-3.29,7.44.89,1.76,2.81,2.12,4.4,2.12a13.85,13.85,0,0,0,1.81-.13,85.27,85.27,0,0,0,30.45-9.21A106.49,106.49,0,0,0,75.19,39.56Z"/><path d="M47.76,65c-1.74,2.79-3.62,5.57-5.45,8.26-1.44,2.12-2.93,4.32-4.36,6.54a8.34,8.34,0,0,1-3,3.08,8.19,8.19,0,0,1-5.27.71L28.9,88.6a15.71,15.71,0,0,0,2.44.19,12.51,12.51,0,0,0,6-1.46,13.12,13.12,0,0,0,4.86-4.81c1.39-2.16,2.86-4.32,4.28-6.42,1.86-2.73,3.78-5.56,5.57-8.44A113.81,113.81,0,0,1,58.8,58l-4-3.15A120.21,120.21,0,0,0,47.76,65Z"/><path d="M87.55,66.15a2.52,2.52,0,0,0-1.44-1.28L63.52,57l-1.67,4.84,21.61,7.56,2.48,5,4.56-2.29Z"/><rect x="19.47" y="94.38" width="52.06" height="5.12"/></svg>