<svg id="Layer_1" data-name="Layer 1" xmlns="http://www.w3.org/2000/svg" viewBox="0 0 100 100"><path d="M88,34.87a5.46,5.46,0,0,0-5.43-5.49H65.2c-3.21,0-6.45,1.88-6.45,5.49a5.37,5.37,0,0,0,4.32,5.2V88.44a10.75,10.75,0,0,0,9.92,11l.57,0a10.52,10.52,0,0,0,7.26-3,10.91,10.91,0,0,0,3.32-8.07V40.11A5.47,5.47,0,0,0,88,34.87ZM65.2,34.1H82.56a.77.77,0,0,1,0,1.53H65.21s-1.74-.09-1.74-.76S65.2,34.1,65.2,34.1ZM79.42,71.23a3.61,3.61,0,0,1-2.35,1.42c-.35,0-.66-.21-1.45-.75-.37-.26-.78-.54-1.28-.84a16,16,0,0,0-6.54-2.12V40.35H79.42ZM77.53,93.11a5.77,5.77,0,0,1-4.27,1.66,6,6,0,0,1-5.46-6.23V73.71a11.17,11.17,0,0,1,4.12,1.41c.36.21.69.44,1,.67a7.06,7.06,0,0,0,3.94,1.58h.24a6.4,6.4,0,0,0,2.3-.45v11.6A6.11,6.11,0,0,1,77.53,93.11Z"/><path d="M43.76,57.36V40.11a5.49,5.49,0,0,0-1.58-10.73H24.81c-3.2,0-6.45,1.88-6.45,5.49a5.38,5.38,0,0,0,4.33,5.2V58.36l-7.61,29.5c-.17.58-1.14,4.49.79,7.53a6.91,6.91,0,0,0,5,3.1,65.5,65.5,0,0,0,9.27.46c7,0,14.78-.4,15.28-.43a1.15,1.15,0,0,0,.26,0,9.46,9.46,0,0,0,3.77-1.62,7.65,7.65,0,0,0,3-7.83C51.45,83.49,44.7,60.53,43.76,57.36Zm-16.35,1.3V40.35H39V57.7a2.47,2.47,0,0,0,.1.67c0,.12,1.57,5.31,3.34,11.52-1.42,1.94-3.23,3.67-4,3.72-1.27,0-2.35-.61-4.3-1.77-1-.55-2-1.19-3.3-1.83a9.63,9.63,0,0,0-6.17-.68l2.6-10.08A2.32,2.32,0,0,0,27.41,58.66ZM24.81,34.1H42.18a.77.77,0,0,1,0,1.53H24.81s-1.72-.09-1.72-.76S24.81,34.1,24.81,34.1ZM45,93.81c-1.8.09-18.2.89-23.37,0a2.26,2.26,0,0,1-1.73-1c-.72-1.13-.4-3.15-.23-3.76l0-.06,3.7-14.34c1.21-.56,3.61-1.4,5.45-.48,1.13.56,2.08,1.13,3,1.67,2.19,1.3,4.08,2.42,6.71,2.42,2,0,4-1.39,5.52-3,1.7,6.12,3.3,12.09,3.69,14.45A3.23,3.23,0,0,1,45,93.81Z"/><path d="M23,24.46a6.14,6.14,0,0,0,2.5.53,6.24,6.24,0,0,0,5.71-3.72h0A6.23,6.23,0,1,0,23,24.46Zm1.13-6.31a1.51,1.51,0,0,1,1.38-.9,1.46,1.46,0,0,1,.61.13,1.52,1.52,0,0,1,.77,2h0a1.52,1.52,0,0,1-2,.77,1.53,1.53,0,0,1-.77-2Z"/><path d="M35.52,12.92a6.14,6.14,0,0,0,2.5.53,6.23,6.23,0,1,0-2.5-.53Zm1.13-6.31A1.51,1.51,0,0,1,38,5.71a1.63,1.63,0,0,1,.61.13,1.51,1.51,0,1,1-2,.77Z"/><path d="M74.94,28.31a6.32,6.32,0,0,0,2.51.53,6.23,6.23,0,1,0-2.25-12,6.23,6.23,0,0,0-.26,11.51ZM76.08,22a1.51,1.51,0,0,1,.83-.8,1.49,1.49,0,0,1,.55-.1,1.41,1.41,0,0,1,.6.13,1.51,1.51,0,0,1,.8.83,1.48,1.48,0,0,1,0,1.15A1.51,1.51,0,0,1,78,24a1.44,1.44,0,0,1-1.15,0,1.48,1.48,0,0,1-.8-.83A1.44,1.44,0,0,1,76.08,22Z"/></svg>