<svg xmlns="http://www.w3.org/2000/svg" xmlns:xlink="http://www.w3.org/1999/xlink" width="767.696" height="85" viewBox="0 0 767.696 85">
  <defs>
    <clipPath id="clip-path">
      <rect width="767.696" height="85" fill="none"/>
    </clipPath>
  </defs>
  <g id="Horizontal_SVG" data-name="Horizontal SVG" clip-path="url(#clip-path)">
    <g id="Horizontal_SVG-2" data-name="Horizontal SVG" transform="translate(6620.681 5109)">
      <path id="Intersection_65" data-name="Intersection 65" d="M7592.166,6396.8c-3.785-4.9-10.326-5.843-15.678-2.723a.866.866,0,0,1-.967-.044.7.7,0,0,1-.554-.519c-1.477-4.738-8.58-8.1-12.178-3.382.092,2.238-.056,4.451-.1,6.668h-2.98q.188-.86.385-1.719c.365-1.6-.106-3.6.6-5.1-5.027-9.174-16.572,2.421-21.2,6.471a.661.661,0,0,1-.352.286.734.734,0,0,1-.126.062h-.471a.86.86,0,0,1-.387-.308.823.823,0,0,1-.209-.658c.677-6.93-3.588-13.58-10.761-14-1.008-.06-.81-1.49.046-1.664q6.643-7.02.008-9.064c-.48-.221-.969-.44-1.454-.658a.847.847,0,0,1,.041-1.544c5.238-2.544,1.338-8.609.369-12.249a.842.842,0,0,1,1.456-.8c1.29,1.615,6.324,8.313,9.022,2.927a5.971,5.971,0,0,1,1.607-2.417.842.842,0,0,1,1.479.438c.177,1.167.308,2.346.4,3.521q6.063,3.885,6.863-.665a.839.839,0,0,1,1.289-.31c1.475,1.312.873.714,1.66,2.625q7.156-.957,5.707-5.357c-.09-.446-.181-.886-.271-1.329-.981-4.417-2.15-9.657-6.829-11.479a.84.84,0,0,1,.479-1.588c6.9,1.575,11.5-5.684,10.455-11.626a34.421,34.421,0,0,1-.621-4.308.768.768,0,0,1,.577-.865.872.872,0,0,1,1.454.2c1.027,2.315,7.311-1.054,8.022-1.625,2.579-2.065,4.815-4.549,5.448-7.89a28.829,28.829,0,0,0,.471-4.309h3.377c2.044,5.485,5.545,10.616,11.222,11.137a.841.841,0,0,1,.167,1.6c-5.6,2.288-8.559,10.7-3,14.771.886.65,4.792,3.142,5.99,3.017a.841.841,0,0,1,.306,1.642c-2.8,3.26-10.53,9.29-10.668,13.866-.227,7.361,7.714,8.227,11.8,4.673,2.821-2.452,3.969-5.048,5.032-8.566a.844.844,0,0,1,1.663.046c2.1,10.949,12.976,4.68,19.425,2.759.723-.215,1.6.652.956,1.308a12.317,12.317,0,0,1-2.413,2.056q-1.537,8.486,4.373,9.659a.842.842,0,0,1-.255,1.6c-3.521-.05-12.745,6.034-7.973,11.243.59.638-.3,1.6-1.015,1.259-9.042-4.267-19.712,3.437-19.839,12.809a.923.923,0,0,1-.01.123Zm.373-2.144c1.431-8.928,10.661-15.691,19.637-13.195-1.685-4.465,2.619-9.559,7.343-11.21-2.29-.988-4.578-2.513-4.755-5.023-.206-2.932.623-4.194,2.021-5.486-3.705,1.459-7.151,2.878-11.589,1.917-3.334-.727-4.663-2.238-5.467-4.8-2.948,6.355-9.5,12.478-16.831,8.04-2.632-1.6-2.844-6.78-1.884-9.246,1.805-4.663,6.324-8.085,9.76-11.787-4.242-.935-8.1-5.865-9.46-9.428-1.527-3.982,2.077-8.107,5.54-10.316-5.1-1.586-8.326-6.642-10.269-11.983-.183,4.194-1.229,8.234-4.392,11.237-1.75,1.664-8.182,6.126-11.434,4.417.623,4.956,1.2,8.736-2.415,12.979a9.928,9.928,0,0,1-6.678,3.292c5.465,5.869,9.957,22.554.416,21.344-1.937-.246-3.052-.876-3.671-2.821-.61-1.921-.583.225-1.285.871a6.748,6.748,0,0,1-2.534,1.779c-4.346,2.229-5.686-2.873-6.23-6.334-1.317,1.821-1.817,3.113-4.894,3.667-1.3.234-2.777-.8-4.084-2.09,1.729,3.929,3.113,6.415-1.384,9.144,2.684,1.29,5.957,3.271,5.674,6.451a5.538,5.538,0,0,1-3.015,4.675c5.667,1.744,8.936,7.136,9.024,13.314,4.482-3.92,12.712-10.972,18.275-9.278-.65-.806-1.127-1.721-1.829-2.565a44.251,44.251,0,0,0-4.684-4.7l-.2-.179a.827.827,0,0,1-.485.244c-1.685.258-3.2,1.119-4.869,1.381a14.231,14.231,0,0,1-2.727.077c-.633-.021-1.27-.044-1.908-.008-1.075.056-1.254-1.609-.175-1.666.621-.036,1.24-.015,1.855,0a10.2,10.2,0,0,0,3.73-.344,29.835,29.835,0,0,1,2.973-.925,20.37,20.37,0,0,0-3.471-1.886c-1.435-.623-4.359-2.386-5.878-2.267a.838.838,0,0,1-.175-1.666c1.959-.156,2.984.791,4.73,1.541a28.308,28.308,0,0,1,5.884,2.934c.623.465,1.242.958,1.848,1.471a10.219,10.219,0,0,1-.706-1.417,13.508,13.508,0,0,1-.594-3.509.837.837,0,0,1,1.663-.177,10.7,10.7,0,0,0,1.23,4.5,8.848,8.848,0,0,1,1.119,2.885.859.859,0,0,1,.006.263c.217.225.429.452.639.679,1.105,1.211,1.971,2.842,3.1,4.1.794-3.021,2.378-5.557,3.75-8.5,2.465-5.272,3.4-10.286,4.35-15.854a.978.978,0,0,1-.052-.109,66.545,66.545,0,0,1-4.092-17.306.838.838,0,0,1,1.665-.175,67.233,67.233,0,0,0,3.032,14.262c.7-4.271,1.3-8.478,1.641-12.828.3-3.778.187-7.8,1.152-11.472.267-1.034,1.923-.773,1.651.273-1.065,4.06-1.063,9.155-1.29,13.382-.285,5.25-1.644,10.284-2.188,15.493-.1.917-.213,1.833-.359,2.744a60.4,60.4,0,0,0,3.269-5.269c1.376-2.38,2.327-5.013,3.721-7.351.542-.915,2.079-.238,1.525.688-1.548,2.59-2.66,5.5-4.173,8.147a36.828,36.828,0,0,1-4.905,7.121.84.84,0,0,1-.123.111,36.459,36.459,0,0,1-2.377,6.871c-1.425,3.05-3.261,5.951-4.278,9.142a54.885,54.885,0,0,1,8.161-6.873q.943-.672,1.907-1.283a1.611,1.611,0,0,1,1.459-.869c.554-.31,1.115-.6,1.683-.873a.848.848,0,0,1-.3-.727c.162-2.275,2.206-3.873,3.3-5.711.546-.919,2.079-.242,1.526.687-.959,1.619-2.932,3.211-3.163,5.15a21.236,21.236,0,0,1,7.38-1.612c1.813-.062,3.605,0,5.38.06,4.634.156,9.163.313,13.672-1.665,1-.438,1.6,1.125.611,1.56-4.257,1.865-8.776,1.706-13.268,1.542-4.646-.167-9.267-.338-13.549,1.725q-.338.161-.671.331l.159.056a52.371,52.371,0,0,0,8.071,2.55c3.315.6,6.732.271,10.1.544,1.073.086.794,1.738-.275,1.65-4.569-.369-8.668.021-13.136-1.362-.35-.111-5.846-1.848-7.2-2.175-.111.067-.223.135-.334.2a.942.942,0,0,1-1.015.644,42.377,42.377,0,0,0-6.884,5.655c-.727.74-3.479,2.971-4.024,4.333a8.51,8.51,0,0,1,1.3,2c-.36-.741,6.915-2.488,8.462-2.235,3.44.569,5.011,3.077,6.025,6.048a15.173,15.173,0,0,1,5.276-1.581,14.4,14.4,0,0,1,1.469-.077A12.915,12.915,0,0,1,7592.539,6394.661Zm-554.464,2.144a55.625,55.625,0,0,1,2.527-7.222c2.44-5.3,5.753-10.07,8.551-15.178,2.367-4.317,4.665-8.238,7.341-12.347,2.506-3.852,4.058-8.505,6.921-12.118a7.508,7.508,0,0,1-1.238-.864l-.044.069c-3.367,4.846-5.163,10.322-7.953,15.449-2.888,5.3-6.859,9.868-9.742,15.2-1.327,2.458-3.378,4.854-4.444,7.371-1.13,2.661-1.746,5.471-2.772,8.153-.19.5-.378.992-.567,1.488h-1.868c.934-2.757,1.67-5.6,2.817-8.3,2-4.707,4.956-9.208,7.688-13.516a175.038,175.038,0,0,0,10.074-17.091,73.354,73.354,0,0,1,5.463-9.811.873.873,0,0,1,.179-.192,12.7,12.7,0,0,1-.846-1.117c-3.755,10.359-12.039,18.349-16.456,28.25-2.581,5.78-5.971,10.98-8.436,16.837a49.521,49.521,0,0,1-2.182,4.936h-1.832c2.634-3.535,3.265-9.108,5.451-12.672,2.725-4.44,4.857-9.118,7.5-13.583,4.954-8.378,11.837-16.264,14.856-25.7a13.159,13.159,0,0,1-.7-1.775c-.06-.192-.111-.384-.159-.579a125.489,125.489,0,0,1-11.68,20.9c-6.17,8.917-9.261,19.883-16.481,28.013a.846.846,0,0,1-.331.234,15.835,15.835,0,0,0,.087,4.755c.03.136.061.271.093.406h-1.69c-.063-.408-.1-.819-.127-1.23-7.153-1.79-14.622-2.325-21.792-4.034-6.478-1.548-12.814-4.509-19.338-5.651a.838.838,0,0,1,.275-1.652c7.4,1.294,14.3,4.828,21.748,6.184,6.319,1.154,12.847,1.886,19.089,3.425.023-.754.075-1.514.123-2.271h-.008c-8.3.654-15.914-2.819-23.913-4.55a170.433,170.433,0,0,1-18.285-5.446.8.8,0,0,1-.488-.188l-.065-.048c-.785-.631.013-1.7.871-1.416,6.78,2.26,13.445,4.188,20.435,5.938,7.063,1.771,13.878,4.626,21.271,4.044a.923.923,0,0,1,.269.018,18.174,18.174,0,0,0-.067-2.506c-15.566-3.219-31.62-9.6-47.677-9.424a.838.838,0,0,1-.275-.039c-3.371,5.036-2.313,14.164,2.183,18.846h-2.12c-4.438-5.714-5.179-15.29-.869-20.575a1.134,1.134,0,0,1,.121-.125c.018-.036.037-.075.058-.111,2.142-3.646,3.461-7.469,6.09-10.884,3.2-4.151,6.689-8.118,9.566-12.518,6.022-9.2,12.649-18.489,17.249-28.5a.694.694,0,0,1,.7-.542c7.38-.262,14.053,3.028,21.131,4.592,8.189,1.806,16.589,1.169,24.815,2.685a.743.743,0,0,1,.748.15.8.8,0,0,1,.389.815,63.147,63.147,0,0,0-.921,7.3.812.812,0,0,1,.005.494,8.624,8.624,0,0,0,.527,2.878c.95,2.394,2.586,5.559,5.215,6.386a.657.657,0,0,1,.505.646.734.734,0,0,1-.2.648c-3.794,4.213-5.321,10.132-8.842,14.624-3.744,4.78-6.082,10.788-9.249,15.987a72.022,72.022,0,0,0-7.388,15.669l-.121.377Zm7.373-39.846c-2.784,5.976-5.561,11.983-8.805,17.725-2.232,3.946-3.865,8.7-6.744,12.2a.589.589,0,0,1-.075.081,13.186,13.186,0,0,1,.075,2.011c5.982-7.5,8.744-17.127,14.2-25.021a127.384,127.384,0,0,0,13.729-24.961,31.364,31.364,0,0,1,.308-3.786A174,174,0,0,0,7045.448,6356.958Zm-31.6-31.751c-4.323,9.265-10.432,17.979-16,26.5-2.971,4.538-6.371,8.67-9.68,12.958-2.857,3.7-4.54,7.718-6.818,11.664,15.952.083,31.807,6.3,47.274,9.471,3.623-4.413,6.24-11.086,8.832-16.174,2.946-5.774,5.526-11.722,8.422-17.52,3.456-6.919,7.886-13.328,12.155-19.775-7.938-1.3-16.125-.531-23.954-2.536-6.507-1.66-13.059-4.588-19.864-4.588Zm-1.3,71.6c-1.778-.336-3.549-.724-5.307-1.2-6.778-1.844-13.77-5.352-20.708-6.084-1.077-.112-.8-1.762.269-1.648,7.1.742,13.814,4.323,20.713,6.078,5.18,1.319,10.459,1.979,15.693,2.855Zm-15.347,0c-2.228-.494-4.447-1-6.643-1.536-1.04-.25-.777-1.906.273-1.648,4.718,1.159,9.529,2.107,14.3,3.184Zm-12.414,0c-.292-2.882-1.441-5.624-1.944-8.468-.511-2.875-.215-5.784-.415-8.68-.073-1.077,1.592-1.253,1.665-.175.219,3.184-.16,6.392.594,9.526a53.207,53.207,0,0,1,1.783,7.8Zm119.064-16.525c-5.813-6.57-9.312-13.824-9.437-22.767-.2-14.3,6.477-27.192,21.7-29.918a.743.743,0,0,1,.158-.027.934.934,0,0,1,.16-.016c8.428-.752,16.548-.1,23.659,4.959,6.784,4.823,9.057,10.632,9.561,18.816.842,13.624-7.522,33.591-23.251,35.245-.258.027-.518.048-.777.065-1.442.094-2.884.154-4.313.154C7114.759,6386.791,7108.483,6385.512,7103.856,6380.279Zm-.273-2.6a27.177,27.177,0,0,0,2.982,2.946c5.336,4.511,15.785,6.071,22.459,3.611q.427-.159.844-.329c-.006-.007-.008-.015-.013-.023-2.312-4.409-1.5-11.663.7-16.577a33.5,33.5,0,0,1-8.88-4.187C7116.859,6369.217,7110.938,6376.833,7103.583,6377.682Zm27.805,5.549a28.52,28.52,0,0,0,13.37-14.464,41.567,41.567,0,0,1-12.447-.979C7130.216,6372.492,7129.131,6378.856,7131.389,6383.231Zm-35.264-27.371a1.124,1.124,0,0,1-.113.042,34.565,34.565,0,0,0,.2,3.5,33.653,33.653,0,0,0,6.163,16.779.81.81,0,0,1,.363-.1c7.2-.417,12.792-7.986,17.514-13.947-.241-.177-.479-.357-.717-.54-4.038-3.115-7.894-6.8-11.7-10.251C7104.1,6353.17,7100.011,6354.147,7096.125,6355.86Zm37.749,9.015c-.254.392-.5.812-.744,1.254a38.929,38.929,0,0,0,12.266.919.476.476,0,0,1,.073,0,38.981,38.981,0,0,0,2.479-11.979A22.8,22.8,0,0,0,7133.873,6364.875Zm-9.247-5.382c-.59.685-1.2,1.431-1.829,2.217a34.918,34.918,0,0,0,8.6,3.948c.107-.187.219-.367.333-.541,3.8-5.861,9.349-10.432,16.258-11.762a37.786,37.786,0,0,0-.2-4.033c-.8-7.784-4.674-13.022-10.093-16.224C7137.232,6343.427,7131.145,6351.913,7124.626,6359.493Zm-11.247-12.045a19.163,19.163,0,0,1-3.894,3c2.656,2.217,5.05,4.6,7.638,6.936a42.8,42.8,0,0,0,4.227,3.369c.675-.831,1.333-1.61,1.973-2.313,6.473-7.078,12.5-15.816,12.735-25.765a.909.909,0,0,1,.1-.408,34.619,34.619,0,0,0-15.135-3.232C7121.713,6336.331,7118.542,6342.262,7113.379,6347.448Zm-17.328,6.626c3.5-1.471,7.128-2.313,10.494-3.918-2.642-2.594-4.507-6.179-7.171-8.6A29.785,29.785,0,0,0,7096.051,6354.074Zm20.4-24.844a23.29,23.29,0,0,0-16.222,10.837c3,2.646,4.611,6.705,7.873,9.259a.05.05,0,0,1,.011.01,18.583,18.583,0,0,0,2.917-2.056c5.431-4.674,9.042-10.993,8.319-18.227Q7117.9,6329.1,7116.448,6329.23Zm259.76,54.355c-2.959-1.256-3.671-3.009-2.31-6.048,2.433-5.441,5.867-10.53,8.765-15.735,3.274-5.873,8.9-14.166,14.781-5.169,1.7,2.6-3.44,10.426-4.8,12.5-2.64,4-4.852,8.463-9.884,9.084a.85.85,0,0,1-.921-.746c-.732-6.334,4.142-9.863,6.961-14.962.52-.937,2.05-.259,1.529.688-1.688,3.05-4.542,5.546-5.949,8.711-2.031,4.557,1.63,3.25,3.382,1.065a38.8,38.8,0,0,0,4.394-6.3c1.169-2.248,2.06-4.559,3.094-6.861,1.78-3.952-4.367-7.086-6.742-4.107a64.638,64.638,0,0,0-5.361,8.721c-1.95,3.448-3.986,6.853-5.934,10.295a22.3,22.3,0,0,0-1.788,3.513c-1.8,5.123,5.352,4.819,7.276,3.473,6.711-4.7,14.175-10.012,19.694-16.081.719-.794,2.027.254,1.3,1.056-4.725,5.19-10.958,9.88-16.645,13.989-2.787,2.015-4.767,3.7-7.452,3.7A8.653,8.653,0,0,1,7376.208,6383.585Zm70.738-5.573q-.7-6.865-1.454-13.718-7.078.66-14.155,1.384a.838.838,0,0,1-.175-1.665q7.072-.73,14.147-1.385c-1.321-12.036-2.715-24.054-4.083-36.089q-.2.657-.414,1.307c-.3.94-.679,2.921-1.769,3.317-1.011.369-1.623-1.19-.611-1.558-.279.1-.015-.113.086-.338.133-.312.26-.625.373-.948q.4-1.1.713-2.221a29.681,29.681,0,0,0,.869-3.531.848.848,0,0,1,1.529-.315.764.764,0,0,1,.5.663c.048.433.1.867.146,1.3,1.425,1.821,2.275,4.206,3.3,6.194.5.961-1.067,1.562-1.558.613-.442-.854-.846-1.81-1.286-2.755q1.165,10.222,2.331,20.442a.458.458,0,0,1,.159.027,5.737,5.737,0,0,1,2.213,1.729,4.848,4.848,0,0,0,2.017,1.561c.485.133.662-.017.723-.067.7-.577.488-2.93.377-4.192-.042-.429-.069-.794-.071-1.038-.011-2.1.321-5.921,2.671-7.842a3.472,3.472,0,0,1,3.16-.8,3.754,3.754,0,0,1,2.417,2.5c.938,2.655,2.173,5.263,4.817,6.32a2.371,2.371,0,0,0,2.109.031c1.531-.871,2.046-4.082,2.423-6.424a16.9,16.9,0,0,1,.575-2.757c.929-3.732,1.906-7.646,4.312-11,1.667-2.063,3.376-2.263,4.524-2.071,2.552.429,4.575,3.048,5.448,5.452a42.051,42.051,0,0,1,1.421,5.74c1.333,6.632,2.713,13.512,10.407,12.326a.515.515,0,0,1,.573.421.506.506,0,0,1-.421.573c-.206.031-.406.058-.6.077-8.117.852-9.682-6.918-10.943-13.2a41.353,41.353,0,0,0-1.379-5.592c-.913-2.525-2.834-4.5-4.671-4.807a3.736,3.736,0,0,0-3.561,1.688c-2.275,3.175-3.225,7-4.146,10.689a16.2,16.2,0,0,0-.542,2.619c-.433,2.685-.965,6.032-2.921,7.14a3.326,3.326,0,0,1-2.98.029c-3.011-1.208-4.371-4.038-5.392-6.92a2.759,2.759,0,0,0-1.744-1.861,2.5,2.5,0,0,0-2.248.609c-2.021,1.662-2.31,5.136-2.3,7.061,0,.227.031.56.069.956.192,2.183.285,4.208-.739,5.056a1.7,1.7,0,0,1-1.632.259,5.68,5.68,0,0,1-2.484-1.846,6.243,6.243,0,0,0-1.51-1.334q.713,6.328,1.412,12.658c18.167-1.683,36.349-3.123,54.507-4.871-.959-.492-1.879-1.054-2.878-1.465s-.312-1.937.688-1.529c1.2.494,2.254,1.269,3.452,1.76a22.15,22.15,0,0,0,3.65.767c.544-.11,1.217.292,1.058.935-.119.467-.3.882-.821,1.011a.862.862,0,0,1-.554-.035c-1.915.933-3.269,2.857-4.865,4.225-.819.7-1.8-.652-.99-1.35,1-.857,1.9-1.89,2.892-2.794-18.639,1.812-37.3,3.282-55.957,5.011q.747,6.844,1.454,13.7a.8.8,0,0,1-.751.894c-.035,0-.067,0-.1,0A.775.775,0,0,1,7446.946,6378.012Zm-561.739-12.049a.8.8,0,0,1-.3-.554c-.873-7.452-3.042-14.635-4.111-22.02-1.213-8.4-1.427-16.885-2.217-25.331-.533-.505-.2-1.634.683-1.44,7.574,1.665,13.914,6.161,21.412,8.155,8.951,2.383,16.951,6.273,25.7,9.138,9.274,3.04,17.833,7.261,26.882,10.763,6.646,2.571,14.362,4.488,20.264,8.578a.7.7,0,0,1,.292.838.913.913,0,0,1-.687,1.088,432.543,432.543,0,0,1-47.771,7.314c-13.145,1.381-26.336,2.444-39.525,3.66a.7.7,0,0,1-.09,0A.771.771,0,0,1,6885.207,6365.963Zm-2.748-22.748a210.621,210.621,0,0,1,4.013,21.2c.236-.023.475-.044.713-.065-.025-1.017.073-2.037-.019-3.054a.839.839,0,0,1,1.667-.175c.09,1.027-.01,2.052.017,3.077l1.637-.148a7.165,7.165,0,0,1-.008-1.977.836.836,0,0,1,1.648.275,5.619,5.619,0,0,0,.029,1.554c.344-.033.687-.062,1.031-.094.113-.515.227-1.032.338-1.546.233-1.052,1.888-.785,1.656.271-.083.373-.167.748-.25,1.121l6.065-.536-.217-2.069a.838.838,0,0,1,1.665-.175l.221,2.1,2.13-.19c-.077-.431-.067-.9-.1-1.3a.838.838,0,0,1,1.667-.173,3.375,3.375,0,0,0,.138,1.323l1.356-.123c-.025-.619,0-1.24-.05-1.861a.839.839,0,0,1,1.667-.175c.048.629.023,1.255.048,1.884q4.915-.447,9.818-.929c-.084-.94-.044-1.88-.131-2.821a.838.838,0,0,1,1.666-.175c.086.942.046,1.889.131,2.831.715-.071,1.427-.144,2.142-.217-.114-.657-.271-1.31-.352-1.973a.838.838,0,0,1,1.665-.175c.081.666.239,1.315.352,1.975,1.41-.146,2.825-.3,4.232-.454-.26-1.1.158-2.556.086-3.529-.079-1.073,1.586-1.25,1.666-.173a13.542,13.542,0,0,1-.089,1.913c-.019.289-.15,1.4.039,1.539a.646.646,0,0,1,.062.054q1.295-.147,2.586-.3a13.289,13.289,0,0,1-.379-2.932.838.838,0,0,1,1.666-.175,8.777,8.777,0,0,0,.435,2.9c.846-.1,1.692-.2,2.538-.31a.2.2,0,0,1-.012-.048,32,32,0,0,1-.236-3.844.838.838,0,0,1,1.665-.175,32.094,32.094,0,0,0,.237,3.846s0,.008,0,.014q2-.254,3.984-.523l-.286-2.738a.837.837,0,0,1,1.663-.175l.283,2.685q1.826-.254,3.646-.521c-.2-1.471-.771-2.854-.956-4.329a.838.838,0,0,1,1.666-.175c.181,1.448.734,2.811.946,4.255q1-.15,1.994-.306l-.408-3.884a.838.838,0,0,1,1.666-.173l.4,3.794q.747-.119,1.49-.24l-.179-1.709a.838.838,0,0,1,1.665-.175l.169,1.608q1.852-.315,3.7-.646a.813.813,0,0,1-.1-.348c-.081-.895-.033-1.789-.115-2.683a.838.838,0,0,1,1.665-.175c.081.895.035,1.791.113,2.683a1,1,0,0,1-.007.24q4.551-.839,9.091-1.809c-6.971-4.39-15.841-6.026-23.2-9.636-8.047-3.952-16.514-6.238-24.794-9.515a273.119,273.119,0,0,0-27.746-9.57c-5.411-1.5-9.918-4.963-15.354-6.522C6880.97,6326.715,6880.64,6335.31,6882.458,6343.215Zm424.227,14.887a.74.74,0,0,1,.857-.675,2.2,2.2,0,0,1,3.131-1.875c.034.013.071.029.105.044-.792-.846-.783-2.959-.85-3.765-.359-4.34-1.655-8.642-1.708-12.97-.011-1.073,1.656-1.259,1.666-.175.044,3.494,1.265,6.784,1.505,10.253.079,1.14.141,2.286.268,3.421.1.821.607,1.829-.077,1.917a.838.838,0,0,1,.175,1.665,1.236,1.236,0,0,1-.329,0,5.02,5.02,0,0,1,2.177,2.977c.45,1.928-1.23,3.253-2.988,3.48-.035,0-.069.009-.1.011a3.922,3.922,0,0,1-.423.023C7307.792,6362.435,7306.414,6360.391,7306.685,6358.1Zm4.161,2.54c.906-.3,1.388-.8,1.052-1.63a3.482,3.482,0,0,0-1.732-1.854.928.928,0,0,0-.721-.109.554.554,0,0,0-.133.177,2.351,2.351,0,0,0-.136.615.736.736,0,0,1-.854.675C7308.216,6360.018,7309.266,6361.167,7310.846,6360.643Zm326.11-1.242c.59-2.721,1.51-5.35,2.171-8.051a11.241,11.241,0,0,0-3.573-.694c-.935,0-1.211-1.285-.534-1.6a1.1,1.1,0,0,1,.109-.175q3.986-5.044,7.959-10.1a.781.781,0,0,1,1.058-.188.737.737,0,0,1,.414.942.774.774,0,0,1-.081.177c-.937,2.042-.4,4.644.039,6.753.423,2.039.982,4.038,1.473,6.067a.658.658,0,0,1-.248.736.687.687,0,0,1-.7.19,31.1,31.1,0,0,1-4.344-1.533c-.654,2.579-1.517,5.1-2.086,7.7a.838.838,0,0,1-.758.677.92.92,0,0,1-.1.006A.743.743,0,0,1,7636.956,6359.4Zm.1-10.251c2.386.417,4.613,1.571,6.932,2.306-.748-2.725-1.808-5.915-1.785-8.842Q7639.632,6345.884,7637.06,6349.149Zm-741.266,4.14a.884.884,0,0,1-.065-.244c-.658-5.277-3.24-11.122-1.611-16.42a.647.647,0,0,1,.633-.506.8.8,0,0,1,.475.086c5.936,2.983,12.665,4.861,18.9,7.113,5.386,1.94,11.415,5.115,17.108,6.051a1.228,1.228,0,0,1,.148,0,.83.83,0,0,1,.442.177l.04.031a.845.845,0,0,1-.452,1.484.8.8,0,0,1-.215-.006h-.01l-.688.071a.865.865,0,0,1-.294-.013c-5.78.338-11.457.129-17.216,1.121a135.431,135.431,0,0,1-16.291,1.994.459.459,0,0,1-.052,0A.86.86,0,0,1,6895.794,6353.29Zm1.552-.77c6.009-.373,11.824-1.492,17.779-2.357a80.448,80.448,0,0,1,10.337-.579c-4.105-1.4-8.218-3.361-12.028-4.738-5.926-2.142-12.3-3.94-18.01-6.676C6894.475,6342.723,6896.7,6348.028,6897.346,6352.52Zm391.228-4.748a4.966,4.966,0,0,1-2.742-1.331,5.179,5.179,0,0,1-.914-2.888.822.822,0,0,1,1.01-.885,3,3,0,0,1,2.742-2.382h0a.9.9,0,0,1-.083-.259c-.852-5.121.567-10.172.19-15.289-.079-1.073,1.586-1.25,1.666-.175.375,5.113-1.042,10.176-.19,15.289a.725.725,0,0,1-.171.637,3.366,3.366,0,0,1,1.377.911,16.227,16.227,0,0,1,3.411-3.6c1.721-1.344,4.928-2.7,5.663-4.846.35-1.019,1.875-.327,1.523.688-.646,1.9-2.548,2.917-4.121,3.992a17.559,17.559,0,0,0-5.63,5.53,4.038,4.038,0,0,1,.038,1.016c-.14,1.636-1.306,3.436-3.011,3.615a2.638,2.638,0,0,1-.279.016A2.753,2.753,0,0,1,7288.573,6347.772Zm.056-5.79c-1.063.24-1.279,1.261-1.06,2.192a.686.686,0,0,1-.687.871,1.119,1.119,0,0,0,.141.219,3.668,3.668,0,0,0,1.579.815,2.1,2.1,0,0,0,.433-4.146A1.8,1.8,0,0,0,7288.629,6341.983Zm39.064,3.107a2.7,2.7,0,0,1-.65-2.6.774.774,0,0,1,.377-.558,5.217,5.217,0,0,1,1.017-3.157c-2.713-4.023-2.386-9.232-2.825-13.864a.838.838,0,0,1,1.665-.177c.4,4.257.016,9.253,2.454,12.968.073-.035.146-.065.219-.1a2.521,2.521,0,0,1,3.417,2.4c.014,1.84-.886,4.753-2.871,5.39a4.137,4.137,0,0,1-.829.171,3.889,3.889,0,0,1-.429.023A2.2,2.2,0,0,1,7327.693,6345.09Zm2.484-5.681a3.124,3.124,0,0,0-1.081,2.642.792.792,0,0,1-.417.787c-.107.633-.1,1.084.667,1.042a1.4,1.4,0,0,0,1.192-.55c.6-.75,1.473-2.346,1.137-3.367-.177-.537-.442-.869-.808-.869A1.124,1.124,0,0,0,7330.177,6339.41Zm-45,2.6a14.6,14.6,0,0,1-4.992-3.846c-.838-.919-1.633-1.869-2.427-2.827-.817-.992-1.213-2.157-2.54-2.609-1.02-.35-.321-1.875.692-1.526,1.914.653,2.734,2.605,3.971,4.07,1.7,2.025,3.494,4.158,5.986,5.208a.846.846,0,0,1-.273,1.6c-.025,0-.052,0-.079,0A.873.873,0,0,1,7285.175,6342.012Zm39.712-.715c-3.505-2.834-7.053-5.708-11.362-7.205-1.017-.354-.321-1.883.688-1.527,4.438,1.542,8.124,4.511,11.728,7.428a.85.85,0,0,1-.471,1.488.517.517,0,0,1-.077,0A.8.8,0,0,1,7324.887,6341.3Zm-18.917-7.43a4.37,4.37,0,0,1-.062-5.086c.8-1.507,2.644-2.673,4.269-1.713,2,1.183,1.772,3.863.686,5.655a4.359,4.359,0,0,1-2.909,2.1,1.855,1.855,0,0,1-.232.014A2.125,2.125,0,0,1,7305.97,6333.866Zm1.465-4.425a.843.843,0,0,1-.11.217,2.3,2.3,0,0,0-.158.556.742.742,0,0,1-.382.586,3.092,3.092,0,0,0,.425,1.927c.813,1.108,1.975-.279,2.336-1.1s.994-2.7-.233-3.117a1.337,1.337,0,0,0-.431-.073A1.756,1.756,0,0,0,7307.435,6329.441Zm32.653.458a.837.837,0,0,1,1.281-.55c0-.011,0-.023,0-.037a2.437,2.437,0,0,1,1.071-1.794,28.342,28.342,0,0,0,.208-7.1.838.838,0,0,1,1.666-.175,30.227,30.227,0,0,1-.173,7.234c.031.016.063.031.1.048a4.405,4.405,0,0,1,2.331,3.149c.244,1.8-1.181,2.727-2.744,3.069a2.338,2.338,0,0,1-.294.048,2.587,2.587,0,0,1-.273.016A3.462,3.462,0,0,1,7340.088,6329.9Zm1.652.275a1.773,1.773,0,0,0,.6,1.55,1.535,1.535,0,0,0,1.685.254,1.321,1.321,0,0,0,.848-.588,1.132,1.132,0,0,0,0-.683,3.133,3.133,0,0,0-1.054-1.5,4.715,4.715,0,0,1-2.069.917A.357.357,0,0,0,7341.74,6330.174Zm-70.269,1.452a3.042,3.042,0,0,1-2.619-1.473,2.338,2.338,0,0,1,.052-2.094.825.825,0,0,1,.1-.319c.654-1.206,1.473-2.505,2.9-2.838a5.883,5.883,0,0,1,3.888.927.908.908,0,0,1,.129.079.715.715,0,0,1,.109-.873,12.824,12.824,0,0,1,3.7-2.546,8.332,8.332,0,0,0,2.306-1.287,3.131,3.131,0,0,1,1.74-.817c1.056-.221,1.219,1.444.175,1.667-.741.154-1.112.859-1.783,1.14-.623.26-1.232.541-1.827.854a11.071,11.071,0,0,0-3,2.044.6.6,0,1,0-1.084.506.807.807,0,0,1,.073.35,4.5,4.5,0,0,1-4.017,4.663,4.559,4.559,0,0,1-.521.027C7271.684,6331.636,7271.579,6331.634,7271.471,6331.626Zm.821-5.107a2.3,2.3,0,0,0-1.292,1.1.809.809,0,0,1-.183.508c-.836,1.077-.41,1.919,1,1.844a2.786,2.786,0,0,0,2.846-2.842,4.587,4.587,0,0,0-1.969-.65A1.734,1.734,0,0,0,7272.292,6326.519Zm-310.084,1.065c-2.959-1.254-3.671-3.007-2.31-6.047a95.838,95.838,0,0,1,5.258-9.732h2.047c-1.335,2.3-2.683,4.6-3.992,6.909a22.318,22.318,0,0,0-1.788,3.515c-1.8,5.123,5.352,4.819,7.278,3.471,5.891-4.124,12.365-8.726,17.592-13.9h2.338c-4.574,4.742-10.314,9.05-15.584,12.86-2.786,2.013-4.767,3.7-7.451,3.7A8.653,8.653,0,0,1,6962.208,6327.584Zm397.773-.45a3.778,3.778,0,0,1-1.709-3.634.672.672,0,0,1,.85-.667,3.125,3.125,0,0,1,3.5-3.009,4.9,4.9,0,0,1,3.988,2.715c.85,2.1-.911,3.727-2.694,4.482a6.533,6.533,0,0,1-1.855.529,3.669,3.669,0,0,1-.414.023A3.313,3.313,0,0,1,7359.98,6327.134Zm1.473-1.234a4.236,4.236,0,0,0,2.623-.834c.952-.629,1.417-1.4.785-2.242a3.5,3.5,0,0,0-2.617-1.354c-.967-.029-1.414.711-1.48,1.765a.7.7,0,0,1-.84.673A1.858,1.858,0,0,0,7361.453,6325.9Zm-49.54-2.634c4-.194,7.168-3.007,10.9-4.163a.788.788,0,0,1,.152-.3.8.8,0,0,1-.694-1.15c.567-1.154.848-2.519,2.077-3.166a4.044,4.044,0,0,1,3.471.044c2.107.961,3.553,3.183,2.552,5.505-1.334,3.1-6.069,3.7-7.3.738-3.563,1.192-6.624,3.711-10.424,4.111-.187.019-.373.033-.563.042l-.048,0C7311.012,6324.93,7310.85,6323.315,7311.914,6323.265Zm12.979-7.14a7.59,7.59,0,0,0-1.1,2.215.982.982,0,0,1-.075.129.711.711,0,0,1,.727.727c.041,1,.52,1.961,1.673,1.917a2.972,2.972,0,0,0,2.533-1.359,2.516,2.516,0,0,0-1.213-3.554,4.081,4.081,0,0,0-1.583-.429A1.338,1.338,0,0,0,7324.893,6316.125Zm-17.637,7.566a7.322,7.322,0,0,1-1.437-3.609c-.221-1.28-1.084-2.438-1.277-3.769a28.922,28.922,0,0,0-1.176-4.509h1.7a44.69,44.69,0,0,0,2.024,6.969c.357.8.558,2.311.933,3.163a.7.7,0,0,1,.623.713,1.325,1.325,0,0,1-.217.919.783.783,0,0,1-.571.308.825.825,0,0,1-.1,0A.706.706,0,0,1,7307.256,6323.692Zm-20.637-.444a3.586,3.586,0,0,1-1.86-3.975.836.836,0,0,1-.119-.808c.731-2.046,2.881-3.519,5.025-2.436a4.126,4.126,0,0,1,.4.229,45.194,45.194,0,0,0,3.423-4.453h2.042a55.16,55.16,0,0,1-4.275,5.632,4.056,4.056,0,0,1,.3,3.905,3.869,3.869,0,0,1-3.005,2.338,3.02,3.02,0,0,1-.319.015A3.169,3.169,0,0,1,7286.62,6323.248Zm-.044-4.927a.714.714,0,0,1,.039.787,1.88,1.88,0,1,0,3.409,1.546,2.338,2.338,0,0,0-1.221-3.171,2.013,2.013,0,0,0-.665-.121A1.879,1.879,0,0,0,7286.575,6318.321Zm-318.737,3.146c-.458-3.962,1.276-6.826,3.329-9.663h1.845a20.108,20.108,0,0,0-2.634,4.1c-2.031,4.555,1.63,3.248,3.382,1.063a45.86,45.86,0,0,0,3.759-5.163h1.983c-.35.551-.648,1-.857,1.323-2.642,4-4.854,8.465-9.886,9.084a.831.831,0,0,1-.921-.744Zm389.906-.02c-3.225-.867-4.523-4.765-7.759-5.472-1.052-.229-.782-1.881.271-1.652a8.21,8.21,0,0,1,4.067,2.517c1.058,1.067,2.181,2.544,3.694,2.954.923.248.813,1.6.031,1.681a.565.565,0,0,1-.077,0A.875.875,0,0,1,7357.744,6321.448Zm-16.56-4.738a3.146,3.146,0,0,1-1.9-2.667.768.768,0,0,1,.1-.52.881.881,0,0,1-1.054-1.151q.113-.289.254-.567h2.146a.9.9,0,0,1-.633.719,5.673,5.673,0,0,0-.239.538.808.808,0,0,1-.071.143.97.97,0,0,1,.223-.05.87.87,0,0,1,.1-.005.811.811,0,0,1,.84.719c.258,1.879,2.406,1.525,3.494.508a1.5,1.5,0,0,0,.048-2.011,3.817,3.817,0,0,0-.476-.56h2.089c.042.082.082.165.119.25a3.178,3.178,0,0,1-1.54,4.178,5.5,5.5,0,0,1-2,.656,3.346,3.346,0,0,1-.394.021A2.993,2.993,0,0,1,7341.184,6316.71Zm6.071-4.905h1.555q-.289.159-.58.315a.817.817,0,0,1-.3.1.461.461,0,0,1-.067,0A.689.689,0,0,1,7347.255,6311.8Zm-21.059,0h1.346a.671.671,0,0,1-.528.321.732.732,0,0,1-.092.006A.973.973,0,0,1,7326.2,6311.8Z" transform="translate(-13499 -11420.805)" fill="#ebfff8"/>
    </g>
  </g>
</svg>
