<svg xmlns="http://www.w3.org/2000/svg" width="348.152" height="640" viewBox="0 0 348.152 640">
    <defs>
        <style>
            .cls-2{fill:#29396d}
        </style>
    </defs>
    <g id="Group_5106" transform="translate(10.244)" style="isolation:isolate" opacity="0.1">
        <g id="Group_678" transform="rotate(16 -1911.517 365.106)">
            <g id="Group_656" transform="translate(0 .123)">
                <path id="Path_2264" d="M.538.809c-.077 8.64-.784 17.26-.449 25.9.291 7.455 1.7 14.826 1.788 22.327a.838.838 0 0 0 1.674 0 205.058 205.058 0 0 0-1.787-22.327C.733 18.26 2.136 9.3 2.213.809a.838.838 0 0 0-1.674 0z" class="cls-2"/>
            </g>
            <g id="Group_657" transform="translate(1.904 46.527)">
                <path id="Path_2265" d="M.811 3.469c29.373.378 58.659 1.5 87.965-1.788 1.058-.121 1.072-1.8 0-1.674C59.471 3.291 30.185 2.173.811 1.795a.838.838 0 0 0 0 1.674z" class="cls-2"/>
            </g>
            <g id="Group_658" transform="translate(.338)">
                <path id="Path_2266" d="M1.259.128L1.024.047C.877.586.727 1.122.579 1.661 6.45 3.617 10.8 8 16.443 10.224a273.663 273.663 0 0 1 26.593 12.418C50.93 26.768 59.111 29.926 66.7 34.7c7.3 4.585 16.49 7.17 23.05 12.816.814.7 2.006-.476 1.186-1.182-5.442-4.685-12.913-7.4-19.256-10.649-8.633-4.427-16.7-9.521-25.609-13.513-8.4-3.764-15.951-8.469-24.6-11.775C14.219 7.629 8.382 2.5 1.024.047 0-.294-.439 1.32.579 1.661l.234.077c1.029.345 1.464-1.269.446-1.61z" class="cls-2"/>
            </g>
            <g id="Group_659" transform="translate(13.027 21.056)">
                <path id="Path_2267" d="M1.021.441C-1.152 5.538.8 11.623.907 16.938a.838.838 0 0 0 1.674 0C2.485 12.055.475 5.953 2.468 1.285 2.886.3 1.443-.55 1.021.441z" class="cls-2"/>
            </g>
            <g id="Group_660" transform="translate(13.961 37.124)">
                <path id="Path_2268" d="M.81 2.152a135.525 135.525 0 0 0 16.41-.282c6.226-.412 12.217.532 18.419.73V.926h-.891a.838.838 0 0 0 0 1.674h.891a.838.838 0 0 0 0-1.674C30.257.752 24.959-.183 19.564.032 13.275.28 7.113.822.81.477-.272.42-.268 2.095.81 2.152z" class="cls-2"/>
            </g>
            <g id="Group_661" transform="translate(13.959 21.059)">
                <path id="Path_2269" d="M.39 1.583c5.592 3.59 12.086 6.155 18.05 9.049 5.352 2.6 11.225 6.517 17.012 8.037a.844.844 0 0 0 .817-1.4l-.037-.037c-.783-.737-1.972.445-1.185 1.189l.037.034.814-1.4c-5.639-1.484-11.389-5.341-16.614-7.87C13.32 6.3 6.827 3.723 1.234.137.323-.449-.518 1 .39 1.583z" class="cls-2"/>
            </g>
            <g id="Group_662" transform="translate(4.222 44.495)">
                <path id="Path_2270" d="M1.675 4.5c.02-1.236.315-2.448.335-3.687a.838.838 0 0 0-1.674 0C.315 2.048.02 3.26 0 4.5a.838.838 0 0 0 1.674 0z" class="cls-2"/>
            </g>
            <g id="Group_663" transform="translate(7.571 45.832)">
                <path id="Path_2271" d="M1.674 2.653a5.955 5.955 0 0 1 .134-1.618A.836.836 0 0 0 .2.59 7.5 7.5 0 0 0 0 2.653a.838.838 0 0 0 1.674 0z" class="cls-2"/>
            </g>
            <g id="Group_664" transform="translate(10.232 46.347)">
                <path id="Path_2272" d="M1.659 2.53c.167-.5.338-1 .506-1.507C2.506 0 .888-.441.547.581q-.246.749-.5 1.5C-.3 3.109 1.324 3.548 1.659 2.53z" class="cls-2"/>
            </g>
            <g id="Group_665" transform="translate(18.12 45.671)">
                <path id="Path_2273" d="M1.674 2.982V.809A.838.838 0 0 0 0 .809v2.173a.838.838 0 0 0 1.674 0z" class="cls-2"/>
            </g>
            <g id="Group_666" transform="translate(21.924 46.507)">
                <path id="Path_2274" d="M1.776 2.23c-.251-.33-.064-1.025-.054-1.42a.838.838 0 0 0-1.675 0 3.534 3.534 0 0 0 .282 2.264c.646.847 2.1.013 1.447-.844z" class="cls-2"/>
            </g>
            <g id="Group_667" transform="translate(24.985 46.003)">
                <path id="Path_2275" d="M1.675 3.155c.01-.787.147-1.561.167-2.348a.838.838 0 0 0-1.674 0C.147 1.595.01 2.368 0 3.155a.838.838 0 0 0 1.674 0z" class="cls-2"/>
            </g>
            <g id="Group_668" transform="translate(36.539 45.165)">
                <path id="Path_2276" d="M1.675 3.659c.013-.954.154-1.9.167-2.85a.838.838 0 0 0-1.674 0C.154 1.763.013 2.7 0 3.659a.838.838 0 0 0 1.674 0z" class="cls-2"/>
            </g>
            <g id="Group_669" transform="translate(40.222 46.003)">
                <path id="Path_2277" d="M1.842 3.319c-.017-.841-.154-1.671-.167-2.512A.838.838 0 0 0 0 .807c.013.841.151 1.671.168 2.512a.838.838 0 0 0 1.674 0z" class="cls-2"/>
            </g>
            <g id="Group_670" transform="translate(46.275 44.496)">
                <path id="Path_2278" d="M1.741 4.237c-.171-.161.074-1.249.124-1.534a13.9 13.9 0 0 0 .288-1.9C2.186-.271.512-.267.478.808c-.044 1.343-1.1 3.5.077 4.611.784.743 1.969-.442 1.186-1.182z" class="cls-2"/>
            </g>
            <g id="Group_671" transform="translate(50.556 44.998)">
                <path id="Path_2279" d="M1.86 3.768A8.667 8.667 0 0 1 1.723.811a.838.838 0 0 0-1.674 0 9.92 9.92 0 0 0 .2 3.4C.6 5.225 2.215 4.79 1.86 3.768z" class="cls-2"/>
            </g>
            <g id="Group_672" transform="translate(54.924 43.995)">
                <path id="Path_2280" d="M1.709 4.658A32.163 32.163 0 0 1 1.876.81.838.838 0 0 0 .2.81a32.156 32.156 0 0 0-.166 3.848c.1 1.068 1.782 1.078 1.674 0z" class="cls-2"/>
            </g>
            <g id="Group_673" transform="translate(60.651 44.998)">
                <path id="Path_2281" d="M1.674 3.993V.811A.838.838 0 0 0 0 .811v3.182a.838.838 0 0 0 1.674 0z" class="cls-2"/>
            </g>
            <g id="Group_674" transform="translate(65.506 43.158)">
                <path id="Path_2282" d="M2.177 5.328c-.03-1.524-.472-3-.5-4.518A.838.838 0 0 0 0 .81C.03 2.334.473 3.8.5 5.328a.838.838 0 0 0 1.674 0z" class="cls-2"/>
            </g>
            <g id="Group_675" transform="translate(69.693 43.491)">
                <path id="Path_2283" d="M1.674 4.995V.809A.838.838 0 0 0 0 .809v4.186a.838.838 0 0 0 1.674 0z" class="cls-2"/>
            </g>
            <g id="Group_676" transform="translate(72.874 45.503)">
                <path id="Path_2284" d="M1.674 3.15V.809A.838.838 0 0 0 0 .809V3.15a.838.838 0 0 0 1.674 0z" class="cls-2"/>
            </g>
            <g id="Group_677" transform="translate(78.232 43.827)">
                <path id="Path_2285" d="M1.675 3.489c.013-.9.154-1.782.167-2.679a.838.838 0 0 0-1.674 0C.154 1.708.014 2.592 0 3.489a.838.838 0 0 0 1.674 0z" class="cls-2"/>
            </g>
        </g>
        <g id="Group_681" transform="translate(231.168 175.322)">
            <g id="Group_679" transform="translate(0 10.129)">
                <path id="Path_2286" d="M6.139 7.972C-3.619 10.33.195 25.694 4.351 31.424c2.776 3.828 7.378 7.053 12.227 6.808 3.111-.161 5.12-3.868 7.753-4.909 4.012-1.591 8.757-1.289 12.89-2.656C49.383 26.642 45.8 8.906 38.379 2.279c-3.8-3.392-9.323-2.736-12.974.251-3.356 2.749-5.288 5.057-9.852 5.094-3.064.023-6.138.057-9.193.318-1.068.094-1.075 1.768 0 1.674 5.07-.439 10.867.787 15.509-1.594a16.258 16.258 0 0 0 3.623-3.232c4.129-4.22 10.05-4 13.633.727 3.439 4.534 5.194 11.185 3.945 16.731-1.742 7.733-11.42 8.017-17.622 9.079-5.241.9-8.111 6.838-13.925 4.119-6.506-3.041-16.509-23.064-4.942-25.86 1.052-.251.606-1.865-.442-1.614z" class="cls-2"/>
            </g>
            <g id="Group_680" transform="translate(13.048)">
                <path id="Path_2287" d="M5.4 17.816C-.02 14.537 1.192 5.669 4.36 1.215 4.986.331 3.536-.5 2.913.368c-3.727 5.241-4.571 15.137 1.638 18.9a.84.84 0 0 0 .847-1.45z" class="cls-2"/>
            </g>
        </g>
        <g id="Group_699" transform="translate(115.316 426.805)">
            <g id="Group_682" transform="translate(42.213)">
                <path id="Path_2288" d="M.806 1.677c7.086.492 13.539 4.287 20.09 6.711 7.9 2.934 16.51 2.91 24.561 5.311a.836.836 0 0 0 .445-1.611c-8.071-2.411-16.55-2.642-24.561-5.311C14.466 4.483 8.174.515.806 0c-1.078-.074-1.071 1.6 0 1.677z" class="cls-2"/>
            </g>
            <g id="Group_683" transform="translate(3.958 .013)">
                <path id="Path_2289" d="M38.338.4c-5.623 9.5-13.198 18.052-20.16 26.591-3.322 4.076-7.2 7.656-10.824 11.45-2.97 3.121-4.682 6.785-7.193 10.187-.643.871.81 1.7 1.443.844C4.4 45.685 6.52 41.74 9.846 38.253c3.741-3.918 7.552-7.672 10.981-11.875 6.544-8.024 13.66-16.192 18.958-25.13A.838.838 0 0 0 38.338.4z" class="cls-2"/>
            </g>
            <g id="Group_684" transform="translate(51.553 12.017)">
                <path id="Path_2290" d="M36.03.283c-5.2 6.346-10.653 12.585-15.07 19.511-3.486 5.461-6.675 11.106-10.208 16.543C7.635 41.136 4.326 47.515.25 51.524c-.77.76.412 1.942 1.185 1.185 3.228-3.181 5.348-7.736 7.98-11.426 3.828-5.372 7.217-11.055 10.609-16.708 4.987-8.292 11.065-15.639 17.187-23.1.68-.827-.5-2.023-1.182-1.189z" class="cls-2"/>
            </g>
            <g id="Group_685" transform="translate(4.003 49.049)">
                <path id="Path_2291" d="M.8 1.679C17 3.2 32.493 11.421 47.834 16.226c1.031.321 1.474-1.293.446-1.618C32.764 9.753 17.182 1.541.8 0-.272-.1-.262 1.578.8 1.679z" class="cls-2"/>
            </g>
            <g id="Group_686" transform="translate(0 48.614)">
                <path id="Path_2292" d="M3.915.245C-2.662 6.775-.787 22.17 8.3 25.7c1.011.392 1.44-1.229.445-1.614C.81 21-.476 6.966 5.1 1.431A.839.839 0 0 0 3.915.245z" class="cls-2"/>
            </g>
            <g id="Group_687" transform="translate(7.716 72.672)">
                <path id="Path_2293" d="M.806 1.676c8 .4 15.432 3.938 22.752 6.885A96.083 96.083 0 0 0 47.1 14.485c1.072.137 1.058-1.537 0-1.674a102.932 102.932 0 0 1-25.306-6.755C15 3.323 8.211.37.806 0c-1.078-.052-1.071 1.622 0 1.676z" class="cls-2"/>
            </g>
            <g id="Group_688" transform="translate(85.662 12.072)">
                <path id="Path_2294" d="M1.7.6C.86 4.263-.53 8.275.21 12.066c.559 2.863 2.488 6.684 5.285 7.9.978.425 1.832-1.018.844-1.45-2.528-1.1-3.824-4.414-4.518-6.9-.894-3.235.77-7.411 1.5-10.572C3.562-.007 1.945-.452 1.7.6z" class="cls-2"/>
            </g>
            <g id="Group_689" transform="translate(53.997 30.496)">
                <path id="Path_2295" d="M36.989.223c-3.707 3.342-5.824 8.245-8.952 12.1-3.091 3.808-5.787 7.468-8.593 11.513-3.315 4.786-7.11 9.183-10.09 14.2-3.286 5.541-4.612 12.41-9.119 17.195-.74.787.442 1.969 1.182 1.186C4.5 53.145 6.2 48.838 8 44.776a72.126 72.126 0 0 1 8.985-14.812c3.694-4.839 6.647-10.569 10.87-14.933 3.972-4.1 6.109-9.826 10.321-13.62.8-.727-.385-1.905-1.186-1.189z" class="cls-2"/>
            </g>
            <g id="Group_690" transform="translate(50.245 63.66)">
                <path id="Path_2296" d="M.976.809C1.167 4.553-.488 8.243.145 11.977a37.408 37.408 0 0 0 3.711 11.1c.5.958 1.946.111 1.443-.844A33.759 33.759 0 0 1 1.645 10.52c-.358-3.158 1.169-6.487 1-9.712C2.6-.266.925-.273.976.809z" class="cls-2"/>
            </g>
            <g id="Group_691" transform="translate(5.998 51.77)">
                <path id="Path_2297" d="M.539.81c-.1 2.9-.7 5.763-.5 8.674.224 3.161 1.232 6.279 1.021 9.467-.07 1.075 1.6 1.068 1.674 0 .191-2.863-.553-5.783-.931-8.607C1.386 7.149 2.1 4 2.213.81 2.254-.272.579-.268.539.81z" class="cls-2"/>
            </g>
            <g id="Group_692" transform="translate(9.068 53.17)">
                <path id="Path_2298" d="M1.5.267L1.444.213C1.105.652.771 1.091.429 1.529A175.356 175.356 0 0 0 18.4 9.018c7.776 2.559 14.983 6.808 23.308 7.026a.838.838 0 0 0 0-1.674c-7.414-.194-13.895-3.747-20.733-6.246C14.206 5.652 7.78 3.036 1.273.083.449-.292-.455.689.258 1.4l.06.054A.838.838 0 0 0 1.5.267z" class="cls-2"/>
            </g>
            <g id="Group_693" transform="translate(9.776 57.597)">
                <path id="Path_2299" d="M.592 1.651c6.37 1.818 12.361 5.425 18.643 7.642C26.358 11.8 33.923 13.121 41 15.773c1.015.378 1.45-1.239.445-1.618-6.279-2.351-12.99-3.808-19.423-5.693C14.757 6.336 8.264 2.1 1.037.037a.838.838 0 0 0-.445 1.614z" class="cls-2"/>
            </g>
            <g id="Group_694" transform="translate(8.983 61.185)">
                <path id="Path_2300" d="M.6 1.632c6.829 1.454 13.417 5.673 19.964 8.215 6.955 2.7 14.283 3.908 21.286 6.3 1.028.355 1.463-1.266.445-1.611-7-2.391-14.3-3.721-21.286-6.3C14.331 5.765 8.026 1.5 1.046.021-.005-.2-.454 1.408.6 1.632z" class="cls-2"/>
            </g>
            <g id="Group_695" transform="translate(12.418 67.292)">
                <path id="Path_2301" d="M.572 1.664c8.108 2.92 16.6 5.342 24.548 8.717 4.658 1.979 10.515 2.589 14.769 5.325.914.586 1.755-.867.847-1.45-4.645-2.981-11.216-3.814-16.3-5.971C16.851 5.06 8.77 2.843 1.017.053 0-.312-.436 1.306.572 1.664z" class="cls-2"/>
            </g>
            <g id="Group_696" transform="translate(51.203 19.585)">
                <path id="Path_2302" d="M1.451 49.659c8.031-7.331 12.25-17.913 19.32-26.138A121.308 121.308 0 0 0 36.018 1.268c.5-.958-.951-1.805-1.443-.847a127.325 127.325 0 0 1-16.269 23.4C11.662 31.559 7.838 41.565.266 48.477c-.8.73.388 1.909 1.185 1.182z" class="cls-2"/>
            </g>
            <g id="Group_697" transform="translate(50.896 25.26)">
                <path id="Path_2303" d="M35.605.439c-3.952 9.2-11.721 16.386-17.582 24.279-3.091 4.166-5.7 8.6-8.875 12.726C6.1 41.412 4.97 48.475.409 51.1a.84.84 0 0 0 .847 1.45c2.746-1.584 4.2-4.913 5.656-7.558 3.064-5.572 6.979-10.392 10.15-15.867 5.69-9.842 15.392-17.15 19.99-27.839.422-.986-1.021-1.835-1.447-.847z" class="cls-2"/>
            </g>
            <g id="Group_698" transform="translate(52.525 29.106)">
                <path id="Path_2304" d="M35.279.276a73.533 73.533 0 0 0-6.46 9.186 174.353 174.353 0 0 1-11.8 15.944c-3.168 4-6.581 8.165-9.059 12.639C5.277 42.874 3.994 48.346.227 52.573c-.713.8.415 1.956 1.186 1.189.3-.3.6-.6.891-.894a.838.838 0 0 0-1.182-1.186c-.3.295-.6.6-.894.891.4.4.794.794 1.186 1.189 2.354-2.646 3.854-5.847 5.452-8.985 1.3-2.562 2.207-5.291 3.61-7.82 1.323-2.391 3.613-4.561 5.191-6.865 3.422-5 7.85-9.132 11.276-14.1 3.312-4.806 5.67-10.063 9.524-14.531.7-.817-.479-2.006-1.186-1.186z" class="cls-2"/>
            </g>
        </g>
        <g id="Group_705" transform="translate(-10.244 396.725)">
            <g id="Group_700">
                <path id="Path_2305" d="M25.007 1.677c14.611.2 29.112 6.9 29.075 23.258-.03 13.857-7.907 29.115-22.317 32.765-6.9 1.748-17.123-.894-21.959-5.938C4 45.7 1.739 37.754 1.725 29.563 1.7 15.524 10.087 2.688 25.007 1.677c1.072-.074 1.078-1.748 0-1.674C9.481 1.051 1.444 13.207.141 27.5c-.81 8.908 1.912 16.486 7.006 23.63 4.94 6.926 12.923 8.278 20.984 8.6 16.252.636 26.992-18.744 27.588-32.6.355-8.191-1.3-14.206-7.542-19.712C41.594 1.6 33.526.12 25.007 0a.838.838 0 0 0 0 1.677z" class="cls-2"/>
            </g>
            <g id="Group_701" transform="translate(5.971 10.159)">
                <path id="Path_2306" d="M.248 1.434c2.867 2.867 4.4 7.281 7.2 10.378 3.657 4.055 7.327 8.443 11.272 12.207 7.18 6.848 15.6 9.524 25.15 9.809a.838.838 0 0 0 0-1.674 36.112 36.112 0 0 1-27.105-12.569c-2.729-3.037-5.187-6.112-8.134-8.955-3.1-3-4.25-7.431-7.2-10.385A.839.839 0 0 0 .248 1.434z" class="cls-2"/>
            </g>
            <g id="Group_702" transform="translate(.983 .811)">
                <path id="Path_2307" d="M26.924.809c.034 7.354-4.24 13.325-10.177 17.441C11.753 21.716 6.08 21.846.581 23.615c-1.021.325-.586 1.942.445 1.611 6.192-1.986 12.686-2.207 18.04-6.564C24.831 13.973 28.632 8.307 28.6.809a.838.838 0 0 0-1.674 0z" class="cls-2"/>
            </g>
            <g id="Group_703" transform="translate(5.668 6.35)">
                <path id="Path_2308" d="M38.481.8C37.2 10.668 30.3 18.729 23.123 25.092 17.182 30.369 9.637 40.895.806 40.48c-1.079-.047-1.072 1.628 0 1.674 9.27.435 17.451-10.181 23.5-15.877C31.727 19.288 38.8 11.314 40.156.8c.144-1.073-1.538-1.06-1.675 0z" class="cls-2"/>
            </g>
            <g id="Group_704" transform="translate(31.833 28.915)">
                <path id="Path_2309" d="M22.7 0C15.4.4 9.155 4.442 4.624 10.048 1.124 14.375-1.34 23.139.8 28.521c.392.991 2.009.559 1.611-.445-2.234-5.633.907-13.757 4.37-18.044A22.67 22.67 0 0 1 22.7 1.676c1.072-.06 1.078-1.735 0-1.674z" class="cls-2"/>
            </g>
        </g>
        <g id="Group_706" transform="translate(290.483 498.999)">
            <path id="Path_2310" d="M17.339 9.479C14 14.254 8.786 17.255 8.853 23.631a.848.848 0 0 0 .837.837c5.07-.09 7.736-4.3 10.78-8 1.571-1.916 7.5-9.166 6.082-11.925-4.906-9.561-11.37-1.9-15.241 3.6C7.885 13.012 3.937 17.714.949 22.871c-1.671 2.88-1.149 4.7 1.664 6.256C7.081 31.6 9.6 29.71 13.7 27.355c6.085-3.493 12.776-7.5 18.017-12.173.807-.72-.382-1.9-1.182-1.185-6.122 5.459-14.1 9.966-21.266 13.935-2.056 1.139-9.2.693-6.875-4.213a22.274 22.274 0 0 1 2.145-3.309c2.3-3.218 4.678-6.393 6.979-9.618a64.38 64.38 0 0 1 6.242-8.111c2.673-2.716 8.46 1.045 6.277 4.789-1.269 2.18-2.4 4.387-3.794 6.5a38.983 38.983 0 0 1-5.03 5.807c-1.969 1.989-5.747 2.907-3.252-1.413 1.731-3 4.829-5.184 6.828-8.041.616-.887-.834-1.721-1.45-.844z" class="cls-2"/>
        </g>
        <g id="Group_714" transform="translate(37.547 175.251)">
            <g id="Group_707" transform="translate(14.707 .342)">
                <path id="Path_2311" d="M0 .81c.144 18.429.382 36.818.335 55.257a.838.838 0 0 0 1.674 0c.047-18.439-.19-36.828-.334-55.257A.838.838 0 0 0 0 .81z" class="cls-2"/>
            </g>
            <g id="Group_708" transform="translate(11.04)">
                <path id="Path_2312" d="M3.362.593a29.535 29.535 0 0 1-1.233 3.419c-.288.723-.6 1.433-.941 2.137-.148.308-.308.606-.472.9-.124.214-.409.4-.121.328a.838.838 0 0 0 .445 1.614c1.125-.281 1.708-2.21 2.107-3.114a33.478 33.478 0 0 0 1.829-4.838.838.838 0 0 0-1.614-.446z" class="cls-2"/>
            </g>
            <g id="Group_709" transform="translate(14.055 .966)">
                <path id="Path_2313" d="M.23 1.449c1.674 1.832 2.244 4.732 3.131 7 .389.995 2.01.563 1.614-.445-1-2.552-1.668-5.663-3.563-7.736C.679-.533-.5.656.23 1.449z" class="cls-2"/>
            </g>
            <g id="Group_710" transform="translate(0 40.837)">
                <path id="Path_2314" d="M.809 1.674c24.912.054 49.784.854 74.68 1V1h-.67a.838.838 0 0 0 0 1.674h.67a.838.838 0 0 0 0-1.674C50.593.854 25.721.054.809 0a.838.838 0 0 0 0 1.674z" class="cls-2"/>
            </g>
            <g id="Group_711" transform="translate(68.287 38.498)">
                <path id="Path_2315" d="M.417 1.555C1.7 2.248 2.815 3.2 4.1 3.9a23.452 23.452 0 0 0 3.55 1.088c1.025.342 1.463-1.276.442-1.614A22.827 22.827 0 0 1 4.51 2.218C3.371 1.605 2.4.724 1.261.108.31-.4-.534 1.042.417 1.555z" class="cls-2"/>
            </g>
            <g id="Group_712" transform="translate(69.335 41.857)">
                <path id="Path_2316" d="M7.045 1.964c.529-.074.754-.469.921-.921C8.2.393 7.5-.092 6.934.015 4.3.5 2.487 2.66.374 4.117c-.881.609-.044 2.06.844 1.447C3.194 4.2 4.932 2.084 7.38 1.629 7.042 1.287 6.7.943 6.352.6c.083-.083.164-.167.248-.25-1.065.15-.61 1.765.445 1.614z" class="cls-2"/>
            </g>
            <g id="Group_713" transform="translate(16.048 6.451)">
                <path id="Path_2317" d="M49.482 26.362c-8.161 0-8.9-7.893-9.5-14.27a40.968 40.968 0 0 0-.787-5.706c-.643-2.605-2.347-4.769-4.143-5.268a3.734 3.734 0 0 0-3.717 1.306c-2.6 2.92-3.938 6.621-5.241 10.2a16.23 16.23 0 0 0-.814 2.548c-.71 2.626-1.591 5.9-3.65 6.795a3.328 3.328 0 0 1-2.967-.281c-2.87-1.517-3.925-4.474-4.638-7.448A2.763 2.763 0 0 0 12.48 12.2a2.5 2.5 0 0 0-2.3.372C8 14.015 7.346 17.44 7.152 19.356c-.02.224-.027.559-.03.958-.037 2.19-.157 4.213-1.262 4.95a1.7 1.7 0 0 1-1.651.087 5.647 5.647 0 0 1-2.277-2.1A5 5 0 0 0 .29 21.613a.5.5 0 0 1 .425-.913 5.773 5.773 0 0 1 2.02 1.952 4.837 4.837 0 0 0 1.842 1.762c.469.184.66.054.727.01.754-.5.79-2.863.814-4.129 0-.432.013-.8.037-1.042.208-2.093.938-5.854 3.476-7.518a3.466 3.466 0 0 1 3.225-.469A3.752 3.752 0 0 1 15 14c.656 2.739 1.611 5.462 4.129 6.788a2.364 2.364 0 0 0 2.1.251c1.614-.707 2.461-3.845 3.081-6.135a16.754 16.754 0 0 1 .861-2.682c1.313-3.613 2.693-7.4 5.435-10.489C32.476-.141 34.2-.161 35.319.15c2.492.693 4.23 3.51 4.846 5.991A41.834 41.834 0 0 1 40.979 12c.633 6.735 1.286 13.72 9.062 13.345a.516.516 0 0 1 .526.479.5.5 0 0 1-.479.526c-.208.009-.409.012-.606.012z" class="cls-2"/>
            </g>
        </g>
        <g id="Group_727" transform="rotate(27 -656.877 691.036)">
            <g id="Group_715" transform="translate(0 7.934)">
                <path id="Path_2318" d="M1.075 9.673c3.881-1.7 5.817-5 8.255-8.272L7.877.7c-.854 4.754-1.243 10.464 1.034 14.888.492.958 1.872.007 1.386-.941C8.251 10.678 8.761 5.25 9.521 1.01c.137-.78-.934-1.4-1.45-.71C5.847 3.277 4.079 6.535.516 8.093c-.981.432-.432 2.013.559 1.581z" class="cls-2"/>
            </g>
            <g id="Group_716" transform="translate(14.858 6.632)">
                <path id="Path_2319" d="M1.683 3.655c.1-.332 1.664-3.329 2.465-1.664a6.048 6.048 0 0 1 .392 2.07A8.3 8.3 0 0 1 4.174 8C3.052 10.591.517 11.729.129 14.723a.849.849 0 0 0 1.1.948c2.549-.633 4.792-2.053 7.337-2.686 1.045-.261.482-1.839-.556-1.584-2.55.636-4.79 2.056-7.339 2.689q.548.477 1.1.948c.355-2.726 2.984-4.176 4.042-6.617a10.814 10.814 0 0 0 .2-5.948c-.961-4.236-5-2.415-5.974.864-.309 1.038 1.335 1.343 1.644.318z" class="cls-2"/>
            </g>
            <g id="Group_717" transform="translate(25.542 5.201)">
                <path id="Path_2320" d="M1.671 3.948A2.837 2.837 0 0 1 3.03 1.764c1.069-.469.854.566.81 1-.087.81-.315 1.614-.475 2.411a.844.844 0 0 0 1.577.532c.988-1.751 1.406.023 1.554 1.229.2 1.641-.3 3.466-2.281 3.007-.1.549-.207 1.1-.318 1.641.291.06.586.117.881.171a.838.838 0 0 0 .315-1.644c-.295-.057-.586-.11-.878-.167A.836.836 0 0 0 3.9 11.59c3.386.79 4.648-2.468 4.193-5.295-.472-2.93-2.964-4.313-4.652-1.323.522.174 1.048.348 1.57.526C5.264 4.259 6.4.917 4.568.22 2.1-.717.539 1.513.027 3.633-.228 4.684 1.416 5 1.671 3.948z" class="cls-2"/>
            </g>
            <g id="Group_718" transform="translate(36.104 2.933)">
                <path id="Path_2321" d="M.007.871C.4 4.139.265 7.8 1.973 10.72a.849.849 0 0 0 1.447-.1c.938-1.6 2.515-2.351 3.1-4.179-.549-.107-1.095-.211-1.644-.315-.958 3.218-.017 6.865 1.42 9.8.472.954 2.056.412 1.581-.559-1.326-2.7-2.244-5.954-1.356-8.921C6.836 5.4 5.2 5.12 4.88 6.128 4.4 7.622 2.71 8.53 1.919 9.883c.479-.037.961-.07 1.443-.1C1.829 7.157 2.027 3.674 1.675.74 1.548-.328-.123-.2.007.871z" class="cls-2"/>
            </g>
            <g id="Group_719" transform="translate(45.89 2.31)">
                <path id="Path_2322" d="M1.259.656C.737 3.593.546 6.574.017 9.514c-.191 1.1 1.316 1.306 1.648.315.522-1.561 1.591-1.7 2.773-.743a3.489 3.489 0 0 1 1 1.463 1.944 1.944 0 0 1 .1.928c-.151.814-.777 1.1-1.879.861-.539-.938-1.919.01-1.386.941.938 1.628 3.212 1.065 4.3-.141 1.031-1.145.676-2.78.05-4-1.667-3.258-5.491-2.96-6.606.376.549.1 1.1.211 1.648.315.525-2.937.713-5.918 1.242-8.858A.839.839 0 0 0 1.259.656z" class="cls-2"/>
            </g>
            <g id="Group_720" transform="translate(47.491 1.406)">
                <path id="Path_2323" d="M1.309 2.936a6.14 6.14 0 0 1 4.176-1.225C6.55 1.871 6.868.23 5.8.066A7.876 7.876 0 0 0 .365 1.55c-.9.593.04 1.976.944 1.386z" class="cls-2"/>
            </g>
            <g id="Group_721" transform="translate(57.639 3.773)">
                <path id="Path_2324" d="M5.062 1.571A4.787 4.787 0 0 0 3.153.077a.842.842 0 0 0-1 .2C.6 2.505.213 5.7.045 8.342c-.121 1.922-.171 5.5 2.176 6.236 2.472.777 4.963-1.872 4.434-4.28-.846-3.835-4.59-2.94-6.355-.372-.606.877.65 1.989 1.259 1.1.641-.919 1.688-2.426 2.91-1.458 1.186.934.482 2.686-.65 3.245-1.631.8-1.962-1.075-2.09-2.284C1.442 7.86 1.82 3.66 3.414 1.38c-.338.064-.67.134-1 .2a2.318 2.318 0 0 1 1.266.934c.69.817 2.08-.114 1.387-.941z" class="cls-2"/>
            </g>
            <g id="Group_722" transform="translate(66.601 2.836)">
                <path id="Path_2325" d="M.661 1.657c1.959.278 3.911-.064 5.867.214.033-.553.06-1.105.094-1.658-4.457.847-4.4 10.224-3.074 13.392a.84.84 0 0 0 1.607-.121l.167-.877a.838.838 0 0 0-1.644-.315c-.053.291-.11.583-.167.877.539-.044 1.075-.08 1.611-.124C4.3 11.074 3.86 2.431 6.753 1.882c.867-.164 1.1-1.51.09-1.654C4.884-.051 2.932.288.976.01-.089-.141-.41 1.5.661 1.657z" class="cls-2"/>
            </g>
            <g id="Group_723" transform="translate(67.957 9.263)">
                <path id="Path_2326" d="M1.111 2.279a27.577 27.577 0 0 1 3.55-.6c1.061-.143.939-1.814-.135-1.67A31.169 31.169 0 0 0 .555.7c-1.042.28-.479 1.857.556 1.579z" class="cls-2"/>
            </g>
            <g id="Group_724" transform="translate(76.039 2.239)">
                <path id="Path_2327" d="M4.331 7.1c.469-1.658 2-2.7 1.909-4.558A2.758 2.758 0 0 0 3.718 0C.721.088-.83 3.742.453 6.176a4.555 4.555 0 0 0 2.89 1.845c1.068.325 2.984.388 2.85 1.9-.3 3.386-6.433.754-2.736-1.932.87-.633-.064-2.023-.941-1.386-2.19 1.594-2.8 4.534-.168 6.095a3.538 3.538 0 0 0 5.516-2.764C8.139 6.849 4.6 6.943 2.64 5.975c-1.882-.928-.924-3.469.61-4.2.686-.328 1.038.2 1.273.784S4.267 3.825 3.99 4.3a10.628 10.628 0 0 0-1.3 2.478c-.298 1.043 1.35 1.347 1.641.322z" class="cls-2"/>
            </g>
            <g id="Group_725" transform="translate(85.128 1.62)">
                <path id="Path_2328" d="M3.46.707L2.147.456a.849.849 0 0 0-.911.452c-.844 1.577-2.18 4.531-.228 5.78.924.6 2.317-.117 2.843-.9.949-1.427 1.042-3.172 1.32-4.81L3.56 1.1c.593 1.52 2.636 11.309-.506 10.017.154.3.3.606.455.911.054-.295.111-.586.167-.877a.838.838 0 0 0-1.644-.315c-.057.291-.11.583-.171.877a.832.832 0 0 0 .455.908C8.54 15.184 6.2 3.269 5.138.54a.843.843 0 0 0-1.611.124c-.184 1.081-.188 4.222-1.567 4.507-.733.151.583-3.155.78-3.526-.3.154-.606.3-.911.455.442.08.881.167 1.316.251A.837.837 0 0 0 3.46.707z" class="cls-2"/>
            </g>
            <g id="Group_726" transform="translate(93.188)">
                <path id="Path_2329" d="M1.254 2.936a15.317 15.317 0 0 0 .231 7.686c.881 2.411 3.851 2.371 5.294.462 1.681-2.22 1.179-6.329.06-8.68C5.464-.49 1.569-.959.1 2.032a.838.838 0 0 0 1.5.743c.82-1.661 2.438-1.313 3.489-.07a5.313 5.313 0 0 1 .837 2.358c.285 1.53.552 4.307-.851 5.4C2.011 12.852 2.664 4.54 2.9 3.251a.838.838 0 0 0-1.644-.315z" class="cls-2"/>
            </g>
        </g>
        <g id="Group_759" transform="translate(209.125)">
            <g id="Group_728" transform="translate(30.827 6.913)">
                <path id="Path_2330" d="M1.718 1.389c-6.041 4.37 5.693 10.418 7 4.725a5.526 5.526 0 0 0-1.923-4.99 4.232 4.232 0 0 0-5.69-.05c-.85.666.342 1.842 1.182 1.186C4.4.6 6.888 2.772 7.119 5.056 7.5 8.883-1 5.411 2.565 2.835c.867-.626.03-2.08-.847-1.447z" class="cls-2"/>
            </g>
            <g id="Group_729" transform="translate(36.16 16.237)">
                <path id="Path_2331" d="M.021 1.046A34.766 34.766 0 0 1 .919 6.6c.053 1.343.79 2.585.877 3.881a7.317 7.317 0 0 0 1.051 3.741.833.833 0 0 0 1.182 0 1.323 1.323 0 0 0 .312-.891c.083-1.075-1.591-1.068-1.674 0 .063-.1.12-.2.181-.295H4.03c-.509-.65-.5-2.709-.831-3.724-.91-2.77-.957-5.854-1.563-8.712C1.408-.454-.2-.005.021 1.046z" class="cls-2"/>
            </g>
            <g id="Group_730" transform="translate(36.075 33.624)">
                <path id="Path_2332" d="M1.382 1.469a4.264 4.264 0 0 0-.793 5.345c1.272 2.173 3.834.887 4.986-.626 1.269-1.668 1.778-4.31-.09-5.7C3.593-.912 1.021.944.552 2.863c-.258 1.052 1.356 1.5 1.611.445.237-.941 1.266-1.946 2.31-1.467 1.179.543.345 2.361-.094 3.125S2.635 7 1.942 5.813c-.408-.7-.435-2.354.285-2.9.851-.643.02-2.1-.844-1.447z" class="cls-2"/>
            </g>
            <g id="Group_731" transform="translate(38.272 44.837)">
                <path id="Path_2333" d="M.11.8c-.4 4.31.439 8.724.342 13.077-.024 1.055-.409 4.317 1.39 4.28a.838.838 0 0 0 0-1.674c.69-.017.288-1.072.278-1.9-.01-1.142.05-2.287.09-3.429.123-3.47-.747-6.87-.426-10.354C1.888-.273.21-.263.11.8z" class="cls-2"/>
            </g>
            <g id="Group_732" transform="translate(34.723 62.184)">
                <path id="Path_2334" d="M.118 2.433c-.546 2.415.831 4.749 3.463 4.685 1.771-.044 3.58-1.185 3.335-3.148A5.043 5.043 0 0 0 4.351.313a2.22 2.22 0 0 0-3.342 1.675c-.231 1.052 1.387 1.5 1.614.445a2.228 2.228 0 0 1 .2-.6.5.5 0 0 1 .151-.164.931.931 0 0 1 .7.184 3.486 3.486 0 0 1 1.53 2.026c.248.864-.285 1.3-1.216 1.51-1.678.368-2.609-.975-2.261-2.515C1.97 1.827.353 1.381.118 2.433z" class="cls-2"/>
            </g>
            <g id="Group_733" transform="translate(20.481 38.534)">
                <path id="Path_2335" d="M10.871.434C9.917 2.49 6.585 3.5 4.733 4.66A15.953 15.953 0 0 0 .155 8.917c-.629.877.824 1.715 1.443.844A17.479 17.479 0 0 1 7.8 4.818c1.674-.9 3.674-1.721 4.514-3.54.456-.978-.987-1.822-1.443-.844z" class="cls-2"/>
            </g>
            <g id="Group_734" transform="translate(14.715 45.01)">
                <path id="Path_2336" d="M0 2.862a5.181 5.181 0 0 0 .606 2.967A4.965 4.965 0 0 0 3.195 7.44c2.063.583 3.771-1.333 4.126-3.175A3.465 3.465 0 0 0 4.072.006 3.224 3.224 0 0 0 .9 3.756c.131 1.055 1.805 1.068 1.674 0-.121-.948.2-1.942 1.283-2.07 1.4-.167 2.029 1.2 1.8 2.384A1.884 1.884 0 0 1 3.4 5.759a3.667 3.667 0 0 1-1.483-.975 3.764 3.764 0 0 1-.241-1.922.838.838 0 0 0-1.676 0z" class="cls-2"/>
            </g>
            <g id="Group_735" transform="translate(18.7 28.756)">
                <path id="Path_2337" d="M1.708 15.991C1.4 10.817 3.336 5.931 3.5.808c.03-1.079-1.644-1.075-1.678 0-.161 5.127-2.1 10-1.788 15.184.067 1.072 1.741 1.078 1.674 0z" class="cls-2"/>
            </g>
            <g id="Group_736" transform="translate(16.893 20.46)">
                <path id="Path_2338" d="M.619 2.433A3.54 3.54 0 0 0 1.637 7.4a3.5 3.5 0 0 0 5.1-1.38A4.05 4.05 0 0 0 5.421.534C3.4-.765 1.111.474.17 2.433c-.462.968.981 1.818 1.447.844.536-1.119 1.517-2 2.793-1.386a2.339 2.339 0 0 1 .884 3.282 1.88 1.88 0 1 1-3.229-1.9c.6-.9-.854-1.741-1.447-.844z" class="cls-2"/>
            </g>
            <g id="Group_737" transform="translate(22.28 12.232)">
                <path id="Path_2339" d="M1.457 10.336c3.091-2.729 5.4-6.2 8.486-8.931.81-.717-.382-1.9-1.185-1.186C5.666 2.949 3.365 6.422.271 9.151c-.81.717.378 1.9 1.186 1.186z" class="cls-2"/>
            </g>
            <g id="Group_738" transform="translate(7.549 24.706)">
                <path id="Path_2340" d="M8.452.005a3.116 3.116 0 0 0-1.815.63 8.3 8.3 0 0 1-2.428 1.038A12.816 12.816 0 0 0 .267 3.82c-.8.723.385 1.906 1.186 1.186a11.022 11.022 0 0 1 3.2-1.718c.623-.251 1.259-.465 1.905-.66.7-.208 1.139-.871 1.892-.948 1.062-.111 1.072-1.785 0-1.674z" class="cls-2"/>
            </g>
            <g id="Group_739" transform="translate(0 29.61)">
                <path id="Path_2341" d="M1.119.255a2.934 2.934 0 0 0-.981 3 3.047 3.047 0 0 0 2.451 1.739A4.5 4.5 0 0 0 7.907.848c.113-1.072-1.561-1.062-1.675 0A2.787 2.787 0 0 1 3.1 3.38c-1.4-.074-1.74-.955-.8-1.939C3.054.66 1.869-.525 1.119.255z" class="cls-2"/>
            </g>
            <g id="Group_740" transform="translate(.395 27.939)">
                <path id="Path_2342" d="M7.1 1.35A5.871 5.871 0 0 0 3.333.024C1.876.2.925 1.41.148 2.542c-.613.894.841 1.728 1.443.847.456-.66 1.078-1.607 1.952-1.718.957-.12 1.957.637 2.71 1.129.907.586 1.747-.864.847-1.45z" class="cls-2"/>
            </g>
            <g id="Group_741" transform="translate(5.766 34.561)">
                <path id="Path_2343" d="M.432 1.533c1.273.586 1.544 1.788 2.254 2.86.69 1.035 1.38 2.063 2.117 3.064A14.61 14.61 0 0 0 9.367 11.8c.941.519 1.788-.924.844-1.45C7.843 9.048 6.28 6.741 4.8 4.551 3.728 2.963 3.115.937 1.28.087.308-.366-.545 1.078.432 1.533z" class="cls-2"/>
            </g>
            <g id="Group_742" transform="translate(42.876 27.407)">
                <path id="Path_2344" d="M.806 4.783c4.384.251 8.054-2.518 12.277-3.155 1.068-.161.616-1.775-.442-1.618C8.582.624 5 3.346.806 3.109c-1.078-.06-1.072 1.614 0 1.674z" class="cls-2"/>
            </g>
            <g id="Group_743" transform="translate(54.437 22.863)">
                <path id="Path_2345" d="M.464 4.916c-.3 4.481 5.6 4.8 7.475 1.457C9.178 4.166 7.973 1.808 5.977.63A4.044 4.044 0 0 0 2.531.224C1.241.737.819 2.066.133 3.155c-.576.918.874 1.755 1.447.844a7.533 7.533 0 0 1 1.32-2.09c.75-.579 1.832-.067 2.525.342a2.513 2.513 0 0 1 .834 3.66A2.97 2.97 0 0 1 3.6 7c-1.15-.078-1.525-1.083-1.461-2.084.077-1.078-1.6-1.072-1.674 0z" class="cls-2"/>
            </g>
            <g id="Group_744" transform="translate(58.938 10.004)">
                <path id="Path_2346" d="M1.626 10.407C2.212 7.1 4.192 4.215 4.336.806c.05-1.078-1.624-1.072-1.674 0C2.524 4.031.568 6.817.016 9.962c-.191 1.055 1.427 1.507 1.611.445z" class="cls-2"/>
            </g>
            <g id="Group_745" transform="translate(60.697 3.492)">
                <path id="Path_2347" d="M1.019 2.432a4.084 4.084 0 0 0 1.125 5.412 2.95 2.95 0 0 0 2.956-.13 3.475 3.475 0 0 0 1.458-2.395A4.968 4.968 0 0 0 4.867.5C2.968-.863 1.1.812.125 2.432a.836.836 0 0 0 1.443.844c.472-.78 1.323-2.056 2.351-1.4a3.175 3.175 0 0 1 1.051 2.6c0 1.048-.666 2.358-1.905 1.962-1.182-.378-1.058-2.351-.6-3.165.526-.941-.924-1.785-1.447-.844z" class="cls-2"/>
            </g>
            <g id="Group_746" transform="translate(66.929 4.174)">
                <path id="Path_2348" d="M1.459 2.765A5.229 5.229 0 0 1 3.964 2.1c.978-.144 1.966-.234 2.93-.459 1.055-.246.606-1.86-.442-1.616C4.5.477 1.877.2.277 1.579c-.821.707.368 1.885 1.182 1.186z" class="cls-2"/>
            </g>
            <g id="Group_747" transform="translate(72.745)">
                <path id="Path_2349" d="M.264 6.045C2.886 8.453 8 6.725 7.22 2.749A3.431 3.431 0 0 0 4.279.037 4.092 4.092 0 0 0 .133 2.351c-.512.951.934 1.8 1.447.847a2.552 2.552 0 0 1 2.086-1.534 1.856 1.856 0 0 1 1.849 1.142c.891 2.418-2.558 3.443-4.065 2.053-.794-.726-1.983.456-1.186 1.186z" class="cls-2"/>
            </g>
            <g id="Group_748" transform="translate(66.964 14.433)">
                <path id="Path_2350" d="M.242 1.437a35.5 35.5 0 0 1 4.782 6.527.837.837 0 0 0 1.443-.847A37.4 37.4 0 0 0 1.424.252C.67-.522-.512.664.242 1.437z" class="cls-2"/>
            </g>
            <g id="Group_749" transform="translate(70.991 19.756)">
                <path id="Path_2351" d="M.879 4.449A3.143 3.143 0 0 0 2.486 7.3a4.3 4.3 0 0 0 3.533-.107 3.179 3.179 0 0 0 1.969-4A4.778 4.778 0 0 0 4.68.106C2.651-.4.986.98.1 2.688c-.5.958.948 1.805 1.447.847.539-1.041 1.3-1.952 2.565-1.842a3 3 0 0 1 2.12 1.631 1.5 1.5 0 0 1-.258 2c-1.189.9-3.362 1.025-3.422-.871C2.52 3.374.846 3.371.879 4.449z" class="cls-2"/>
            </g>
            <g id="Group_750" transform="translate(79.966 13.943)">
                <path id="Path_2352" d="M1 9.285A59.429 59.429 0 0 0 14.6 1.61c.847-.643.014-2.1-.847-1.443a57.86 57.86 0 0 1-13.2 7.5C-.427 8.073 0 9.694 1 9.285z" class="cls-2"/>
            </g>
            <g id="Group_751" transform="translate(93.313 9.752)">
                <path id="Path_2353" d="M.553 3.761c-1.35 1.815.09 3.6 2.11 3.64 2.22.05 4.129-2.147 4.293-4.256A3.165 3.165 0 0 0 3.929.017a3.673 3.673 0 0 0-3.9 3.051c-.238 1.052 1.377 1.5 1.611.445a2.056 2.056 0 0 1 1.887-1.842 1.653 1.653 0 0 1 1.738 1.156C5.543 3.922 4.23 5.3 3.306 5.62A1.807 1.807 0 0 1 1.9 5.556c-.442-.234-.114-.656.1-.948.65-.867-.807-1.7-1.443-.847z" class="cls-2"/>
            </g>
            <g id="Group_752" transform="translate(81.728 25.586)">
                <path id="Path_2354" d="M.581 1.66C3.725 2.7 4.61 6.714 7.724 7.913 8.735 8.3 9.167 6.68 8.169 6.3 6.706 5.733 5.745 4.145 4.8 2.973A8.22 8.22 0 0 0 1.023.046C0-.292-.441 1.322.581 1.66z" class="cls-2"/>
            </g>
            <g id="Group_753" transform="translate(89.705 32.321)">
                <path id="Path_2355" d="M.058 3.275a3.781 3.781 0 0 0 1.32 3.794 4.258 4.258 0 0 0 3.925.3c1.852-.566 3.774-2 3.148-4.176A4.9 4.9 0 0 0 4.767.073 3.139 3.139 0 0 0 .949 2.826c-.181 1.055 1.437 1.51 1.614.445.177-1.041.7-1.731 1.658-1.6a3.507 3.507 0 0 1 2.462 1.62c.539.908 0 1.621-1.015 2.147a4.233 4.233 0 0 1-2.7.556 1.894 1.894 0 0 1-1.3-2.274C1.82 2.662.2 2.206.058 3.275z" class="cls-2"/>
            </g>
            <g id="Group_754" transform="translate(73.199 30.095)">
                <path id="Path_2356" d="M1.351.809A28.1 28.1 0 0 1 .045 9.07c-.332 1.035 1.282 1.47 1.611.445A29.637 29.637 0 0 0 3.025.809a.838.838 0 0 0-1.674 0z" class="cls-2"/>
            </g>
            <g id="Group_755" transform="translate(70.9 37.784)">
                <path id="Path_2357" d="M.11 2.275c-.569 2 1.152 4.464 3.315 4.22 1.591-.178 3.1-.948 3.051-2.766A4.415 4.415 0 0 0 4.487.353C3.114-.548 1.794.4 1.45 1.826c-.255 1.052 1.359 1.5 1.611.445a2.223 2.223 0 0 1 .184-.519c.05-.084.1-.1 0-.064.054-.02.241-.037.044-.02.211-.017-.164-.047.05 0 .157.03.157.037.375.181a2.945 2.945 0 0 1 1.068 1.729 1.142 1.142 0 0 1-.067.68 1.316 1.316 0 0 1-.9.5 1.532 1.532 0 0 1-1.648-.429 1.773 1.773 0 0 1-.439-1.6.838.838 0 0 0-1.618-.454z" class="cls-2"/>
            </g>
            <g id="Group_756" transform="translate(56.932 32.775)">
                <path id="Path_2358" d="M.2.811C.153 5.53-.738 10.754 1.66 15.074c.522.944 1.969.1 1.443-.847C.886 10.235 1.827 5.182 1.877.811A.838.838 0 0 0 .2.811z" class="cls-2"/>
            </g>
            <g id="Group_757" transform="translate(56.542 46.574)">
                <path id="Path_2359" d="M.178 4.647A2.7 2.7 0 0 0 .553 7.3a3.033 3.033 0 0 0 2.756.6c2.04-.425 3.239-3.228 3.419-5.06A2.521 2.521 0 0 0 3.581.093a4.629 4.629 0 0 0-2.988 4.33C.56 5.5 2.234 5.5 2.268 4.423a3.123 3.123 0 0 1 1.35-2.515c.8-.536 1.246-.144 1.433.707.228 1.052-.8 2.548-1.484 3.232a1.406 1.406 0 0 1-1.242.422c-.8-.04-.723-.522-.536-1.175a.836.836 0 0 0-1.611-.447z" class="cls-2"/>
            </g>
            <g id="Group_758" transform="translate(43.724 39.917)">
                <path id="Path_2360" d="M.431 1.535C4.56 3.474 7.789 6.7 10.977 9.888A.839.839 0 0 0 12.162 8.7C8.884 5.424 5.528 2.085 1.275.089.307-.37-.543 1.077.431 1.535z" class="cls-2"/>
            </g>
        </g>
        <g id="Group_769" transform="translate(6 88.791)">
            <g id="Group_760" transform="translate(0 32.864)">
                <path id="Path_2361" d="M1.874.691c-.151-.147-.3-.3-.449-.445C1.09.684.749 1.123.411 1.562c4.534 2.609 8.513 6.132 13.6 7.676 1.038.315 1.474-1.3.445-1.614C9.519 6.123 5.655 2.647 1.258.115A.84.84 0 0 0 .243 1.428c.151.151.3.3.445.449A.839.839 0 0 0 1.874.691z" class="cls-2"/>
            </g>
            <g id="Group_761" transform="translate(4.017 26.194)">
                <path id="Path_2362" d="M3.125.81C2.911 8.519.215 15.87 0 23.582a.838.838 0 0 0 1.674 0C1.889 15.873 4.585 8.522 4.8.81a.838.838 0 0 0-1.674 0z" class="cls-2"/>
            </g>
            <g id="Group_762" transform="translate(18.291 21.271)">
                <path id="Path_2363" d="M.126 1.243c2.18 3.6 3.627 7.568 5.807 11.165a.837.837 0 0 0 1.443-.847C5.2 7.967 3.75 4 1.573.4a.838.838 0 0 0-1.447.844z" class="cls-2"/>
            </g>
            <g id="Group_763" transform="translate(16.1 25.22)">
                <path id="Path_2364" d="M1.233 6.974c2.907-1.9 6.172-3.242 8.928-5.362.844-.646.01-2.1-.844-1.447C6.561 2.289 3.293 3.632.386 5.524c-.9.589-.06 2.036.847 1.45z" class="cls-2"/>
            </g>
            <g id="Group_764" transform="translate(25.939 14.965)">
                <path id="Path_2365" d="M.372 1.6c3.144 2.2 5.529 5.747 9.8 5.469 1.072-.067 1.078-1.741 0-1.674-3.819.251-6.13-3.262-8.956-5.244C.332-.469-.506.984.372 1.6z" class="cls-2"/>
            </g>
            <g id="Group_765" transform="translate(33.496 10.551)">
                <path id="Path_2366" d="M.022 1.048c1.614 7.485 4.94 16.383 1.423 23.911-.455.975.988 1.825 1.447.847C6.656 17.746 3.371 8.66 1.636.6 1.408-.452-.206-.007.022 1.048z" class="cls-2"/>
            </g>
            <g id="Group_766" transform="translate(37.506)">
                <path id="Path_2367" d="M1.674 2v-.9c-.208.271-.408.539-.616.81C5.157.568 4.705 6.485 4.049 8.92a.844.844 0 0 0 .807 1.062c2.07-.218 3.607-1.926 4.742-3.54.62-.887-.83-1.725-1.447-.847-.733 1.045-1.926 2.569-3.3 2.713.268.352.536.707.807 1.058 1-3.714.6-10.921-5.05-9.065A.846.846 0 0 0 0 1.1V2a.838.838 0 0 0 1.674 0z" class="cls-2"/>
            </g>
            <g id="Group_767" transform="translate(50.059 6.475)">
                <path id="Path_2368" d="M1.208 9.2c3.255-2.378 6.125-5.225 9.377-7.6.864-.63.03-2.083-.844-1.447C6.486 2.532 3.616 5.375.364 7.75c-.864.63-.03 2.083.844 1.447z" class="cls-2"/>
            </g>
            <g id="Group_768" transform="translate(53.102 10.942)">
                <path id="Path_2369" d="M1.46 9.062c2.9-2.508 5.656-5.2 8.764-7.461.861-.626.027-2.08-.847-1.443C6.152 2.5 3.289 5.278.275 7.877c-.817.71.372 1.889 1.186 1.186z" class="cls-2"/>
            </g>
        </g>
        <g id="Group_790" transform="translate(106.798 37.148)">
            <g id="Group_786" transform="translate(0 .032)">
                <path id="Path_2385" d="M.1 1.218q3 5.681 6 11.369a.838.838 0 0 0 1.48-.784q-3-5.681-6-11.369a.839.839 0 0 0-1.48.784z" class="cls-2"/>
            </g>
            <g id="Group_787" transform="translate(.029)">
                <path id="Path_2386" d="M.208 1.431C3.138 4.9 9.193 5.014 13.326 5.778c1.048.194 1.554-1.4.5-1.6-2.054-.378-4.117-.678-6.15-1.116C5.539 2.6 2.9 2.027 1.43.286.73-.542-.489.61.208 1.431z" class="cls-2"/>
            </g>
            <g id="Group_788" transform="translate(6.222 4.184)">
                <path id="Path_2387" d="M1.673 8.763C3.016 5.779 6.151 3.814 8.09 1.235 8.74.371 7.313-.506 6.67.351 4.607 3.09 1.509 5.073.076 8.271c-.442.981 1.165 1.467 1.6.492z" class="cls-2"/>
            </g>
            <g id="Group_789" transform="translate(9.487 8.261)">
                <path id="Path_2388" d="M.347 1.589C2.6 3.32 4.674 5.279 6.968 6.957c.874.636 1.755-.787.887-1.423C5.558 3.856 3.485 1.9 1.228.169.371-.488-.5.939.347 1.589z" class="cls-2"/>
            </g>
        </g>
        <g id="Group_795" transform="translate(26.61 298.836)">
            <g id="Group_791" transform="translate(.335)">
                <path id="Path_2389" d="M9.209.254Q4.724 4.86.238 9.463a.84.84 0 0 0 1.2 1.172q4.48-4.606 8.971-9.213a.839.839 0 0 0-1.2-1.168z" class="cls-2"/>
            </g>
            <g id="Group_792" transform="translate(8.185 .033)">
                <path id="Path_2390" d="M1.229.4c-2.4 3.855-.643 9.651-.1 13.817.141 1.055 1.815 1.048 1.678-.023-.274-2.066-.623-4.116-.83-6.185-.221-2.177-.486-4.866.72-6.8C3.262.294 1.8-.513 1.229.4z" class="cls-2"/>
            </g>
            <g id="Group_793" transform="translate(0 9.588)">
                <path id="Path_2391" d="M.81 1.68c3.252.359 6.09 2.74 9.139 3.788 1.021.355 1.42-1.276.405-1.624C7.113 2.728 4.273.388.79.006-.285-.111-.248 1.566.81 1.68z" class="cls-2"/>
            </g>
            <g id="Group_794" transform="translate(1.243 11.57)">
                <path id="Path_2392" d="M3.11.589C2.159 3.268.937 5.84.046 8.542c-.338 1.028 1.289 1.427 1.621.405C2.561 6.248 3.783 3.67 4.734.991 5.1-.027 3.472-.423 3.11.589z" class="cls-2"/>
            </g>
        </g>
        <g id="Group_800" transform="translate(326.898 228.45)">
            <g id="Group_796" transform="translate(.335)">
                <path id="Path_2393" d="M9.208.254Q4.727 4.86.239 9.467a.836.836 0 0 0 1.2 1.165q4.486-4.606 8.975-9.209A.84.84 0 0 0 9.208.254z" class="cls-2"/>
            </g>
            <g id="Group_797" transform="translate(8.184 .033)">
                <path id="Path_2394" d="M1.228.4c-2.4 3.858-.64 9.655-.1 13.821.141 1.055 1.815 1.045 1.678-.02-.271-2.07-.623-4.119-.83-6.192-.221-2.173-.485-4.863.723-6.8C3.264.295 1.8-.512 1.228.4z" class="cls-2"/>
            </g>
            <g id="Group_798" transform="translate(0 9.591)">
                <path id="Path_2395" d="M.812 1.68c3.251.355 6.088 2.733 9.136 3.788 1.021.348 1.42-1.279.405-1.631C7.114 2.725 4.271.384.789.006-.283-.111-.25 1.563.812 1.68z" class="cls-2"/>
            </g>
            <g id="Group_799" transform="translate(1.241 11.571)">
                <path id="Path_2396" d="M3.11.585C2.159 3.264.937 5.84.046 8.542c-.338 1.028 1.289 1.427 1.624.405C2.561 6.245 3.787 3.669 4.738.99 5.1-.024 3.472-.423 3.11.585z" class="cls-2"/>
            </g>
        </g>
        <g id="Group_805" transform="translate(271.048 618.89)">
            <g id="Group_801" transform="translate(.335)">
                <path id="Path_2397" d="M9.211.255Q4.725 4.862.239 9.465a.837.837 0 0 0 1.2 1.165q4.486-4.6 8.972-9.209a.836.836 0 0 0-1.2-1.166z" class="cls-2"/>
            </g>
            <g id="Group_802" transform="translate(8.185 .031)">
                <path id="Path_2398" d="M1.23.4c-2.4 3.861-.646 9.655-.1 13.821.137 1.058 1.815 1.048 1.674-.023-.268-2.066-.616-4.116-.827-6.189-.218-2.173-.482-4.859.723-6.8C3.263.295 1.8-.512 1.23.4z" class="cls-2"/>
            </g>
            <g id="Group_803" transform="translate(0 9.589)">
                <path id="Path_2399" d="M.812 1.681c3.252.355 6.088 2.736 9.139 3.784 1.018.352 1.42-1.276.4-1.624C7.114 2.725 4.271.385.788.006-.283-.114-.25 1.563.812 1.681z" class="cls-2"/>
            </g>
            <g id="Group_804" transform="translate(1.241 11.569)">
                <path id="Path_2400" d="M3.114.585C2.163 3.268.933 5.84.046 8.542c-.338 1.028 1.289 1.427 1.624.4C2.564 6.245 3.787 3.669 4.738.99 5.1-.024 3.472-.423 3.114.585z" class="cls-2"/>
            </g>
        </g>
    </g>
</svg>
