<svg xmlns="http://www.w3.org/2000/svg" width="262.452" height="375.075" viewBox="0 0 262.452 375.075">
  <g id="Art_work_SCG" data-name="Art work SCG" transform="translate(11576.999 4971.253)">
    <path id="Intersection_66" data-name="Intersection 66" d="M10442,5061.908c.585-2.721,1.511-5.349,2.175-8.053a11.287,11.287,0,0,0-3.572-.691c-.938,0-1.215-1.292-.535-1.6a.963.963,0,0,1,.111-.171q3.637-4.615,7.271-9.224c-11.3,1.118-22.618,2.048-33.94,3.092a.849.849,0,0,1-.92-.746c-.875-7.45-3.045-14.633-4.112-22.017-1.213-8.4-1.426-16.887-2.217-25.331-.535-.506-.2-1.634.683-1.442,7.573,1.666,13.913,6.163,21.41,8.156,8.952,2.383,16.953,6.271,25.7,9.137,9.271,3.04,17.831,7.262,26.881,10.763,6.646,2.57,14.361,4.487,20.264,8.578a.692.692,0,0,1,.29.838.913.913,0,0,1-.683,1.089,431.966,431.966,0,0,1-47.771,7.313q-1.7.182-3.4.351a.958.958,0,0,1-.056.161.644.644,0,0,1-.039.082c-.957,2.048-.422,4.663.019,6.783.427,2.038.988,4.041,1.471,6.065a.664.664,0,0,1-.242.736.686.686,0,0,1-.7.195,31.056,31.056,0,0,1-4.345-1.534c-.653,2.576-1.519,5.1-2.085,7.7a.843.843,0,0,1-.762.68.919.919,0,0,1-.1.005A.742.742,0,0,1,10442,5061.908Zm.1-10.252c2.388.417,4.618,1.568,6.936,2.3-.746-2.723-1.8-5.913-1.782-8.842Q10444.676,5048.388,10442.1,5051.656Zm-31.958-29.332a211.353,211.353,0,0,1,4.012,21.2l.712-.063c-.023-1.018.074-2.038-.016-3.053a.838.838,0,0,1,1.666-.177c.09,1.026-.011,2.054.016,3.077.549-.047,1.092-.1,1.638-.148a7.131,7.131,0,0,1-.008-1.977.836.836,0,0,1,1.647.274,5.725,5.725,0,0,0,.028,1.555c.346-.032.686-.063,1.031-.092.113-.517.229-1.036.34-1.547.232-1.052,1.888-.786,1.653.269-.082.374-.167.749-.251,1.123l6.068-.538-.219-2.069a.838.838,0,0,1,1.666-.174l.222,2.1,2.13-.19a12.669,12.669,0,0,1-.1-1.3.838.838,0,0,1,1.666-.177,3.393,3.393,0,0,0,.14,1.323l1.355-.121c-.023-.622,0-1.242-.048-1.864a.838.838,0,0,1,1.666-.174c.048.63.021,1.257.048,1.885q4.91-.447,9.816-.928c-.084-.938-.042-1.882-.129-2.82a.838.838,0,0,1,1.666-.177c.084.944.045,1.887.129,2.831.718-.071,1.427-.142,2.144-.216-.113-.659-.271-1.31-.354-1.974a.773.773,0,0,1,.733-.889.809.809,0,0,1,.933.714c.079.665.237,1.315.351,1.975,1.41-.147,2.826-.3,4.233-.453-.258-1.1.158-2.555.087-3.527-.079-1.076,1.585-1.252,1.666-.177a13.667,13.667,0,0,1-.089,1.917c-.021.288-.15,1.395.039,1.537.021.018.042.037.063.053q1.289-.146,2.583-.3a13.22,13.22,0,0,1-.379-2.934.838.838,0,0,1,1.666-.177,8.72,8.72,0,0,0,.435,2.905c.844-.1,1.692-.2,2.536-.309,0-.016-.008-.032-.011-.047a32.17,32.17,0,0,1-.234-3.846.838.838,0,0,1,1.666-.174,32.115,32.115,0,0,0,.234,3.843c0,.005,0,.011,0,.016q1.992-.257,3.985-.525l-.29-2.739a.838.838,0,0,1,1.666-.174l.282,2.686q1.824-.253,3.646-.522c-.2-1.471-.772-2.855-.957-4.329a.838.838,0,0,1,1.666-.176c.18,1.447.736,2.813.947,4.257.666-.1,1.328-.2,1.992-.306l-.408-3.883a.838.838,0,0,1,1.666-.177l.4,3.8c.5-.079.991-.161,1.489-.243l-.179-1.708a.837.837,0,0,1,1.663-.174l.169,1.608c1.236-.211,2.47-.424,3.7-.648a.818.818,0,0,1-.1-.348c-.079-.894-.034-1.788-.113-2.681a.838.838,0,0,1,1.666-.174c.079.894.032,1.787.113,2.681a.878.878,0,0,1-.011.24q4.551-.839,9.093-1.809c-6.971-4.392-15.841-6.026-23.2-9.635-8.045-3.954-16.513-6.24-24.795-9.517a273.309,273.309,0,0,0-27.745-9.572c-5.409-1.5-9.917-4.961-15.353-6.521C10408.649,5005.824,10408.317,5014.421,10410.139,5022.324Zm13.333,10.075a.975.975,0,0,1-.065-.245c-.656-5.275-3.237-11.122-1.61-16.417a.653.653,0,0,1,.635-.509.785.785,0,0,1,.472.087c5.939,2.984,12.664,4.864,18.9,7.112,5.386,1.943,11.415,5.117,17.105,6.052a.942.942,0,0,1,.15.005.838.838,0,0,1,.44.174l.042.035a.844.844,0,0,1-.45,1.484.854.854,0,0,1-.217-.008h-.01l-.688.071a.831.831,0,0,1-.295-.016c-5.781.34-11.457.129-17.214,1.121a134.88,134.88,0,0,1-16.291,2l-.058,0A.858.858,0,0,1,10423.472,5032.4Zm1.553-.77c6.011-.372,11.823-1.492,17.778-2.357a80.668,80.668,0,0,1,10.339-.58c-4.1-1.4-8.22-3.361-12.028-4.737-5.927-2.143-12.295-3.941-18.01-6.677C10422.154,5021.833,10424.384,5027.137,10425.024,5031.629Zm25.863-40.024a95.836,95.836,0,0,1-23.7-3.421c-7.516-2.146-15.2-4.856-23.116-4.481a.74.74,0,0,1-.456,0c-9.405-2.562-12.88-17.678-7.022-24.858a1.111,1.111,0,0,1,.121-.126c.019-.037.037-.074.059-.111,2.143-3.648,3.461-7.471,6.089-10.884,3.2-4.152,6.69-8.117,9.566-12.519,6.023-9.2,12.648-18.487,17.248-28.494a.7.7,0,0,1,.7-.543c7.379-.261,14.053,3.029,21.131,4.592,8.19,1.806,16.589,1.17,24.816,2.684a.745.745,0,0,1,.746.15.8.8,0,0,1,.388.815,63.752,63.752,0,0,0-.92,7.3.8.8,0,0,1,0,.493,8.587,8.587,0,0,0,.53,2.881c.946,2.394,2.583,5.56,5.214,6.385a.657.657,0,0,1,.5.646.73.73,0,0,1-.2.648c-3.793,4.215-5.319,10.13-8.841,14.622-3.743,4.782-6.082,10.79-9.25,15.988a71.978,71.978,0,0,0-7.387,15.671c-1.342,4.16-2.567,8.549-5.2,12.095a.624.624,0,0,1-.566.469c-.029.005-.059.01-.085.013a.656.656,0,0,1-.1.005c-.025,0-.051,0-.077,0A.758.758,0,0,1,10450.888,4991.6Zm-25.718-5.728a103.451,103.451,0,0,0,24.424,4.023c-.414-.688-.807-1.392-1.174-2.1a.987.987,0,0,1-.134-.058c-4.516-2.275-10.405-2.27-15.245-3.751-8.251-2.525-16.955-4.046-25.322-6.1-1.041-.25-.777-1.906.274-1.65,8,1.967,16.27,3.327,24.149,5.739,4.713,1.442,10.494,1.711,15.187,3.512q-.688-1.6-1.231-3.261c-7.173-1.616-14.541-2.059-21.7-4-6.777-1.845-13.771-5.352-20.709-6.084-1.078-.113-.8-1.761.269-1.647,7.1.741,13.813,4.323,20.712,6.076s13.972,2.346,20.878,3.833a11.655,11.655,0,0,1-.326-2.207c-7.152-1.79-14.623-2.325-21.79-4.036-6.479-1.547-12.814-4.508-19.339-5.652a.837.837,0,0,1,.271-1.65c7.4,1.294,14.3,4.83,21.751,6.185,6.318,1.152,12.846,1.887,19.091,3.424.021-.754.073-1.513.121-2.27h-.008c-8.3.654-15.915-2.818-23.915-4.55a171.192,171.192,0,0,1-18.284-5.446.8.8,0,0,1-.49-.189l-.063-.048c-.785-.63.014-1.7.87-1.413,6.78,2.256,13.444,4.186,20.435,5.937,7.063,1.769,13.88,4.626,21.271,4.043a1,1,0,0,1,.271.016,18.463,18.463,0,0,0-.068-2.5c-15.566-3.219-31.62-9.6-47.677-9.424a.929.929,0,0,1-.277-.04c-4.257,6.364-1.444,19.262,6.438,21.466.54-.026,1.08-.04,1.616-.04C10412.207,4982,10418.7,4984.031,10425.17,4985.877Zm54.119-54.114c-3.369,4.845-5.161,10.321-7.953,15.445-2.889,5.3-6.859,9.87-9.74,15.2-1.329,2.455-3.38,4.853-4.444,7.368-1.131,2.663-1.745,5.473-2.773,8.156a52.307,52.307,0,0,1-3.5,7.99.794.794,0,0,1-.192.533c-.222.271-.443.548-.664.822q.541,1.02,1.148,2.006c3.377-5.1,4.061-11.586,6.586-17.09,2.44-5.3,5.754-10.067,8.551-15.176,2.367-4.315,4.666-8.238,7.342-12.348,2.507-3.851,4.06-8.5,6.92-12.118a7.344,7.344,0,0,1-1.236-.862C10479.318,4931.715,10479.3,4931.739,10479.289,4931.763Zm-18.429,25.884c-2.578,5.781-5.969,10.979-8.436,16.837-1.129,2.673-2.181,5.968-4.532,7.876a33.075,33.075,0,0,0,1.271,3.179c2.823-4.426,3.566-9.638,5.6-14.414,2-4.708,4.956-9.211,7.688-13.518a174.054,174.054,0,0,0,10.072-17.09,73.876,73.876,0,0,1,5.465-9.812.94.94,0,0,1,.179-.193,13.208,13.208,0,0,1-.846-1.115C10473.561,4939.755,10465.278,4947.746,10460.86,4957.647Zm2.817-11.636c-6.174,8.918-9.263,19.884-16.483,28.014a.831.831,0,0,1-.329.235,15.8,15.8,0,0,0,.087,4.753c.118.54.253,1.073.4,1.6,3.562-3.343,4.057-9.87,6.509-13.869,2.726-4.437,4.858-9.116,7.5-13.583,4.95-8.375,11.836-16.262,14.854-25.692a13.334,13.334,0,0,1-.7-1.776c-.061-.193-.113-.385-.16-.58A125.385,125.385,0,0,1,10463.678,4946.011Zm-1.075-6.437c-2.784,5.976-5.56,11.984-8.8,17.725-2.232,3.946-3.864,8.7-6.743,12.2-.023.029-.05.056-.074.082a13,13,0,0,1,.074,2.011c5.981-7.5,8.744-17.129,14.2-25.022a127.562,127.562,0,0,0,13.731-24.961,30.528,30.528,0,0,1,.306-3.786A174.044,174.044,0,0,0,10462.6,4939.574Zm-31.6-31.752c-4.323,9.266-10.434,17.981-16.006,26.5-2.972,4.54-6.369,8.67-9.68,12.959-2.858,3.7-4.54,7.718-6.82,11.665,15.954.082,31.808,6.3,47.276,9.469,3.622-4.413,6.239-11.084,8.833-16.172,2.945-5.776,5.525-11.723,8.423-17.52,3.453-6.92,7.885-13.328,12.152-19.776-7.937-1.294-16.125-.53-23.954-2.536-6.508-1.661-13.06-4.589-19.867-4.589C10431.244,4907.819,10431.126,4907.82,10431.006,4907.822Zm-29,72.438c-.121-3.192-1.449-6.189-2-9.308-.512-2.873-.214-5.784-.414-8.678-.073-1.078,1.59-1.258,1.666-.177.219,3.185-.161,6.393.591,9.524.672,2.771,1.719,5.594,1.826,8.462a.855.855,0,0,1-.8.894c-.034,0-.068.005-.1.005A.718.718,0,0,1,10402.006,4980.259Zm-148.979-6.608c-5.812-6.572-9.311-13.824-9.437-22.766-.2-14.3,6.477-27.194,21.7-29.92a.921.921,0,0,1,.158-.026.882.882,0,0,1,.161-.016c8.425-.751,16.547-.1,23.656,4.958,6.782,4.824,9.058,10.634,9.562,18.816.843,13.624-7.523,33.589-23.251,35.245-.258.026-.517.048-.777.066-1.439.094-2.88.155-4.307.155C10263.934,4980.164,10257.657,4978.883,10253.026,4973.651Zm-.271-2.6a27.414,27.414,0,0,0,2.981,2.944c5.338,4.511,15.785,6.071,22.46,3.612.284-.105.566-.214.844-.327,0-.008-.008-.016-.011-.023-2.312-4.411-1.5-11.663.7-16.579a33.514,33.514,0,0,1-8.881-4.186C10266.03,4962.589,10260.112,4970.205,10252.755,4971.054Zm27.806,5.549a28.531,28.531,0,0,0,13.37-14.461,41.622,41.622,0,0,1-12.447-.981C10279.388,4965.864,10278.3,4972.23,10280.561,4976.6Zm-35.266-27.371a.628.628,0,0,1-.11.042,33.981,33.981,0,0,0,.2,3.5,33.621,33.621,0,0,0,6.163,16.779.807.807,0,0,1,.364-.1c7.2-.417,12.787-7.988,17.512-13.948-.24-.177-.48-.356-.718-.541-4.038-3.116-7.895-6.8-11.7-10.249C10253.274,4946.543,10249.181,4947.521,10245.295,4949.232Zm37.749,9.013c-.253.4-.5.815-.743,1.255a38.926,38.926,0,0,0,12.266.92c.026,0,.05,0,.074-.005a38.887,38.887,0,0,0,2.478-11.978A22.8,22.8,0,0,0,10283.044,4958.245Zm-9.247-5.38c-.591.686-1.2,1.432-1.827,2.217a34.825,34.825,0,0,0,8.6,3.946c.108-.185.219-.364.332-.541,3.8-5.86,9.351-10.428,16.26-11.762a38.558,38.558,0,0,0-.2-4.031c-.8-7.784-4.677-13.022-10.094-16.223C10286.405,4936.8,10280.318,4945.286,10273.8,4952.865Zm-11.246-12.047a19.339,19.339,0,0,1-3.894,3c2.654,2.217,5.051,4.6,7.637,6.936a42.589,42.589,0,0,0,4.229,3.369c.675-.831,1.331-1.611,1.972-2.314,6.472-7.078,12.5-15.814,12.735-25.763a.9.9,0,0,1,.105-.409,34.606,34.606,0,0,0-15.137-3.232C10270.884,4929.7,10267.715,4935.633,10262.551,4940.818Zm-17.327,6.627c3.5-1.468,7.128-2.312,10.492-3.917-2.642-2.594-4.506-6.179-7.168-8.6A29.725,29.725,0,0,0,10245.224,4947.445Zm20.4-24.843a23.285,23.285,0,0,0-16.22,10.837c3,2.646,4.61,6.707,7.871,9.258l.011.011a18.478,18.478,0,0,0,2.918-2.056c5.431-4.674,9.042-10.993,8.317-18.226C10267.552,4922.455,10266.584,4922.516,10265.619,4922.6Zm48.457,7.038c-2.106-3.216-2.713-7.362-2.715-11.306-1.455,2.467-3.021,4.721-5.7,6.242-.94.535-1.652-.98-.722-1.513,3.382-1.922,4.8-5.346,6.7-8.541.439-.741,1.568-.235,1.516.556-.313,4.294-.253,9.748,2.2,13.481a.933.933,0,0,1-.648,1.413.628.628,0,0,1-.068,0A.668.668,0,0,1,10314.076,4929.641Zm5.815-2.789c.074-3.021,2.476-4.418,3.321-7.112a8.283,8.283,0,0,0-.05-3.954,6.075,6.075,0,0,0-.606-2.02c-.97-1.571-2.214,1.574-2.277,1.914-.2,1.052-1.864.92-1.669-.145.625-3.361,4.452-5.6,5.853-1.484a10.806,10.806,0,0,1,.424,5.937c-.646,2.062-2.391,3.583-3.062,5.552a59.77,59.77,0,0,1,5.557-2.818c1.007-.358,1.729,1.149.72,1.518-2.465.9-4.55,2.542-7.018,3.438a.958.958,0,0,1-.245.058.972.972,0,0,1-.1.005A.829.829,0,0,1,10319.892,4926.852Zm27.007-5.352a16.685,16.685,0,0,1-2.494-6.451,7.462,7.462,0,0,0-.925,1.479.85.85,0,0,1-1.429.248c-2.006-2.729-2.254-6.379-2.984-9.59-.242-1.052,1.405-1.353,1.643-.3.572,2.507.772,5.473,2,7.816a7.411,7.411,0,0,0,1.748-2.794c.219-1.036,1.869-.928,1.669.142-.572,3.042.68,6.182,2.28,8.731.366.58-.108,1.076-.651,1.131a.99.99,0,0,1-.107.006A.864.864,0,0,1,10346.9,4921.5Zm-12.216-.622c-.2-.016-.4-.032-.593-.05-.1,0-.2-.016-.3-.029a.835.835,0,0,1,.146-1.664c.076.005.155.011.231.019,1.8.082,2.074-1.7,1.722-3.25-.271-1.181-.873-2.9-1.674-1.06a.843.843,0,0,1-1.624-.364c.076-.809.219-1.632.222-2.446,0-.443.1-1.492-.912-.915a2.832,2.832,0,0,0-1.123,2.312c-.146,1.07-1.812.93-1.669-.14.287-2.162,1.6-4.544,4.16-3.87,1.136.3,1.31,1.661,1.241,2.974,1.181-.222,2.407.891,2.9,2.7.63,2.333.079,5.1-2.181,5.646a.744.744,0,0,1-.363.135c-.036,0-.072.005-.109.005Zm29.524-1.706c-2.412-.488-2.736-4.052-2.818-5.976-.107-2.641-.061-5.863,1.253-8.24a.843.843,0,0,1,.975-.3,4.8,4.8,0,0,1,2.054,1.286c.778.749-.509,1.822-1.278,1.081a2.489,2.489,0,0,0-.651-.541,14.928,14.928,0,0,0-.74,6.756c1.727-1.547,4.188-1.719,5.169,1.215a3.814,3.814,0,0,1-3.058,4.763,2.886,2.886,0,0,1-.312.017A3.032,3.032,0,0,1,10364.207,4919.173Zm.878-5.443c-.762.079-1.334.957-1.742,1.684.271,1.181.822,2.75,2.267,1.837,1.067-.675,1.585-2.491.309-3.3a1.359,1.359,0,0,0-.722-.23A1.049,1.049,0,0,0,10365.085,4913.729Zm-12.8,3.917c-.625-.87.646-1.956,1.281-1.081,1.12.121,1.713-.227,1.776-1.052a1.943,1.943,0,0,0-.2-.912,3.5,3.5,0,0,0-1.149-1.353c-1.275-.828-2.322-.575-2.681,1.031-.224,1.02-1.745.967-1.671-.14.219-2.981.1-5.966.311-8.939a.838.838,0,0,1,1.348-.58,7.427,7.427,0,0,1,4.6-1.55c1.079.053.934,1.719-.142,1.669a6.143,6.143,0,0,0-4.025,1.655.819.819,0,0,1-.185.119c-.079,1.671-.076,3.343-.116,5.014,1.474-.833,3.464-.4,4.734,1.544.749,1.149,1.273,2.739.366,3.986a3.531,3.531,0,0,1-2.364,1.4,2.432,2.432,0,0,1-.259.014A1.942,1.942,0,0,1,10352.284,4917.646Zm21.953-1.447a14.389,14.389,0,0,1-1.3-4.866c-.095.034-.19.069-.285.105-1,.385-1.724-1.125-.717-1.513.29-.113.585-.216.883-.311a10.657,10.657,0,0,1,1-5.288c-.258.029-.517.058-.772.09a18.7,18.7,0,0,1-2.926.2c-1.084-.042-.936-1.711.14-1.671a18.7,18.7,0,0,0,2.929-.2,18.42,18.42,0,0,1,2.929-.2c1.018.037.928,1.4.084,1.653-1.35.406-1.747,2.578-1.682,4.935.43-.108.862-.211,1.292-.313,1.049-.256,1.347,1.395.306,1.647-.49.119-.986.232-1.479.358a21.47,21.47,0,0,0,.619,3.332.777.777,0,0,1,.641.859l-.074.888a.784.784,0,0,1-.722.741.883.883,0,0,1-.865-.451Zm8.035-2.364c-2.386-1.094-2.5-3.446-1.226-5.235a3.017,3.017,0,0,1-1.34-1.047c-1.528-2.288-.371-6.084,2.6-6.485a2.761,2.761,0,0,1,2.772,2.262c.259,1.655-.864,2.792-1.3,4.241,1.8.324,3.656.7,3.693,2.942a3.484,3.484,0,0,1-3.107,3.688,3.762,3.762,0,0,1-.38.02A4.115,4.115,0,0,1,10382.272,4913.835Zm3.535-3.164c-.026-1.492-1.883-1.378-2.987-1.579C10379.567,4912.119,10385.86,4914.048,10385.808,4910.671Zm-3.4-7.929a.983.983,0,0,0-.382.14c-1.447.888-2.136,3.517-.166,4.241.1.037.2.071.309.1a20.361,20.361,0,0,1,.859-1.909c.227-.5.646-1.231.348-1.787-.222-.412-.5-.792-.9-.792A.576.576,0,0,0,10382.409,4902.742Zm8.8,9.458a.834.834,0,0,1-.546-.856c.029-.3.053-.6.076-.891a.838.838,0,0,1,1.669.143c0,.026,0,.052,0,.082,1.4-.279.833-3.738.053-6.559a5.474,5.474,0,0,1-.436,1.123c-.44.838-1.75,1.692-2.733,1.2-2.072-1.039-1.052-4.115-.377-5.773a.852.852,0,0,1,.859-.545c.445.037.889.076,1.331.113.021,0,.04,0,.061.005,0-.019,0-.037,0-.056a.842.842,0,0,1,1.587-.292c1.215,2.354,4.252,12.06.056,12.5h0a2.841,2.841,0,0,1-.308.016A4.613,4.613,0,0,1,10391.209,4912.2Zm-1.134-7.371c.867-.276,1.039-1.679,1.07-2.931a.883.883,0,0,1-.187,0c-.219-.018-.439-.04-.664-.058C10389.991,4902.929,10389.514,4905.006,10390.075,4904.83Zm7.945,3.016a15.059,15.059,0,0,1-1.052-7.392.849.849,0,0,1-1.229-1c1.152-3.129,5.074-3.069,6.746-.335,1.357,2.22,2.288,6.253.846,8.639a3.433,3.433,0,0,1-2.541,1.666h0a2.965,2.965,0,0,1-.308.016A2.673,2.673,0,0,1,10398.021,4907.846Zm.633-7.479c-.1,1.308.121,9.643,2.915,6.944,1.281-1.231.726-3.965.282-5.457a5.285,5.285,0,0,0-1.078-2.256c-1.044-1-2.454-1.252-3.211-.082a.773.773,0,0,1,.135-.026.879.879,0,0,1,.095,0A.815.815,0,0,1,10398.653,4900.367Zm-106.009,4.993c.591-2.723,1.508-5.352,2.172-8.054a11.286,11.286,0,0,0-3.574-.693c-.936,0-1.21-1.287-.532-1.6a.876.876,0,0,1,.108-.174q3.986-5.046,7.958-10.1a.779.779,0,0,1,1.057-.187.736.736,0,0,1,.414.941.9.9,0,0,1-.079.18c-.938,2.04-.4,4.642.037,6.751.422,2.038.983,4.039,1.474,6.065a.668.668,0,0,1-.248.738.687.687,0,0,1-.7.19,31.047,31.047,0,0,1-4.344-1.532c-.654,2.578-1.519,5.1-2.088,7.7a.839.839,0,0,1-.76.677.9.9,0,0,1-.1.005A.742.742,0,0,1,10292.645,4905.36Zm.1-10.252c2.386.417,4.613,1.568,6.934,2.3-.749-2.723-1.809-5.915-1.785-8.841Q10295.322,4891.841,10292.747,4895.108Zm129.684-4.845c-2.96-1.252-3.672-3.008-2.309-6.047,2.43-5.441,5.865-10.528,8.765-15.732,3.274-5.874,8.9-14.167,14.78-5.172,1.7,2.6-3.439,10.429-4.8,12.5-2.639,4-4.851,8.462-9.883,9.081a.845.845,0,0,1-.92-.743c-.735-6.334,4.142-9.864,6.959-14.962.522-.938,2.049-.259,1.529.688-1.689,3.05-4.539,5.546-5.949,8.709-2.03,4.558,1.631,3.25,3.382,1.065a38.8,38.8,0,0,0,4.395-6.3c1.168-2.246,2.062-4.561,3.095-6.859,1.779-3.954-4.368-7.089-6.743-4.107a64.544,64.544,0,0,0-5.359,8.718c-1.951,3.448-3.985,6.854-5.937,10.294a22.411,22.411,0,0,0-1.787,3.517c-1.8,5.122,5.352,4.819,7.278,3.472,6.709-4.7,14.174-10.015,19.691-16.083.72-.793,2.027.256,1.3,1.057-4.724,5.191-10.958,9.88-16.645,13.99-2.555,1.848-4.434,3.414-6.8,3.661a6.165,6.165,0,0,1-.664.036A8.62,8.62,0,0,1,10422.431,4890.263Zm-131.283-19.162q-.7-6.864-1.455-13.718-7.074.664-14.15,1.384a.837.837,0,0,1-.177-1.664q7.074-.727,14.147-1.384c-1.32-12.037-2.715-24.055-4.083-36.091-.135.44-.274.875-.414,1.308-.3.941-.68,2.921-1.769,3.319-1.013.367-1.624-1.191-.611-1.558-.279.1-.017-.114.087-.34.132-.311.258-.625.374-.946q.4-1.1.712-2.222a29.681,29.681,0,0,0,.867-3.53.85.85,0,0,1,1.531-.316.765.765,0,0,1,.5.665c.05.435.1.867.147,1.3,1.426,1.822,2.275,4.208,3.3,6.195.5.959-1.067,1.561-1.558.612-.44-.852-.844-1.809-1.286-2.757q1.166,10.229,2.333,20.445a.476.476,0,0,1,.158.026,5.766,5.766,0,0,1,2.214,1.729,4.828,4.828,0,0,0,2.017,1.561c.485.132.659-.016.723-.066.7-.58.487-2.931.377-4.191-.04-.432-.068-.8-.071-1.042-.014-2.1.321-5.92,2.67-7.839a3.472,3.472,0,0,1,3.158-.8,3.762,3.762,0,0,1,2.42,2.5c.938,2.657,2.17,5.264,4.816,6.321a2.364,2.364,0,0,0,2.108.029c1.532-.87,2.049-4.081,2.423-6.421a16.57,16.57,0,0,1,.577-2.76c.928-3.73,1.9-7.645,4.308-11,1.669-2.064,3.38-2.265,4.526-2.072,2.552.43,4.576,3.047,5.446,5.452a41.486,41.486,0,0,1,1.421,5.739c1.334,6.632,2.715,13.513,10.41,12.327a.514.514,0,0,1,.571.421.5.5,0,0,1-.422.572c-.205.032-.405.055-.6.076-8.116.854-9.683-6.919-10.945-13.2a40.932,40.932,0,0,0-1.376-5.591c-.915-2.525-2.834-4.5-4.671-4.806a3.732,3.732,0,0,0-3.562,1.687c-2.275,3.177-3.224,7-4.146,10.689a16.224,16.224,0,0,0-.543,2.618c-.433,2.687-.965,6.034-2.921,7.142a3.322,3.322,0,0,1-2.979.029c-3.014-1.208-4.371-4.039-5.392-6.922a2.765,2.765,0,0,0-1.745-1.861,2.5,2.5,0,0,0-2.248.612c-2.022,1.661-2.31,5.135-2.3,7.06,0,.227.029.562.068.957.193,2.183.285,4.208-.737,5.054a1.7,1.7,0,0,1-1.635.261,5.665,5.665,0,0,1-2.483-1.848,6.162,6.162,0,0,0-1.511-1.332q.716,6.327,1.413,12.659c18.168-1.685,36.35-3.124,54.507-4.872-.959-.493-1.879-1.054-2.878-1.465s-.312-1.937.688-1.529c1.2.5,2.254,1.271,3.451,1.761a22.476,22.476,0,0,0,3.65.767c.543-.111,1.218.292,1.058.933-.119.466-.3.883-.82,1.012a.885.885,0,0,1-.554-.034c-1.916.933-3.269,2.855-4.866,4.223-.817.7-1.8-.654-.988-1.35,1-.859,1.9-1.89,2.892-2.794-18.64,1.811-37.306,3.285-55.956,5.011q.747,6.844,1.452,13.7a.8.8,0,0,1-.751.894.969.969,0,0,1-.1.005A.78.78,0,0,1,10291.147,4871.1Zm87.184-7.081c-4.731-5.267-10.133-20.147-.672-23.511a.869.869,0,0,1,.171-.045.364.364,0,0,0,.045-.01c3.011-.578,6.063-.934,9.108-1.276.063-.005.124-.013.185-.021-4.559-3.994-4.392-12.35-1.595-17.311.529-.931,2.059-.253,1.528.693-2.6,4.608-2.944,13.141,2.238,16.122,2.887-.991,4.455-3.095,6.909-5.578,3.319-3.354,8.738-4.582,12.877-1.608,8.077,5.815,13.492,23.08,1.816,28.354-3.967,1.793-8.72,1.988-12.542,3.989-2.51,1.313-4.12,5.209-7.2,5.694-.171.026-.345.05-.517.068a10.5,10.5,0,0,1-1.106.058C10385.32,4869.637,10381.136,4867.14,10378.331,4864.02Zm4.646-22.5c-.678.061-1.353.119-2.02.189-.941.1-1.866.219-2.763.385-11.09,4.046.917,22.836,7.692,25.175,6.065,2.1,8.3-4.107,13.418-5.552,6.058-1.7,15.65-3,16.575-10.872.662-5.646-1.779-12.076-5.673-16.225-4.057-4.326-9.97-3.928-13.634.7a16.238,16.238,0,0,1-3.266,3.593,12.841,12.841,0,0,1-3.383,1.526.7.7,0,0,1-.4.113A37.892,37.892,0,0,1,10382.977,4841.519Zm68.035-5.441c.588-2.721,1.508-5.354,2.172-8.054a11.364,11.364,0,0,0-3.569-.69c-.938,0-1.215-1.289-.535-1.6a.912.912,0,0,1,.111-.171l7.955-10.1a.784.784,0,0,1,1.065-.182.737.737,0,0,1,.385.994.476.476,0,0,1-.045.1c-.96,2.043-.422,4.658.021,6.775.424,2.04.985,4.041,1.474,6.071a.655.655,0,0,1-.248.733.685.685,0,0,1-.7.195,31.507,31.507,0,0,1-4.342-1.537c-.653,2.578-1.521,5.1-2.085,7.7a.847.847,0,0,1-.762.678c-.035,0-.069.005-.1.005A.743.743,0,0,1,10451.012,4836.078Zm.1-10.25c2.391.414,4.621,1.566,6.938,2.3-.745-2.723-1.806-5.913-1.781-8.839Zm-206.354,1.034a74.115,74.115,0,0,1,.411-12.076c-1.532-.8-3.053-1.619-4.616-2.359a.773.773,0,0,1-.68-.168l-.488-.4a.838.838,0,0,1,.87-1.41c1.727.764,3.393,1.668,5.064,2.552a58.5,58.5,0,0,0,.163-9.11.838.838,0,0,1,1.666-.174,62.808,62.808,0,0,1-.245,10.107,27.717,27.717,0,0,0,7.26,2.712.838.838,0,0,1-.274,1.653,28.144,28.144,0,0,1-7.136-2.6,67.61,67.61,0,0,0-.332,11.1.818.818,0,0,1-.77.894c-.033,0-.065,0-.1,0A.753.753,0,0,1,10244.755,4826.862Zm29.261-17.419c1.521-4.405.854-9.013-.443-13.494-4.1.587-6.814-2.613-10.12-4.445-.936-.522-.256-2.053.688-1.531,2.879,1.6,5.433,4.629,8.934,4.347-.946-2.942-2.088-5.81-2.974-8.509-.335-1.023,1.224-1.634,1.561-.612,2.565,7.834,6.783,16.526,3.883,24.935a.686.686,0,0,1-.585.5c-.025,0-.051,0-.076,0A.912.912,0,0,1,10274.016,4809.442Zm-10.848-.7c-.954-1.258-1.812-2.576-2.645-3.91-1.474,1.028-2.976,2.022-4.365,3.153-.841.678-1.829-.672-1-1.352,1.426-1.157,2.971-2.172,4.481-3.227-1.084-1.758-2.167-3.514-3.419-5.162-.651-.862.7-1.848,1.352-.991,1.253,1.653,2.341,3.414,3.425,5.177a26.8,26.8,0,0,0,2.485-2.062c.78-.741,1.762.62.989,1.353a26.944,26.944,0,0,1-2.592,2.138c.83,1.329,1.682,2.639,2.631,3.888a.855.855,0,0,1-.715,1.323A.775.775,0,0,1,10263.168,4808.741Zm27.437-17.826c2.729-2.9,5.285-5.96,8.248-8.628.8-.725,1.782.633.991,1.347-2.853,2.576-5.309,5.539-7.935,8.335a.831.831,0,0,1-.529.271q-.044,0-.088,0A.81.81,0,0,1,10290.6,4790.916Zm-3.417-4.262c2.987-2.7,5.544-5.826,8.531-8.528.8-.725,1.787.632.993,1.35-2.986,2.7-5.543,5.828-8.533,8.53a.754.754,0,0,1-.424.2.6.6,0,0,1-.065,0A.9.9,0,0,1,10287.188,4786.653Zm-9.373-4.347c.377-2.357.247-7.8-3.108-6.873l.023.237a.838.838,0,0,1-1.666.174l-.092-.889a.845.845,0,0,1,.524-.865c4.774-2.143,6.242,3.122,6.11,7a8.443,8.443,0,0,0,1.94-2.525c.521-.938,2.051-.256,1.526.69-.96,1.724-2.31,3.583-4.345,4.018l-.068.011c-.022,0-.045,0-.066,0A.872.872,0,0,1,10277.814,4782.306Zm105.275-25.921a.742.742,0,0,1,.859-.675,2.2,2.2,0,0,1,3.129-1.877l.108.045c-.794-.846-.786-2.96-.852-3.765-.358-4.341-1.656-8.641-1.709-12.969-.01-1.073,1.656-1.26,1.666-.177.043,3.5,1.266,6.785,1.506,10.254.079,1.139.14,2.286.269,3.422.1.82.606,1.827-.079,1.916a.838.838,0,0,1,.177,1.667,1.425,1.425,0,0,1-.329,0,5.01,5.01,0,0,1,2.177,2.976c.448,1.927-1.23,3.25-2.986,3.479-.037.005-.071.008-.105.011a4.109,4.109,0,0,1-.426.022C10384.2,4760.716,10382.818,4758.672,10383.09,4756.385Zm4.162,2.539c.9-.3,1.39-.8,1.052-1.629a3.489,3.489,0,0,0-1.734-1.856.926.926,0,0,0-.717-.108.474.474,0,0,0-.135.179,2.305,2.305,0,0,0-.137.611.735.735,0,0,1-.852.678C10384.621,4758.3,10385.673,4759.448,10387.252,4758.924Zm-71.818-7.745c-2.4-1.4-4.629-3.087-6.99-4.553a11.327,11.327,0,0,0-1.762,3.187c-.287.891-1.595.756-1.682.019a.943.943,0,0,1-.129-.156q-3.579-5.342-7.162-10.681a.782.782,0,0,1,.158-1.073.736.736,0,0,1,1.049-.066,1,1,0,0,1,.095.09c1.65,1.534,4.3,1.821,6.448,2.056,2.066.224,4.149.306,6.229.466a.663.663,0,0,1,.623.464.69.69,0,0,1-.032.725,31.581,31.581,0,0,1-2.8,3.659c2.251,1.416,4.384,3.018,6.686,4.354a.883.883,0,0,1-.267,1.619.571.571,0,0,1-.071,0A.79.79,0,0,1,10315.434,4751.179Zm-9.722-3.253c1.131-2.146,2.913-3.912,4.326-5.889-2.821-.129-6.182-.1-8.958-1.025Q10303.393,4744.467,10305.712,4747.926Zm59.268-1.872a4.974,4.974,0,0,1-2.744-1.331,5.186,5.186,0,0,1-.912-2.887.822.822,0,0,1,1.01-.886,3,3,0,0,1,2.741-2.383h0a.949.949,0,0,1-.084-.258c-.85-5.122.566-10.173.192-15.29-.079-1.073,1.584-1.25,1.666-.174.374,5.111-1.042,10.175-.192,15.287a.721.721,0,0,1-.169.638,3.329,3.329,0,0,1,1.376.912,16.239,16.239,0,0,1,3.408-3.6c1.722-1.342,4.93-2.7,5.665-4.845.351-1.018,1.874-.327,1.523.691-.646,1.9-2.549,2.916-4.12,3.991a17.554,17.554,0,0,0-5.633,5.53,4.052,4.052,0,0,1,.042,1.015c-.143,1.634-1.308,3.435-3.014,3.614a2.674,2.674,0,0,1-.289.016A2.609,2.609,0,0,1,10364.979,4746.054Zm.056-5.792c-1.062.24-1.281,1.263-1.06,2.193a.688.688,0,0,1-.688.873,1.222,1.222,0,0,0,.143.219,3.679,3.679,0,0,0,1.576.814,2.1,2.1,0,0,0,.433-4.146A1.832,1.832,0,0,0,10365.035,4740.263Zm39.064,3.108a2.7,2.7,0,0,1-.651-2.6.794.794,0,0,1,.377-.559,5.219,5.219,0,0,1,1.018-3.155c-2.713-4.023-2.386-9.232-2.826-13.866a.838.838,0,0,1,1.666-.174c.4,4.255.016,9.253,2.454,12.967.071-.035.146-.066.219-.1a2.52,2.52,0,0,1,3.417,2.4c.013,1.842-.886,4.753-2.871,5.391a3.989,3.989,0,0,1-.827.171,4.136,4.136,0,0,1-.435.024A2.174,2.174,0,0,1,10404.1,4743.371Zm3.107-5.992a1.225,1.225,0,0,0-.624.314,3.117,3.117,0,0,0-1.081,2.641.787.787,0,0,1-.417.786c-.107.633-.1,1.086.667,1.044a1.4,1.4,0,0,0,1.191-.551c.606-.749,1.474-2.346,1.14-3.366-.18-.538-.443-.871-.81-.871A.618.618,0,0,0,10407.207,4737.379Zm-45.625,2.916a14.616,14.616,0,0,1-4.993-3.846c-.838-.92-1.632-1.869-2.425-2.829-.817-.991-1.216-2.156-2.542-2.607-1.02-.351-.321-1.874.693-1.529,1.914.654,2.733,2.607,3.971,4.073,1.7,2.024,3.492,4.154,5.983,5.206a.845.845,0,0,1-.271,1.6.715.715,0,0,1-.079,0A.881.881,0,0,1,10361.582,4740.294Zm39.71-.717c-3.5-2.834-7.052-5.708-11.361-7.2-1.018-.354-.322-1.882.688-1.526,4.439,1.542,8.127,4.51,11.729,7.429a.848.848,0,0,1-.473,1.487.69.69,0,0,1-.079,0A.807.807,0,0,1,10401.292,4739.578Zm-18.917-7.429a4.376,4.376,0,0,1-.061-5.088c.8-1.508,2.645-2.673,4.268-1.713,2,1.184,1.774,3.865.686,5.657a4.357,4.357,0,0,1-2.907,2.1,2.193,2.193,0,0,1-.232.012A2.124,2.124,0,0,1,10382.375,4732.149Zm2.781-5.417a1.808,1.808,0,0,0-1.315.991.925.925,0,0,1-.108.219,2.221,2.221,0,0,0-.16.553.739.739,0,0,1-.383.588,3.086,3.086,0,0,0,.428,1.927c.812,1.107,1.972-.28,2.335-1.1s.994-2.7-.234-3.119a1.365,1.365,0,0,0-.425-.071A1.155,1.155,0,0,0,10385.156,4726.732Zm31.338,1.45a.838.838,0,0,1,1.281-.551c0-.011,0-.024,0-.035a2.436,2.436,0,0,1,1.072-1.795,28.42,28.42,0,0,0,.206-7.1.838.838,0,0,1,1.666-.174,30.071,30.071,0,0,1-.174,7.233l.1.047a4.424,4.424,0,0,1,2.33,3.15c.242,1.8-1.181,2.729-2.744,3.068a2.42,2.42,0,0,1-.295.05,2.669,2.669,0,0,1-.271.014A3.462,3.462,0,0,1,10416.494,4728.182Zm1.65.274a1.774,1.774,0,0,0,.6,1.55,1.532,1.532,0,0,0,1.685.253,1.322,1.322,0,0,0,.849-.588,1.178,1.178,0,0,0,0-.683,3.142,3.142,0,0,0-1.055-1.5,4.677,4.677,0,0,1-2.069.917C10418.149,4728.424,10418.147,4728.44,10418.145,4728.456Zm-70.268,1.453a3.054,3.054,0,0,1-2.621-1.474,2.35,2.35,0,0,1,.053-2.093.825.825,0,0,1,.1-.319c.653-1.207,1.474-2.507,2.9-2.839a5.867,5.867,0,0,1,3.885.925.873.873,0,0,1,.132.082.719.719,0,0,1,.108-.875,12.884,12.884,0,0,1,3.7-2.546,8.21,8.21,0,0,0,2.307-1.287,3.106,3.106,0,0,1,1.739-.814c1.055-.222,1.218,1.444.174,1.666-.74.153-1.112.859-1.781,1.139-.622.261-1.234.541-1.827.857a10.931,10.931,0,0,0-3,2.043.844.844,0,0,1-1.181.084.807.807,0,0,1,.095.422.787.787,0,0,1,.074.351,4.5,4.5,0,0,1-4.018,4.664c-.168.016-.342.024-.518.024C10348.091,4729.917,10347.984,4729.914,10347.877,4729.908Zm1.027-5.143a1.715,1.715,0,0,0-.208.037,2.293,2.293,0,0,0-1.289,1.094.831.831,0,0,1-.185.509c-.838,1.078-.408,1.919,1,1.843a2.786,2.786,0,0,0,2.845-2.842,4.575,4.575,0,0,0-1.972-.65A1.9,1.9,0,0,0,10348.9,4724.765Zm87.482.651a3.782,3.782,0,0,1-1.708-3.635.672.672,0,0,1,.849-.667,3.126,3.126,0,0,1,3.5-3.011,4.91,4.91,0,0,1,3.991,2.718c.849,2.1-.912,3.725-2.7,4.481a6.622,6.622,0,0,1-1.855.53c-.137.014-.274.021-.411.021A3.3,3.3,0,0,1,10436.387,4725.417Zm1.474-1.234a4.254,4.254,0,0,0,2.623-.835c.951-.63,1.415-1.395.782-2.241a3.5,3.5,0,0,0-2.617-1.355c-.965-.029-1.413.709-1.479,1.766a.694.694,0,0,1-.841.672A1.861,1.861,0,0,0,10437.86,4724.183Zm-49.541-2.636c4-.192,7.168-3,10.9-4.162a.776.776,0,0,1,.15-.3.8.8,0,0,1-.693-1.149c.567-1.154.849-2.52,2.077-3.166a4.051,4.051,0,0,1,3.47.045c2.108.962,3.553,3.182,2.552,5.507-1.334,3.1-6.068,3.7-7.3.738-3.562,1.191-6.622,3.711-10.424,4.109-.185.021-.374.035-.562.042h-.049C10387.415,4723.211,10387.256,4721.6,10388.319,4721.546Zm13.753-7.484a1.291,1.291,0,0,0-.772.343,7.553,7.553,0,0,0-1.1,2.217,1.116,1.116,0,0,1-.076.129.712.712,0,0,1,.728.725c.042,1,.52,1.964,1.674,1.919a2.967,2.967,0,0,0,2.53-1.36,2.514,2.514,0,0,0-1.212-3.553,4.054,4.054,0,0,0-1.583-.429A1.9,1.9,0,0,0,10402.072,4714.063Zm-18.408,7.911a7.273,7.273,0,0,1-1.437-3.609c-.224-1.281-1.086-2.438-1.278-3.77a35.283,35.283,0,0,0-1.474-5.425c-.335-1.02,1.221-1.637,1.558-.606.9,2.773,1.271,5.836,2.465,8.491.361.8.562,2.312.936,3.163a.694.694,0,0,1,.622.714,1.344,1.344,0,0,1-.216.92.792.792,0,0,1-.572.306.958.958,0,0,1-.1.005A.69.69,0,0,1,10383.664,4721.974Zm-20.641-.443a3.584,3.584,0,0,1-1.855-3.976.83.83,0,0,1-.121-.807c.732-2.048,2.881-3.519,5.024-2.438a4.35,4.35,0,0,1,.4.229c2.726-3.01,4.637-6.643,7.387-9.637a.8.8,0,0,1,.113-.105,2.771,2.771,0,0,1,.261-3.451.664.664,0,0,1,.048-.976,4.227,4.227,0,0,1,5.662-.545,5.53,5.53,0,0,1,2.434,4.761c-.412,3.39-4.782,3.163-7.236,1.395-2.776,3.031-4.7,6.708-7.477,9.738a4.058,4.058,0,0,1,.3,3.907,3.864,3.864,0,0,1-3,2.338,3.009,3.009,0,0,1-.318.017A3.181,3.181,0,0,1,10363.023,4721.531Zm1.347-5.878a1.938,1.938,0,0,0-1.389.952.713.713,0,0,1,.037.785,1.881,1.881,0,1,0,3.411,1.547,2.337,2.337,0,0,0-1.224-3.171,1.951,1.951,0,0,0-.664-.122A1.674,1.674,0,0,0,10364.37,4715.652Zm12.725-14.973a2.318,2.318,0,0,0-.948.311.865.865,0,0,1-.232.978c-3.279,2.934,5.541,5.5,4.761,1.732a3.777,3.777,0,0,0-3.33-3.034A2.4,2.4,0,0,0,10377.095,4700.679Zm57.054,19.051c-3.222-.867-4.521-4.766-7.758-5.472-1.05-.229-.783-1.88.271-1.653a8.232,8.232,0,0,1,4.064,2.517c1.06,1.068,2.183,2.547,3.7,2.955.922.246.814,1.6.031,1.679a.608.608,0,0,1-.08,0A.891.891,0,0,1,10434.148,4719.73Zm-16.561-4.739a3.141,3.141,0,0,1-1.895-2.666.762.762,0,0,1,.095-.519.88.88,0,0,1-1.052-1.152,6.478,6.478,0,0,1,.377-.8,33.066,33.066,0,0,0-4.933-5.33c-.83-.69.222-1.993,1.052-1.3a33.924,33.924,0,0,1,4.951,5.283,3.434,3.434,0,0,1,2.834-.9,4.779,4.779,0,0,1,3.613,2.728,3.18,3.18,0,0,1-1.539,4.181,5.625,5.625,0,0,1-2,.656,3.738,3.738,0,0,1-.391.021A3.024,3.024,0,0,1,10417.588,4714.991Zm-.231-2.842c.258,1.879,2.406,1.526,3.5.509a1.5,1.5,0,0,0,.048-2.012,2.994,2.994,0,0,0-2.277-1.4,2.067,2.067,0,0,0-1.492.643.86.86,0,0,1-.628.915c-.087.174-.168.356-.239.541a.947.947,0,0,1-.071.143.917.917,0,0,1,.224-.05.936.936,0,0,1,.1-.005A.807.807,0,0,1,10417.356,4712.149Zm6.667-3.306a57.834,57.834,0,0,0,12.086-8.607,2.617,2.617,0,0,1,.217-.617.81.81,0,0,1-.475-.862,3.672,3.672,0,0,1,3.563-3.443,3.166,3.166,0,0,1,3.338,2.794c.058,2.117-1.613,4.5-3.825,4.682a2.881,2.881,0,0,1-2.3-.767,59.818,59.818,0,0,1-11.991,8.377.832.832,0,0,1-.3.1.656.656,0,0,1-.068,0C10423.55,4710.5,10423.218,4709.275,10424.023,4708.843Zm15.25-11.852c-.029,0-.056.005-.085.01a2.043,2.043,0,0,0-1.685,2,.711.711,0,0,1,.47,1.083c-.183.311-.467.764,0,.952a1.8,1.8,0,0,0,1.41-.084c.886-.411,2.049-1.922,1.658-2.981a1.6,1.6,0,0,0-1.559-.989A1.946,1.946,0,0,0,10439.273,4696.991Zm-36.872,12.466c.222-3.185,1.877-6.161,1.677-9.382a.821.821,0,0,1,.135-.522,4.223,4.223,0,0,1-.852-3.124.8.8,0,0,1-.569-1.131c.8-1.716,2.485-3.575,4.516-2.415a4.2,4.2,0,0,1,1.647,1.829.894.894,0,0,1,.169-.253c1.447-1.54,4.086-1.537,5.979-2.19a.855.855,0,0,1,1.128.73c1.7.931,4.663-.424,3.58-2.625a1.858,1.858,0,0,0-1.959-.944,2.558,2.558,0,0,0-1.916,1.745c-.408,1-1.935.309-1.526-.693a4.1,4.1,0,0,1,3.883-2.733,3.435,3.435,0,0,1,3.208,2.391c1.187,3.872-3.714,6.124-6.574,4-.023-.019-.045-.037-.065-.055-.667.185-1.345.33-2.015.5a5.184,5.184,0,0,0-2.422.925.854.854,0,0,1-1.115.124,5.343,5.343,0,0,1,.185,1.855,3.475,3.475,0,0,1-1.2,2.534,3.15,3.15,0,0,1-2.536.585c-.031,3.124-1.489,6-1.708,9.116a.678.678,0,0,1-.63.677.809.809,0,0,1-.091,0A.9.9,0,0,1,10402.4,4709.458Zm3.517-15.229a1.513,1.513,0,0,0-.983.677.786.786,0,0,1,.274.986c-.369.856-.287,2.833.928,3.084,1.273.266,1.8-1.107,1.69-2.151a3.172,3.172,0,0,0-1.318-2.476,1.1,1.1,0,0,0-.491-.127A.839.839,0,0,0,10405.918,4694.229Z" transform="translate(-21816.076 -9659)" fill="#fef4e1"/>
  </g>
</svg>
