<svg xmlns="http://www.w3.org/2000/svg" width="147.892" height="74.482" viewBox="0 0 147.892 74.482">
    <defs>
        <style>
            .cls-1{fill:#0da886;opacity:.21}.cls-2{fill:#fff}.cls-3{fill:#29396d}.cls-5{fill:#ffb8b8}.cls-6{fill:#fbaf1e}.cls-8{fill:#929599}
        </style>
    </defs>
    <g id="Group_6240" transform="translate(-106.108 -416.001)">
        <g id="Group_6237" transform="translate(1570.108 -8923.734)">
            <path id="Path_22742" d="M866.065 710.278c-1.019 3.536-4 6.011-7.1 8.114q-.65.44-1.3.861l-.009.005-.061.04-.268.172.049.022s.048.026 0 0l-.047-.019a14.8 14.8 0 0 1-5.021-2.871 5.224 5.224 0 0 1-1.5-5.494 3.553 3.553 0 0 1 .384-.69c.063-.09.131-.176.2-.261a3.8 3.8 0 0 1 6.534 1.156c.228-2.124-1.523-3.9-3.208-5.215s-3.6-2.741-3.928-4.853a4.116 4.116 0 0 1 .971-3.228l.07-.083a5.552 5.552 0 0 1 3.569-1.914c2.585-.269 5.1 1.1 6.974 2.9 3.026 2.895 4.85 7.337 3.691 11.358z" class="cls-1" transform="translate(-2190.02 8694.325)"/>
            <path id="Path_22743" d="M863.9 713.321a9.438 9.438 0 0 1 1.131 2.494 8.2 8.2 0 0 1 .283 2.421 10.5 10.5 0 0 1-1.375 4.779 15.111 15.111 0 0 1-2.28 3.047q-.65.44-1.3.861l-.009.005-.061.04-.268.172s.1.047.044.026l-.047-.019a8.28 8.28 0 0 0-6.133-9.055c.063-.09.131-.176.2-.261a8.736 8.736 0 0 1 1.442.546 8.56 8.56 0 0 1 3.87 3.731 8.751 8.751 0 0 1 .953 4.8c.074-.067.148-.136.22-.2a15.348 15.348 0 0 0 3.412-4.437 9.768 9.768 0 0 0 1.018-4.624 8.828 8.828 0 0 0-1.77-4.771 20.445 20.445 0 0 0-3.876-3.995 23.235 23.235 0 0 0-4.821-2.976.167.167 0 0 1-.084-.214.142.142 0 0 1 .07-.083.124.124 0 0 1 .107 0l.633.3a23.5 23.5 0 0 1 4.855 3.2 18.918 18.918 0 0 1 3.786 4.213z" class="cls-2" transform="translate(-2192.712 8686.657)"/>
            <path id="Path_22744" d="M238.558 641.936c1.65 5.723 6.467 9.73 11.492 13.133q1.052.713 2.106 1.393l.014.009c.034.022.068.043.1.065l.434.279-.079.035s-.078.041.007.007l.077-.031c2.919-1.177 5.89-2.441 8.127-4.647 2.321-2.29 3.677-5.883 2.42-8.892a5.746 5.746 0 0 0-.622-1.116c-.1-.146-.212-.285-.326-.422a6.158 6.158 0 0 0-10.576 1.871c-.369-3.437 2.465-6.317 5.193-8.441s5.83-4.436 6.357-7.854a6.662 6.662 0 0 0-1.571-5.224l-.113-.134a8.986 8.986 0 0 0-5.776-3.1c-4.184-.435-8.249 1.78-11.288 4.689-4.893 4.683-7.851 11.872-5.976 18.38z" class="cls-1" transform="translate(-1701.083 8755.933)"/>
            <path id="Path_22745" d="M270.708 646.86a15.278 15.278 0 0 0-1.83 4.037 13.264 13.264 0 0 0-.458 3.918 17 17 0 0 0 2.226 7.734 24.46 24.46 0 0 0 3.69 4.931q1.052.713 2.106 1.393l.014.009c.034.022.068.043.1.065l.434.279s-.156.077-.072.042l.077-.031a13.4 13.4 0 0 1 9.926-14.655c-.1-.146-.212-.285-.326-.422a14.14 14.14 0 0 0-2.334.883 13.854 13.854 0 0 0-6.261 6.039 14.164 14.164 0 0 0-1.542 7.773c-.12-.109-.24-.22-.357-.33a24.835 24.835 0 0 1-5.522-7.182 15.811 15.811 0 0 1-1.656-7.481 14.29 14.29 0 0 1 2.865-7.722 33.1 33.1 0 0 1 6.273-6.465 37.606 37.606 0 0 1 7.8-4.817.27.27 0 0 0 .136-.347.23.23 0 0 0-.113-.134.2.2 0 0 0-.174.007c-.344.158-.686.319-1.025.487a38.035 38.035 0 0 0-7.858 5.183 30.618 30.618 0 0 0-6.119 6.806z" class="cls-2" transform="translate(-1725.369 8743.521)"/>
            <path id="Path_22748" d="M570.073 295.207c-2.5-1.148-4.142-4.431-4.048-7.668a9.862 9.862 0 0 1 4.147-7.809 8.213 8.213 0 0 1 7.772-.587c2.522 1.073 5.907 1.366 7.423 4.034 1.165 2.05.745 6.624-.079 8.9a6.515 6.515 0 0 1-4.155 3.7 13.973 13.973 0 0 1-11.56-.931z" class="cls-3" transform="translate(-1962.931 9077.671)"/>
            <path id="Path_22749" fill="#2f2e41" d="M554.865 505.282l-1.055-4.3-.075-.309a1.385 1.385 0 0 0-.985-1l-1.053-.283-.934-.252-2.016-.541-4.074-1.094-3.605-.97-.872-.234-2.395-.644-1.489-.4-2.31-.619-.186-.05a1.393 1.393 0 0 0-1.632.785q-.151.348-.3.708a50.589 50.589 0 0 0-2.667 9.2c-.026.133-.055.268-.079.4h21.387v.071c.036-.022.073-.044.109-.071h4.326z" transform="translate(-1933.491 8905.172)"/>
            <circle id="Ellipse_308" cx="7.569" cy="7.569" r="7.569" class="cls-5" transform="rotate(-45 10609.434 6372.204)"/>
            <path id="Path_22750" d="M561.494 416.613a15.789 15.789 0 0 1-2.635 2.346c-.2.139-.4.274-.6.4-.036.026-.073.048-.109.071v-.071h-17.341a1.037 1.037 0 0 1-.1-.093c-.109-.1-.216-.2-.319-.311a9.955 9.955 0 0 1-1.7-2.346l2.119-5.99.815-2.31 1.184-3.345 1.275-3.61a8.635 8.635 0 0 1-.27-1.019c-1.209-6.13 4.739-12.077 4.739-12.077q.069-.055.139-.1a8.785 8.785 0 0 1 1.854-1.049 11.514 11.514 0 0 1 7.673-.093 15.015 15.015 0 0 1 2 .759c.23.109.355.178.355.178l.2 5.924.266 8.1.143 4.517.18 5.7.077 2.468z" class="cls-3" transform="translate(-1941.113 8991.494)"/>
            <path id="Path_22751" d="M646.975 415.964l-1.9-9.675-.266-1.352 1.287-5.762-.6-3.065-2.25-11.43a1.4 1.4 0 0 0-1.126-1.1l-2.752-.474-2.556-.442a1.373 1.373 0 0 0-1.326.508 1.354 1.354 0 0 0-.3.845 1.409 1.409 0 0 0 .115.553c1.866 4.352 1.168 12.261.494 19.908l-.059.672c-.141 1.59-.274 3.156-.383 4.667-.036.5-.069 1-.1 1.491-.1 1.634-.155 3.2-.143 4.655 0 .135 0 .27.006.4v.071c.036-.022.073-.044.109-.071h11.833z" class="cls-6" transform="translate(-2018.074 8994.489)"/>
            <path id="Path_22752" d="M534.405 385.741a1.39 1.39 0 0 0-2.2-.765l-.7.636-5.312 4.836a1.377 1.377 0 0 0-.347.49c-.494 1.184-1.416 3.414-2.506 6.19-.385.985-.793 2.04-1.211 3.139-.7 1.834 1.632 4.643.934 6.632q-.182.524-.385 1.029c-1.414 3.561-3.424 6.569-4.118 9.664l-.089.4h7.685l.03-.093.095-.311c.567-1.85 1.2-3.882 1.868-6.017l.278-.89.855-2.722c.04-.133.083-.266.125-.4q.145-.466.293-.932.194-.611.387-1.227c.335-1.065.672-2.137 1.009-3.2 1.366-4.336 1.067-8.506 2.1-11.835l.044-.141c.442-1.432.831-2.7 1.146-3.763a1.385 1.385 0 0 0 .019-.72z" class="cls-6" transform="translate(-1924.974 8992.859)"/>
            <path id="Path_22753" fill="#0da886" d="M622.388 276.308a1.252 1.252 0 0 0 1.33-.743 1.8 1.8 0 0 0-.128-1.583 3.309 3.309 0 0 0-1.164-1.141 3.824 3.824 0 0 0-1.843-.634 2.3 2.3 0 0 0-1.786.678 1.657 1.657 0 0 0-.3 1.827 2.444 2.444 0 0 0 1.423 1.036 8.35 8.35 0 0 0 3.506.461z" transform="translate(-2004.7 9082.648)"/>
            <path id="Path_22754" d="M593.73 303.8c-1.179.343-1.115-.292-1.762-1.337s-1.487-2.274-2.714-2.208c-1.005.054-1.705.967-2.422 1.674a5.514 5.514 0 0 1-4.884 1.674 3.562 3.562 0 0 1-2.812-3.945 3.68 3.68 0 0 1 1.812-2.3 7.405 7.405 0 0 1 2.874-.84 15.3 15.3 0 0 1 6.6.69 6.215 6.215 0 0 1 3.669 2.65c.729 1.363 1.368 3.335-.054 3.943z" class="cls-3" transform="translate(-1973.35 9063.322)"/>
            <path id="Path_22755" d="M653.849 263.786v6.943c-.135.034-.268.067-.4.095-.972.216-1.963.359-2.948.478a12.453 12.453 0 0 1-4.584-.059 8.1 8.1 0 0 1-4.883-3.944 12.827 12.827 0 0 1-1.487-6.206c-.012-1.675.206-3.351.091-5.022a6.885 6.885 0 0 0-1.83-4.556 3.666 3.666 0 0 0-4.584-.519 6.278 6.278 0 0 0-.636.591 3.509 3.509 0 0 1-.894.718c-.6.3-1.552.067-1.592-.605l.63-1.176-.062-.081a3.424 3.424 0 0 1 .6-4.3 5.761 5.761 0 0 1 4.5-1.324 9.127 9.127 0 0 1 7.4 5.325c1.017 2.322 1.007 4.979 1.927 7.344a10.023 10.023 0 0 0 5.52 5.595 9.842 9.842 0 0 0 2.821.672c.143.015.276.023.411.031z" class="cls-3" transform="translate(-2014.081 9104.527)"/>
            <path id="Path_22756" d="M596.016 472.394h-.086v-2.344a1.357 1.357 0 0 0-1.357-1.357h-4.966a1.357 1.357 0 0 0-1.357 1.357v12.86a1.357 1.357 0 0 0 1.357 1.357h4.966a1.357 1.357 0 0 0 1.357-1.357v-8.847h.086z" class="cls-2" transform="translate(-1980.676 8925.801)"/>
            <circle id="Ellipse_309" cx="1.541" cy="1.541" r="1.541" class="cls-3" transform="translate(-1390.083 9397.879)"/>
            <path id="Path_22757" d="M535.14 454.925c-.036-.044-.077-.087-.117-.129a3.405 3.405 0 0 0-2.57-1.025 3.527 3.527 0 0 0-.452.052l-.085-.085-.872-.872-1.977-1.975-1.227-1.227-1.806-1.806-1.356-1.354-.527-.527.93-3.642-2.377-.95-3.1-1.237-.048-.02-.115.315-.827 2.294-.617 1.7a5.557 5.557 0 0 0 1.378 5.869 5.463 5.463 0 0 0 .559.47l2.106 1.4.692.46 1.3.868 2.145 1.43 1.336.89 1.695 1.13a3.122 3.122 0 0 0-.006.333 3.392 3.392 0 0 0 1.233 2.478 3.325 3.325 0 0 0 1.533.716 3.382 3.382 0 0 0 3.872-2.381 3.181 3.181 0 0 0 .129-.706 3.362 3.362 0 0 0-.829-2.469z" class="cls-5" transform="translate(-1924.341 8948.602)"/>
            <path id="Path_22758" d="M623.59 451.392l-.311-1.864-.444-2.657-2.534.508-3.295.662.256 3.751-.19.131-4.124 2.841-2.407 1.656-2.4 1.652-.018.012a3.082 3.082 0 0 0-.434-.133 3.4 3.4 0 0 0-2.714.541 3.361 3.361 0 0 0-.908.958 3.288 3.288 0 0 0-.381.853 3.482 3.482 0 0 0-.117.583 3.383 3.383 0 0 0 .821 2.6 3.382 3.382 0 0 0 3.751.936 3.116 3.116 0 0 0 .442-.206 3.388 3.388 0 0 0 1.475-1.644 3.24 3.24 0 0 0 .186-.569 3.3 3.3 0 0 0 .054-.329l.793-.341 2.036-.876 6.755-2.905.654-.28a5.435 5.435 0 0 0 1.5-1.071 5.553 5.553 0 0 0 1.554-4.809z" class="cls-5" transform="translate(-1992.887 8943.221)"/>
            <path id="Path_22759" d="M534.837 388.049a4.267 4.267 0 0 0-.466-1.116 4.171 4.171 0 0 0-1.047-1.178 4.382 4.382 0 0 0-.561-.365 4.262 4.262 0 0 0-5.785 1.685l-4.917 8.96-.163.295-1.148 2.094.321.2 2.877 1.788 3.184 1.979.224.139 2.137-3.414 4.834-7.73a4.286 4.286 0 0 0 .444-.946l.042-.141a4.226 4.226 0 0 0 .024-2.25z" class="cls-6" transform="translate(-1926.794 8992.716)"/>
            <path id="Path_22760" d="M650.058 386.575a4.264 4.264 0 0 0-5.339-2.516q-.2.067-.387.151a4.234 4.234 0 0 0-1.8 1.519 4.159 4.159 0 0 0-.44.853 4.239 4.239 0 0 0 .1 3.26l.894 1.987 4.413 9.822.121-.046 3.832-1.479 2.375-.916.928-.357z" class="cls-6" transform="translate(-2023.432 8993.537)"/>
            <path id="Path_22763" d="M381.19 812.848H233.7a.2.2 0 0 1 0-.4h147.49a.2.2 0 0 1 0 .4z" class="cls-8" transform="translate(-1697.5 8601.369)"/>
            <path id="Path_22764" d="M528.856 232.79H481.24a3.435 3.435 0 0 0-3.43 3.43v57.1a3.435 3.435 0 0 0 3.43 3.43h47.616a3.434 3.434 0 0 0 3.43-3.43v-57.1a3.434 3.434 0 0 0-3.43-3.43zm3.026 60.529a3.03 3.03 0 0 1-3.026 3.026H481.24a3.03 3.03 0 0 1-3.026-3.026v-57.1a3.03 3.03 0 0 1 3.026-3.026h47.616a3.03 3.03 0 0 1 3.026 3.026z" class="cls-8" transform="translate(-1892.517 9114.107)"/>
            <path id="Path_22765" fill="#29396d" d="M342.262 219.794a1.293 1.293 0 0 1-.919-.387l-6.133-8a1.522 1.522 0 0 0-1.2-.593h-35.523a6.759 6.759 0 0 1 0-13.518h44.388a6.759 6.759 0 0 1 1.8 13.274 1.506 1.506 0 0 0-1.1 1.453v6.461a1.291 1.291 0 0 1-.81 1.212 1.332 1.332 0 0 1-.503.098z" opacity="0.21" transform="translate(-1743.98 9142.444)"/>
            <circle id="Ellipse_310" cx="2.9" cy="2.9" r="2.9" class="cls-2" transform="translate(-1446.3 9343.595)"/>
            <circle id="Ellipse_311" cx="2.9" cy="2.9" r="2.9" class="cls-2" transform="translate(-1437.295 9343.595)"/>
            <circle id="Ellipse_312" cx="2.9" cy="2.9" r="2.9" class="cls-2" transform="translate(-1428.291 9343.595)"/>
        </g>
    </g>
</svg>
